STARTFONT 2.1
COMMENT
COMMENT Converted from TrueType font "LucidaSansRegular.ttf" by "ttf2bdf 2.6".
COMMENT
FONT -FreeType-Lucida Sans-Medium-R-Normal--55-400-100-100-P-305-ISO10646-1
SIZE 40 100 100
FONTBOUNDINGBOX 127 106 -35 -41
STARTPROPERTIES 22
FOUNDRY "FreeType"
FAMILY_NAME "Lucida Sans"
WEIGHT_NAME "Medium"
SLANT "R"
SETWIDTH_NAME "Normal"
ADD_STYLE_NAME ""
PIXEL_SIZE 55
POINT_SIZE 400
RESOLUTION_X 100
RESOLUTION_Y 100
SPACING "P"
AVERAGE_WIDTH 305
CHARSET_REGISTRY "ISO10646"
CHARSET_ENCODING "1"
FONT_ASCENT 53
FONT_DESCENT 11
COPYRIGHT "Copyright (c) 1999 by Bigelow & Holmes Inc. Pat. Des. 289,420."
_TTF_FONTFILE "LucidaSansRegular.ttf"
_TTF_PSNAME "LucidaSans"
_XFREE86_GLYPH_RANGES "32_126 160_383 402 506_511 536_539 592_680 688_734 736_745 768_837 884_885 890 894 900_906 908 910_929 931_974 976_982 986 988 990 992 994_1011 1025_1036 1038_1103 1105_1116 1118_1158 1168_1220 1223_1224 1227_1228 1232_1259 1262_1269 1272_1273 1425_1441 1443_1465 1467_1476 1488_1514 1520_1524 1548 1563 1567 1569_1594 1600_1618 1632_1645 1648_1719 1722_1726 1728_1742 1744_1773 1776_1785 2305_2307 2309_2361 2364_2381 2384_2388 2392_2416 3585_3642 3647_3675 7808_7813 7922_7923 8192_8238"
_XFREE86_GLYPH_RANGES "8240_8262 8298_8304 8308_8334 8337 8352_8364 8448_8504 8531_8578 8592_8682 8704_8945 8962 8976 8992_8993 9312_9321 9472 9474 9484 9488 9492 9496 9500 9508 9516 9524 9532 9552_9580 9600 9604 9608 9612 9616_9619 9632_9633 9642_9644 9650 9658 9660 9668 9670 9674_9676 9679 9687_9689 9702 9733 9742 9755 9758 9786_9788 9792 9794 9824 9827 9829_9830 9834_9835 9985_9988 9990_9993 9996_10023 10025_10059 10061 10063_10066 10070 10072_10078 10081_10087 10102_10132 10136_10159 10161_10174"
_XFREE86_GLYPH_RANGES "61440_61442 62977_62981 62986_62998 63488_63495 63498_63499 63502_63505 63508_63509 63519_63520 63539 64256_64260 64286_64287 64297_64310 64312_64316 64318 64320_64321 64323_64324 64326_64334 64606_64610 65136_65138 65140 65142_65276 65279"
ENDPROPERTIES
CHARS 2388
STARTCHAR 0020
ENCODING 32
SWIDTH 306 0
DWIDTH 17 0
BBX 1 1 0 0
BITMAP
00
ENDCHAR
STARTCHAR 0021
ENCODING 33
SWIDTH 324 0
DWIDTH 18 0
BBX 5 41 6 0
BITMAP
F8
F8
F8
F8
F8
F8
F8
F8
F8
F8
F8
F8
F8
F8
F8
F8
F8
F8
F8
F8
F8
F8
F8
F8
F8
F8
78
78
70
70
70
00
00
00
00
00
F8
F8
F8
F8
F8
ENDCHAR
STARTCHAR 0022
ENCODING 34
SWIDTH 378 0
DWIDTH 21 0
BBX 15 13 3 31
BITMAP
F83E
F83E
F83E
F83E
F83E
F83E
F83E
F83E
F83E
F83E
781E
701C
701C
ENDCHAR
STARTCHAR 0023
ENCODING 35
SWIDTH 630 0
DWIDTH 35 0
BBX 35 41 0 0
BITMAP
0001C01C00
0001C03C00
0003C03800
0003803800
0003803800
0003803800
0007807000
0007007000
0007007000
0007007000
000F00E000
000E00E000
0FFFFFFFE0
1FFFFFFFE0
1FFFFFFFC0
001C01C000
001C01C000
001C01C000
003C03C000
0038038000
0038038000
0038038000
0078078000
0070070000
0070070000
0070070000
7FFFFFFF00
FFFFFFFF00
FFFFFFFE00
00E00E0000
00E01E0000
01C01C0000
01C01C0000
01C01C0000
01C03C0000
0380380000
0380380000
0380380000
0380380000
0700700000
0700700000
ENDCHAR
STARTCHAR 0024
ENCODING 36
SWIDTH 630 0
DWIDTH 35 0
BBX 23 47 6 -3
BITMAP
001C00
001C00
001C00
00FF80
03FFE0
0FFFF8
1FFFFC
1FDCFC
3F1C1C
7E1C04
7C1C00
7C1C00
7C1C00
7C1C00
7C1C00
7E1C00
3E1C00
3F1C00
1F9C00
1FFC00
0FFC00
03FC00
01FF00
00FF80
003FE0
001FF0
001FF8
001DFC
001CFC
001C7E
001C7E
001C3E
001C3E
001C3E
001C3E
001C3E
001C7C
801C7C
F01CFC
FE1FF8
FFFFF0
7FFFE0
1FFFC0
01FF00
001C00
001C00
001C00
ENDCHAR
STARTCHAR 0025
ENCODING 37
SWIDTH 666 0
DWIDTH 37 0
BBX 37 43 0 -1
BITMAP
0000000078
07F00000F0
0FF80001E0
3FFE0001C0
3FFE000380
7C3F000780
780F000F00
F80F800E00
F007801C00
F007803C00
F007807800
F00780F000
F00780E000
F00781C000
F80F83C000
780F078000
7C1F070000
3FFE0E0000
3FFE1E0000
0FF83C0000
07F0780000
0000700000
0000F07E00
0001E0FF80
0003C3FFE0
000383FFE0
000707C3F0
000F0780F0
001E0F80F8
001C0F0078
00380F0078
00780F0078
00F00F0078
01E00F0078
01C00F0078
03800F80F8
07800780F0
0F0007C1F0
0E0003FFE0
1C0003FFE0
3C0000FF80
7800007F00
F000000000
ENDCHAR
STARTCHAR 0026
ENCODING 38
SWIDTH 702 0
DWIDTH 39 0
BBX 34 43 2 -1
BITMAP
0007E00000
001FF80000
003FFE0000
007FFF0000
00FC3F0000
00F81F8000
01F00F8000
01F00F8000
01F00F8000
01F00F8000
01F00F8000
01F81F0000
00F83F0000
00F87E0000
00FCFC0000
007FF80000
007FF00000
00FFE00000
03FF800000
07FF800000
0FEF8007C0
1F8FC007C0
3F07E007C0
7E07E007C0
7C03F007C0
7C01F80780
F801F80780
F800FC0F80
F800FE0F80
F8007E0F00
F8003F1F00
F8001F9E00
FC001FFE00
FC000FFC00
7E0007F800
7E0007F800
3F0003F800
3FC007FC00
1FF03FFE00
0FFFFFFE00
07FFFE7F00
01FFF83F80
003FC00000
ENDCHAR
STARTCHAR 0027
ENCODING 39
SWIDTH 234 0
DWIDTH 13 0
BBX 7 15 3 29
BITMAP
FE
FE
FE
FE
FE
7C
7C
7C
7C
7C
7C
7C
7C
7C
7C
ENDCHAR
STARTCHAR 0028
ENCODING 40
SWIDTH 324 0
DWIDTH 18 0
BBX 13 52 3 -8
BITMAP
0008
0018
0038
0078
00F8
01F0
03E0
03C0
0780
0F80
0F00
1F00
1E00
3E00
3E00
3C00
7C00
7C00
7C00
7800
F800
F800
F800
F800
F800
F800
F800
F800
F800
F800
F800
F800
7800
7C00
7C00
7C00
3C00
3C00
3E00
1E00
1F00
0F00
0F80
0780
03C0
03E0
01F0
00F0
0078
0038
0018
0008
ENDCHAR
STARTCHAR 0029
ENCODING 41
SWIDTH 324 0
DWIDTH 18 0
BBX 13 52 2 -8
BITMAP
8000
C000
E000
F000
F800
7C00
3E00
1E00
0F00
0F80
0780
07C0
03C0
03E0
03E0
01E0
01F0
01F0
01F0
00F0
00F8
00F8
00F8
00F8
00F8
00F8
00F8
00F8
00F8
00F8
00F8
00F8
00F0
01F0
01F0
01F0
01E0
03E0
03E0
03C0
07C0
0780
0F80
0F00
1E00
3E00
7C00
F800
F000
E000
C000
8000
ENDCHAR
STARTCHAR 002A
ENCODING 42
SWIDTH 486 0
DWIDTH 27 0
BBX 20 20 3 20
BITMAP
00F000
00F000
00F000
00F000
00F000
406020
7060E0
FC63F0
FF0FF0
3F0FC0
030C00
000000
019800
039C00
079C00
070E00
0F0F00
1E0780
0E0700
040200
ENDCHAR
STARTCHAR 002B
ENCODING 43
SWIDTH 810 0
DWIDTH 45 0
BBX 32 32 6 0
BITMAP
0003C000
0003C000
0003C000
0003C000
0003C000
0003C000
0003C000
0003C000
0003C000
0003C000
0003C000
0003C000
0003C000
0003C000
FFFFFFFF
FFFFFFFF
FFFFFFFF
FFFFFFFF
0003C000
0003C000
0003C000
0003C000
0003C000
0003C000
0003C000
0003C000
0003C000
0003C000
0003C000
0003C000
0003C000
0003C000
ENDCHAR
STARTCHAR 002C
ENCODING 44
SWIDTH 324 0
DWIDTH 18 0
BBX 7 16 6 -9
BITMAP
FE
FE
FE
FE
FE
FE
FE
1E
1E
1E
1C
3C
3C
78
F0
C0
ENDCHAR
STARTCHAR 002D
ENCODING 45
SWIDTH 576 0
DWIDTH 32 0
BBX 24 4 4 14
BITMAP
FFFFFF
FFFFFF
FFFFFF
FFFFFF
ENDCHAR
STARTCHAR 002E
ENCODING 46
SWIDTH 324 0
DWIDTH 18 0
BBX 7 7 6 0
BITMAP
FE
FE
FE
FE
FE
FE
FE
ENDCHAR
STARTCHAR 002F
ENCODING 47
SWIDTH 522 0
DWIDTH 29 0
BBX 19 49 5 -8
BITMAP
0001E0
0001E0
0003C0
0003C0
0003C0
0007C0
000780
000780
000F80
000F00
000F00
001F00
001E00
001E00
001E00
003C00
003C00
003C00
007800
007800
007800
00F800
00F000
00F000
01F000
01E000
01E000
03E000
03C000
03C000
03C000
078000
078000
078000
0F0000
0F0000
0F0000
1F0000
1E0000
1E0000
3E0000
3C0000
3C0000
7C0000
780000
780000
780000
F00000
F00000
ENDCHAR
STARTCHAR 0030
ENCODING 48
SWIDTH 630 0
DWIDTH 35 0
BBX 27 43 4 -1
BITMAP
003F8000
00FFE000
01FFF000
03FFF800
07E0FC00
0F803E00
1F001F00
1F001F00
3E000F80
3E000F80
3C000780
7C0007C0
7C0007C0
7C0007C0
780003C0
F80003E0
F80003E0
F80003E0
F80003E0
F80003E0
F80003E0
F80003E0
F80003E0
F80003E0
F80003E0
F80003E0
F80003E0
F80003E0
780003C0
7C0007C0
7C0007C0
7C0007C0
3C000780
3E000F80
3E000F80
1F001F00
1F001F00
0F803E00
07E0FC00
03FFF800
01FFF000
00FFE000
003F8000
ENDCHAR
STARTCHAR 0031
ENCODING 49
SWIDTH 630 0
DWIDTH 35 0
BBX 21 42 8 0
BITMAP
001800
03F800
3FF800
FFF800
FFF800
FEF800
E0F800
00F800
00F800
00F800
00F800
00F800
00F800
00F800
00F800
00F800
00F800
00F800
00F800
00F800
00F800
00F800
00F800
00F800
00F800
00F800
00F800
00F800
00F800
00F800
00F800
00F800
00F800
00F800
00F800
00F800
00F800
00F800
FFFFF8
FFFFF8
FFFFF8
FFFFF8
ENDCHAR
STARTCHAR 0032
ENCODING 50
SWIDTH 630 0
DWIDTH 35 0
BBX 24 42 5 0
BITMAP
01FF00
0FFFC0
3FFFF0
7FFFF8
7E03FC
7000FE
40007E
00003E
00001F
00001F
00001F
00001F
00001F
00001F
00003F
00003E
00003E
00007C
0000FC
0000F8
0001F0
0003E0
000FC0
001F80
003E00
007C00
00F800
01F000
03E000
07C000
0F8000
1F0000
1E0000
3C0000
7C0000
780000
F80000
FFFFFF
FFFFFF
FFFFFF
FFFFFF
FFFFFF
ENDCHAR
STARTCHAR 0033
ENCODING 51
SWIDTH 630 0
DWIDTH 35 0
BBX 24 43 6 -1
BITMAP
03FE00
3FFFC0
7FFFF0
7FFFF8
7C03FC
4000FC
00007E
00003E
00003E
00003E
00003E
00003E
00003E
00007C
00007C
0000F8
0003F0
001FC0
0FFF80
0FFC00
0FFF80
0FFFE0
000FF0
0001FC
0000FC
00007E
00003E
00003F
00001F
00001F
00001F
00001F
00001F
00001F
00003E
00007E
00007E
C001FC
FC07F8
FFFFF0
FFFFE0
3FFF80
07FC00
ENDCHAR
STARTCHAR 0034
ENCODING 52
SWIDTH 630 0
DWIDTH 35 0
BBX 28 41 3 0
BITMAP
00003E00
00007E00
0000FE00
0001FE00
0001FE00
0003FE00
0007FE00
0007BE00
000FBE00
001F3E00
003E3E00
003E3E00
007C3E00
00F83E00
00F03E00
01F03E00
03E03E00
07C03E00
07803E00
0F803E00
1F003E00
3E003E00
3E003E00
7C003E00
F8003E00
FFFFFFF0
FFFFFFF0
FFFFFFF0
FFFFFFF0
00003E00
00003E00
00003E00
00003E00
00003E00
00003E00
00003E00
00003E00
00003E00
00003E00
00003E00
00003E00
ENDCHAR
STARTCHAR 0035
ENCODING 53
SWIDTH 630 0
DWIDTH 35 0
BBX 21 42 7 -1
BITMAP
7FFFF0
7FFFF0
7FFFF0
7FFFF0
7FFFF0
7C0000
7C0000
7C0000
7C0000
7C0000
7C0000
7C0000
7C0000
7C0000
7C0000
7C0000
7FE000
7FFC00
7FFF00
7FFF80
007FC0
000FE0
0007E0
0003F0
0001F0
0001F8
0000F8
0000F8
0000F8
0000F8
0000F8
0000F8
0000F8
0001F0
0001F0
0003F0
8007E0
F01FC0
FFFF80
FFFF00
7FFC00
1FE000
ENDCHAR
STARTCHAR 0036
ENCODING 54
SWIDTH 630 0
DWIDTH 35 0
BBX 27 43 4 -1
BITMAP
000FF000
007FFF00
00FFFF80
03FFFF80
07F00F80
07C00180
0F800000
1F000000
1E000000
3E000000
3E000000
7C000000
7C000000
7C000000
78000000
78000000
F81FC000
F87FF800
F9FFFC00
FBFFFF00
FFE07F00
FF801F80
FE000FC0
FC000FC0
FC0007C0
F80007E0
F80003E0
F80003E0
F80003E0
780003E0
780003E0
780003E0
7C0003E0
3C0007C0
3C0007C0
3E0007C0
1F000F80
0F801F00
0FE07F00
07FFFE00
03FFFC00
00FFF000
003FC000
ENDCHAR
STARTCHAR 0037
ENCODING 55
SWIDTH 630 0
DWIDTH 35 0
BBX 26 41 6 0
BITMAP
FFFFFFC0
FFFFFFC0
FFFFFFC0
FFFFFFC0
FFFFFFC0
00000FC0
00000F80
00001F00
00001F00
00003E00
00007C00
00007800
0000F800
0001F000
0001E000
0003E000
0003C000
00078000
000F8000
000F0000
001F0000
001E0000
003E0000
007C0000
00780000
00F80000
01F00000
01F00000
03E00000
03E00000
07C00000
07C00000
0FC00000
0F800000
0F800000
1F000000
1F000000
1F000000
3F000000
3E000000
3E000000
ENDCHAR
STARTCHAR 0038
ENCODING 56
SWIDTH 630 0
DWIDTH 35 0
BBX 26 43 5 -1
BITMAP
003F8000
01FFF000
03FFF800
07FFFC00
0FC0FE00
1F807E00
1F003F00
3E001F00
3E001F00
3E001F00
3E001F00
3E001F00
3F003E00
1F803E00
1FC03C00
0FE07C00
0FF0F800
07FDF000
03FFE000
00FFC000
01FFE000
07FFF000
0FCFFC00
1F87FE00
3F01FE00
3E00FF00
7C003F80
7C001F80
F8000FC0
F8000FC0
F80007C0
F80007C0
F80007C0
F80007C0
FC0007C0
7C000F80
7E001F80
7F003F00
3FC0FF00
1FFFFE00
0FFFF800
03FFF000
007F8000
ENDCHAR
STARTCHAR 0039
ENCODING 57
SWIDTH 630 0
DWIDTH 35 0
BBX 27 43 4 -1
BITMAP
007F8000
01FFE000
07FFF800
0FFFFC00
1FC0FE00
1F003E00
3E001F00
7E000F00
7C000F80
7C000780
F80007C0
F80007C0
F80003C0
F80003C0
F80003E0
F80003E0
F80003E0
F80003E0
FC0003E0
7C0007E0
7E000FE0
3E000FE0
3F003FE0
1FC0FBE0
0FFFF3E0
07FFE3E0
01FFC3C0
007F03C0
000007C0
000007C0
000007C0
00000780
00000F80
00000F00
00001F00
00003E00
00003E00
2000FC00
3E03F800
3FFFF000
3FFFE000
1FFF8000
01FC0000
ENDCHAR
STARTCHAR 003A
ENCODING 58
SWIDTH 324 0
DWIDTH 18 0
BBX 5 30 6 0
BITMAP
F8
F8
F8
F8
F8
00
00
00
00
00
00
00
00
00
00
00
00
00
00
00
00
00
00
00
00
F8
F8
F8
F8
F8
ENDCHAR
STARTCHAR 003B
ENCODING 59
SWIDTH 324 0
DWIDTH 18 0
BBX 5 39 6 -9
BITMAP
F8
F8
F8
F8
F8
00
00
00
00
00
00
00
00
00
00
00
00
00
00
00
00
00
00
00
00
F8
F8
F8
F8
F8
38
38
38
38
30
70
60
E0
80
ENDCHAR
STARTCHAR 003C
ENCODING 60
SWIDTH 810 0
DWIDTH 45 0
BBX 33 33 6 0
BITMAP
0000000080
0000000380
0000000F80
0000003F80
000000FF80
000003FE00
00000FF800
00003FE000
0000FF8000
0003FE0000
000FF80000
003FE00000
00FF800000
03FE000000
0FF8000000
3FE0000000
FF80000000
3FE0000000
0FF8000000
03FE000000
00FF800000
003FE00000
000FF80000
0003FE0000
0000FF8000
00003FE000
00000FF800
000003FE00
000000FF80
0000003F80
0000000F80
0000000380
0000000080
ENDCHAR
STARTCHAR 003D
ENCODING 61
SWIDTH 810 0
DWIDTH 45 0
BBX 33 14 6 9
BITMAP
FFFFFFFF80
FFFFFFFF80
FFFFFFFF80
FFFFFFFF80
0000000000
0000000000
0000000000
0000000000
0000000000
0000000000
FFFFFFFF80
FFFFFFFF80
FFFFFFFF80
FFFFFFFF80
ENDCHAR
STARTCHAR 003E
ENCODING 62
SWIDTH 810 0
DWIDTH 45 0
BBX 33 33 6 0
BITMAP
8000000000
E000000000
F800000000
FE00000000
FF80000000
3FE0000000
0FF8000000
03FE000000
00FF800000
003FE00000
000FF80000
0003FE0000
0000FF8000
00003FE000
00000FF800
000003FE00
000000FF80
000003FE00
00000FF800
00003FE000
0000FF8000
0003FE0000
000FF80000
003FE00000
00FF800000
03FE000000
0FF8000000
3FE0000000
FF80000000
FE00000000
F800000000
E000000000
8000000000
ENDCHAR
STARTCHAR 003F
ENCODING 63
SWIDTH 432 0
DWIDTH 24 0
BBX 22 42 1 0
BITMAP
07FC00
7FFF80
FFFFC0
FFFFF0
F807F0
8001F8
0000F8
00007C
00007C
00007C
00007C
00007C
0000FC
0000F8
0001F8
0003F0
0003E0
0007C0
000F80
001F00
003E00
007C00
007800
00F000
01F000
01E000
01E000
03E000
03E000
03E000
03E000
03E000
000000
000000
000000
000000
000000
03E000
03E000
03E000
03E000
03E000
ENDCHAR
STARTCHAR 0040
ENCODING 64
SWIDTH 864 0
DWIDTH 48 0
BBX 43 43 3 -1
BITMAP
000007FC0000
00007FFF8000
0001FFFFE000
0007F007F000
001F8000F800
003E00003C00
007C00001E00
00F000000F00
01E000000780
03C007FF0380
07801FFF03C0
07007FFF01C0
0E00F03E01C0
1E01E01E01E0
1C01C01E00E0
3C03801E00E0
3807003C00E0
7807003C00E0
700E003C00E0
700E007C00E0
701E007C00E0
E01E00F800E0
E01C00F801C0
E03C01F801C0
E03C01F801C0
E03C03F80380
E03C07700780
E03C06700700
E03C0EF00E00
E03C1CF01E00
703E38F87C00
701FF0FFF000
701FE0FFE000
3807803F0000
3C0000000000
1E0000000000
1F0000000000
0F8000000000
07E000400000
03FC03E00000
00FFFFE00000
003FFFC00000
0007FC000000
ENDCHAR
STARTCHAR 0041
ENCODING 65
SWIDTH 702 0
DWIDTH 39 0
BBX 38 41 0 0
BITMAP
0000780000
0000780000
0000FC0000
0000FC0000
0000FE0000
0001FE0000
0001FE0000
0003FF0000
0003DF0000
0007DF8000
00078F8000
00078FC000
000F07C000
000F07C000
001F07E000
001E03E000
003E03F000
003C01F000
003C01F800
007800F800
007800F800
00F800FC00
00F0007C00
01F0007E00
01E0003E00
01FFFFFE00
03FFFFFF00
03FFFFFF00
07FFFFFF80
0780000F80
0F80000FC0
0F000007C0
0F000007C0
1E000003E0
1E000003E0
3E000003F0
3C000001F0
7C000001F8
78000000F8
78000000F8
F0000000FC
ENDCHAR
STARTCHAR 0042
ENCODING 66
SWIDTH 576 0
DWIDTH 32 0
BBX 25 41 5 0
BITMAP
FFFE0000
FFFFC000
FFFFF000
FFFFF800
F807FC00
F801FC00
F8007E00
F8007E00
F8003E00
F8003E00
F8003E00
F8003E00
F8003C00
F8007C00
F8007C00
F800F800
F803F000
F80FE000
FFFF8000
FFFE0000
FFFF0000
FFFFE000
F81FF000
F801FC00
F800FE00
F8003E00
F8001F00
F8001F00
F8000F80
F8000F80
F8000F80
F8000F80
F8000F80
F8001F80
F8001F00
F8007F00
F801FE00
FFFFFE00
FFFFFC00
FFFFF000
FFFF8000
ENDCHAR
STARTCHAR 0043
ENCODING 67
SWIDTH 702 0
DWIDTH 39 0
BBX 33 43 3 -1
BITMAP
0001FF8000
001FFFF800
007FFFFF00
00FFFFFF80
03FE00FF80
07F8000F80
0FE0000180
0FC0000000
1F80000000
1F00000000
3F00000000
3E00000000
7E00000000
7C00000000
7C00000000
7C00000000
F800000000
F800000000
F800000000
F800000000
F800000000
F800000000
F800000000
F800000000
F800000000
F800000000
F800000000
FC00000000
7C00000000
7C00000000
7E00000000
3E00000000
3F00000000
3F00000000
1F80000000
0FC0000080
0FE0000380
07F8000F80
03FF00FF80
01FFFFFF00
007FFFFC00
001FFFF000
0001FF8000
ENDCHAR
STARTCHAR 0044
ENCODING 68
SWIDTH 756 0
DWIDTH 42 0
BBX 34 41 5 0
BITMAP
FFFFF00000
FFFFFF0000
FFFFFFC000
FFFFFFE000
F8003FF000
F80007F800
F80001FC00
F80000FE00
F800007E00
F800003F00
F800001F00
F800001F80
F800000F80
F800000F80
F800000FC0
F8000007C0
F8000007C0
F8000007C0
F8000007C0
F8000007C0
F8000007C0
F8000007C0
F8000007C0
F8000007C0
F8000007C0
F800000F80
F800000F80
F800000F80
F800000F80
F800001F00
F800001F00
F800003E00
F800007E00
F80000FC00
F80001F800
F80007F800
F8003FE000
FFFFFFC000
FFFFFF8000
FFFFFC0000
FFFFE00000
ENDCHAR
STARTCHAR 0045
ENCODING 69
SWIDTH 540 0
DWIDTH 30 0
BBX 24 41 5 0
BITMAP
FFFFFE
FFFFFE
FFFFFE
FFFFFE
F80000
F80000
F80000
F80000
F80000
F80000
F80000
F80000
F80000
F80000
F80000
F80000
F80000
F80000
FFFFF0
FFFFF0
FFFFF0
FFFFF0
F80000
F80000
F80000
F80000
F80000
F80000
F80000
F80000
F80000
F80000
F80000
F80000
F80000
F80000
F80000
FFFFFF
FFFFFF
FFFFFF
FFFFFF
ENDCHAR
STARTCHAR 0046
ENCODING 70
SWIDTH 540 0
DWIDTH 30 0
BBX 23 41 5 0
BITMAP
FFFFFE
FFFFFE
FFFFFE
FFFFFE
F80000
F80000
F80000
F80000
F80000
F80000
F80000
F80000
F80000
F80000
F80000
F80000
F80000
F80000
FFFFF0
FFFFF0
FFFFF0
FFFFF0
F80000
F80000
F80000
F80000
F80000
F80000
F80000
F80000
F80000
F80000
F80000
F80000
F80000
F80000
F80000
F80000
F80000
F80000
F80000
ENDCHAR
STARTCHAR 0047
ENCODING 71
SWIDTH 720 0
DWIDTH 40 0
BBX 32 43 3 -1
BITMAP
0003FF00
001FFFF0
007FFFFE
01FFFFFF
03FE01FF
07F0001F
0FE00001
0FC00000
1F800000
3F000000
3E000000
3E000000
7C000000
7C000000
7C000000
FC000000
F8000000
F8000000
F8000000
F8000000
F8000000
F8000000
F8000000
F8000000
F800001F
F800001F
F800001F
FC00001F
7C00001F
7C00001F
7E00001F
3E00001F
3F00001F
3F00001F
1F80001F
1FC0001F
0FE0001F
07F8001F
03FF007F
01FFFFFF
007FFFFF
001FFFFC
0003FF80
ENDCHAR
STARTCHAR 0048
ENCODING 72
SWIDTH 738 0
DWIDTH 41 0
BBX 31 41 5 0
BITMAP
F800003E
F800003E
F800003E
F800003E
F800003E
F800003E
F800003E
F800003E
F800003E
F800003E
F800003E
F800003E
F800003E
F800003E
F800003E
F800003E
F800003E
FFFFFFFE
FFFFFFFE
FFFFFFFE
FFFFFFFE
F800003E
F800003E
F800003E
F800003E
F800003E
F800003E
F800003E
F800003E
F800003E
F800003E
F800003E
F800003E
F800003E
F800003E
F800003E
F800003E
F800003E
F800003E
F800003E
F800003E
ENDCHAR
STARTCHAR 0049
ENCODING 73
SWIDTH 288 0
DWIDTH 16 0
BBX 5 41 5 0
BITMAP
F8
F8
F8
F8
F8
F8
F8
F8
F8
F8
F8
F8
F8
F8
F8
F8
F8
F8
F8
F8
F8
F8
F8
F8
F8
F8
F8
F8
F8
F8
F8
F8
F8
F8
F8
F8
F8
F8
F8
F8
F8
ENDCHAR
STARTCHAR 004A
ENCODING 74
SWIDTH 306 0
DWIDTH 17 0
BBX 17 49 -5 -8
BITMAP
000F80
000F80
000F80
000F80
000F80
000F80
000F80
000F80
000F80
000F80
000F80
000F80
000F80
000F80
000F80
000F80
000F80
000F80
000F80
000F80
000F80
000F80
000F80
000F80
000F80
000F80
000F80
000F80
000F80
000F80
000F80
000F80
000F80
000F80
000F80
000F80
000F80
000F80
000F80
000F80
000F80
001F00
001F00
003E00
C07E00
FFFC00
FFF800
FFF000
3F8000
ENDCHAR
STARTCHAR 004B
ENCODING 75
SWIDTH 666 0
DWIDTH 37 0
BBX 31 41 5 0
BITMAP
F80001F0
F80003E0
F80007C0
F8000F80
F8001F00
F8003E00
F8007C00
F800F800
F800F800
F801F000
F803E000
F807C000
F80F8000
F81F0000
F83E0000
F87C0000
F8F80000
F9F00000
F9E00000
FBE00000
FFE00000
FBF00000
F9F80000
F8FC0000
F87E0000
F83F0000
F81F8000
F80FC000
F807E000
F803F000
F801F800
F800FC00
F8007E00
F8003F00
F8001F80
F8000FC0
F80007E0
F80007F0
F80003F8
F80001FC
F80000FE
ENDCHAR
STARTCHAR 004C
ENCODING 76
SWIDTH 540 0
DWIDTH 30 0
BBX 24 41 5 0
BITMAP
F80000
F80000
F80000
F80000
F80000
F80000
F80000
F80000
F80000
F80000
F80000
F80000
F80000
F80000
F80000
F80000
F80000
F80000
F80000
F80000
F80000
F80000
F80000
F80000
F80000
F80000
F80000
F80000
F80000
F80000
F80000
F80000
F80000
F80000
F80000
F80000
F80000
FFFFFF
FFFFFF
FFFFFF
FFFFFF
ENDCHAR
STARTCHAR 004D
ENCODING 77
SWIDTH 864 0
DWIDTH 48 0
BBX 38 41 5 0
BITMAP
FE000001FC
FE000001FC
FE000001FC
FF000003FC
FF000003FC
FF800007FC
FF800007FC
FF800007FC
FFC0000FFC
F7C0000F7C
F7E0000F7C
F3E0001F7C
F3F0001E7C
F1F0003E7C
F1F0003C7C
F1F8003C7C
F0F8007C7C
F0FC00787C
F07C00F87C
F07C00F07C
F07E00F07C
F03E01F07C
F03F01E07C
F01F01E07C
F01F83E07C
F00F83C07C
F00F87C07C
F00FC7807C
F007C7807C
F007EF807C
F003EF007C
F003FF007C
F003FE007C
F001FE007C
F001FE007C
F000FC007C
F000FC007C
F0007C007C
F00000007C
F00000007C
F00000007C
ENDCHAR
STARTCHAR 004E
ENCODING 78
SWIDTH 738 0
DWIDTH 41 0
BBX 31 41 5 0
BITMAP
F800001E
FC00001E
FC00001E
FE00001E
FF00001E
FF00001E
FF80001E
FFC0001E
F7C0001E
F7E0001E
F3F0001E
F1F0001E
F1F8001E
F0FC001E
F07C001E
F07E001E
F03F001E
F01F001E
F01F801E
F00FC01E
F007C01E
F007E01E
F003F01E
F001F01E
F001F81E
F000FC1E
F0007C1E
F0007E1E
F0003F1E
F0001F1E
F0001F9E
F0000FDE
F00007DE
F00007FE
F00003FE
F00001FE
F00001FE
F00000FE
F000007E
F000007E
F000003E
ENDCHAR
STARTCHAR 004F
ENCODING 79
SWIDTH 792 0
DWIDTH 44 0
BBX 38 43 3 -1
BITMAP
0003FF0000
001FFFE000
007FFFF800
00FFFFFC00
01FE01FE00
07F0007F00
07E0001F80
0FC0000FC0
1F800007E0
1F000003E0
3E000001F0
3E000001F0
7C000000F8
7C000000F8
7C000000F8
7C000000F8
F80000007C
F80000007C
F80000007C
F80000007C
F80000007C
F80000007C
F80000007C
F80000007C
F80000007C
F80000007C
F80000007C
7C000000F8
7C000000F8
7C000000F8
7C000001F8
3E000001F0
3E000001F0
1F000003E0
1F800007E0
0FC0000FC0
07E0001F80
07F0003F80
03FE01FF00
00FFFFFC00
007FFFF800
001FFFE000
0003FF0000
ENDCHAR
STARTCHAR 0050
ENCODING 80
SWIDTH 558 0
DWIDTH 31 0
BBX 25 41 5 0
BITMAP
FFFF8000
FFFFF000
FFFFFC00
FFFFFE00
F803FE00
F8007F00
F8003F00
F8001F80
F8000F80
F8000F80
F8000F80
F8000F80
F8000F80
F8000F80
F8000F80
F8001F00
F8001F00
F8003E00
F8007E00
F801FC00
F80FF800
FFFFF000
FFFFE000
FFFF8000
FFF80000
F8000000
F8000000
F8000000
F8000000
F8000000
F8000000
F8000000
F8000000
F8000000
F8000000
F8000000
F8000000
F8000000
F8000000
F8000000
F8000000
ENDCHAR
STARTCHAR 0051
ENCODING 81
SWIDTH 792 0
DWIDTH 44 0
BBX 42 50 3 -8
BITMAP
0003FF000000
001FFFE00000
007FFFF80000
00FFFFFC0000
01FE01FE0000
07F0003F0000
07E0001F8000
0FC0000FC000
1F800007E000
1F000003E000
3E000001F000
3E000001F000
7C000001F800
7C000000F800
7C000000F800
7C000000F800
F80000007C00
F80000007C00
F80000007C00
F80000007C00
F80000007C00
F80000007C00
F80000007C00
F80000007C00
F80000007C00
F80000007C00
F80000007C00
7C000000F800
7C000000F800
7C000000F800
7C000001F800
3E000001F000
3E000001F000
1F000003E000
1F800007E000
0FC0000FC000
07E0001F8000
03F0003F8000
01FE01FE0000
00FFFFFC0000
007FFFF80000
001FFFF00000
0003FFFE0000
000000FF8000
0000007FF000
0000001FFF00
00000007FFC0
00000000FF80
000000003F00
000000000600
ENDCHAR
STARTCHAR 0052
ENCODING 82
SWIDTH 630 0
DWIDTH 35 0
BBX 29 41 5 0
BITMAP
FFFF0000
FFFFE000
FFFFF800
FFFFFC00
F803FE00
F800FE00
F8003F00
F8003F00
F8001F00
F8001F00
F8001F00
F8001F00
F8001F00
F8003E00
F8003E00
F8007E00
F800FC00
F801F800
F80FF000
FFFFE000
FFFF8000
FFFF0000
FFFF0000
F80F8000
F80FC000
F807C000
F803E000
F803F000
F801F000
F800F800
F800FC00
F8007C00
F8003E00
F8003F00
F8001F80
F8000F80
F8000FC0
F80007E0
F80003E0
F80003F0
F80001F8
ENDCHAR
STARTCHAR 0053
ENCODING 83
SWIDTH 540 0
DWIDTH 30 0
BBX 24 43 3 -1
BITMAP
00FF00
03FFE0
0FFFF8
1FFFFC
3F81FC
7E003C
7C0004
FC0000
F80000
F80000
F80000
F80000
FC0000
FC0000
7E0000
7F8000
3FC000
1FF000
0FFC00
07FE00
03FF80
00FFC0
007FF0
001FF8
0007FC
0001FC
0000FE
00007E
00003F
00003F
00001F
00001F
00001F
00001F
00001F
00003E
80007E
F000FC
FE01F8
FFFFF8
7FFFE0
1FFFC0
01FE00
ENDCHAR
STARTCHAR 0054
ENCODING 84
SWIDTH 630 0
DWIDTH 35 0
BBX 33 41 1 0
BITMAP
FFFFFFFF80
FFFFFFFF80
FFFFFFFF80
FFFFFFFF80
0003E00000
0003E00000
0003E00000
0003E00000
0003E00000
0003E00000
0003E00000
0003E00000
0003E00000
0003E00000
0003E00000
0003E00000
0003E00000
0003E00000
0003E00000
0003E00000
0003E00000
0003E00000
0003E00000
0003E00000
0003E00000
0003E00000
0003E00000
0003E00000
0003E00000
0003E00000
0003E00000
0003E00000
0003E00000
0003E00000
0003E00000
0003E00000
0003E00000
0003E00000
0003E00000
0003E00000
0003E00000
ENDCHAR
STARTCHAR 0055
ENCODING 85
SWIDTH 702 0
DWIDTH 39 0
BBX 29 42 5 -1
BITMAP
F8000078
F8000078
F8000078
F8000078
F8000078
F8000078
F8000078
F8000078
F8000078
F8000078
F8000078
F8000078
F8000078
F8000078
F8000078
F8000078
F8000078
F8000078
F8000078
F8000078
F8000078
F8000078
F8000078
F8000078
F8000078
F8000078
F8000078
F8000078
F8000078
F8000078
F8000078
7C0000F8
7C0000F0
7C0000F0
7E0001F0
3F0001E0
3F8003E0
1FE01FC0
0FFFFF80
07FFFF00
01FFFE00
003FF000
ENDCHAR
STARTCHAR 0056
ENCODING 86
SWIDTH 666 0
DWIDTH 37 0
BBX 36 41 1 0
BITMAP
F8000001F0
7C000001E0
7C000001E0
7E000003E0
3E000003C0
3E000007C0
1F00000780
1F00000780
1F80000F80
0F80000F00
0F80000F00
07C0001F00
07C0001E00
07E0003E00
03E0003C00
03E0003C00
03F0007C00
01F0007800
01F800F800
00F800F000
00F800F000
00FC01F000
007C01E000
007C03E000
003E03C000
003E03C000
003F07C000
001F078000
001F0F8000
000F8F0000
000F8F0000
000FDF0000
0007DE0000
0007DE0000
0003FE0000
0003FC0000
0003FC0000
0001F80000
0001F80000
0001F80000
0000F00000
ENDCHAR
STARTCHAR 0057
ENCODING 87
SWIDTH 864 0
DWIDTH 48 0
BBX 48 41 0 0
BITMAP
F80007E0001F
FC0007E0001F
7C0007E0003E
7C0007E0003E
7C000FF0003E
7E000FF0007E
3E000FF0007C
3E000FF0007C
3E001FF8007C
3F001EF800FC
1F001EF800F8
1F001EF800F8
1F003EFC00F8
1F803C7C01F0
0F803C7C01F0
0F803C7C01F0
0F807C7E01F0
07C0783E03E0
07C0783E03E0
07C0783E03E0
07C0F83F03E0
03E0F01F07C0
03E0F01F07C0
03E0F01F07C0
03E1F01F8FC0
01F1E00F8F80
01F1E00F8F80
01F1E00F8F80
01F3E00FDF80
00FBC007DF00
00FBC007DF00
00FBC007DF00
00FFC007FE00
007F8003FE00
007F8003FE00
007F8003FE00
007F8003FC00
003F0001FC00
003F0001FC00
003F0001FC00
003F0001F800
ENDCHAR
STARTCHAR 0058
ENCODING 88
SWIDTH 630 0
DWIDTH 35 0
BBX 33 41 1 0
BITMAP
7E00001F80
3E00003F00
3F00003F00
1F80007E00
0F8000FC00
0FC000FC00
07E001F800
03E003F000
03F003F000
01F807E000
00F80FC000
00FC0FC000
007E1F8000
003E3F0000
003F3F0000
001FFE0000
000FFC0000
000FFC0000
0007F80000
0007F00000
0007F00000
0007F80000
000FF80000
001FFC0000
001FFC0000
003F7E0000
007E3F0000
007E1F0000
00FC1F8000
01F80FC000
01F807C000
03F007E000
07E003F000
07E001F000
0FC001F800
1F8000FC00
1F80007C00
3F00007E00
7E00003F00
7E00001F00
FC00001F80
ENDCHAR
STARTCHAR 0059
ENCODING 89
SWIDTH 630 0
DWIDTH 35 0
BBX 33 41 0 0
BITMAP
FC00000F80
7E00001F00
3E00001E00
3F00003E00
1F00003C00
1F80007C00
0FC000F800
07C000F000
07E001F000
03F003E000
01F003E000
01F807C000
00F8078000
00FC0F8000
007E1F0000
003E1E0000
003F3E0000
001FBC0000
000FFC0000
000FF80000
0007F00000
0007F00000
0003E00000
0003E00000
0003E00000
0003E00000
0003E00000
0003E00000
0003E00000
0003E00000
0003E00000
0003E00000
0003E00000
0003E00000
0003E00000
0003E00000
0003E00000
0003E00000
0003E00000
0003E00000
0003E00000
ENDCHAR
STARTCHAR 005A
ENCODING 90
SWIDTH 612 0
DWIDTH 34 0
BBX 28 41 3 0
BITMAP
7FFFFFF0
7FFFFFF0
7FFFFFF0
7FFFFFF0
000003F0
000007E0
000007C0
00000FC0
00001F80
00003F00
00003F00
00007E00
0000FC00
0000FC00
0001F800
0003F000
0003F000
0007E000
000FC000
000FC000
001F8000
003F0000
003F0000
007E0000
00FC0000
00FC0000
01F80000
03F00000
03F00000
07E00000
0FC00000
0F800000
1F800000
3F000000
3E000000
7E000000
FC000000
FFFFFFF0
FFFFFFF0
FFFFFFF0
FFFFFFF0
ENDCHAR
STARTCHAR 005B
ENCODING 91
SWIDTH 324 0
DWIDTH 18 0
BBX 11 52 5 -8
BITMAP
FFE0
FFE0
FFE0
FFE0
F800
F800
F800
F800
F800
F800
F800
F800
F800
F800
F800
F800
F800
F800
F800
F800
F800
F800
F800
F800
F800
F800
F800
F800
F800
F800
F800
F800
F800
F800
F800
F800
F800
F800
F800
F800
F800
F800
F800
F800
F800
F800
F800
F800
FFE0
FFE0
FFE0
FFE0
ENDCHAR
STARTCHAR 005C
ENCODING 92
SWIDTH 522 0
DWIDTH 29 0
BBX 19 49 5 -8
BITMAP
F00000
F00000
780000
780000
780000
7C0000
3C0000
3C0000
3E0000
1E0000
1E0000
1F0000
0F0000
0F0000
0F0000
078000
078000
078000
03C000
03C000
03C000
03E000
01E000
01E000
01F000
00F000
00F000
00F800
007800
007800
007800
003C00
003C00
003C00
001E00
001E00
001E00
001F00
000F00
000F00
000F80
000780
000780
0007C0
0003C0
0003C0
0003C0
0001E0
0001E0
ENDCHAR
STARTCHAR 005D
ENCODING 93
SWIDTH 324 0
DWIDTH 18 0
BBX 11 52 2 -8
BITMAP
FFE0
FFE0
FFE0
FFE0
03E0
03E0
03E0
03E0
03E0
03E0
03E0
03E0
03E0
03E0
03E0
03E0
03E0
03E0
03E0
03E0
03E0
03E0
03E0
03E0
03E0
03E0
03E0
03E0
03E0
03E0
03E0
03E0
03E0
03E0
03E0
03E0
03E0
03E0
03E0
03E0
03E0
03E0
03E0
03E0
03E0
03E0
03E0
03E0
FFE0
FFE0
FFE0
FFE0
ENDCHAR
STARTCHAR 005E
ENCODING 94
SWIDTH 630 0
DWIDTH 35 0
BBX 29 30 3 11
BITMAP
00020000
00020000
00070000
00070000
000F8000
000F8000
001FC000
001FC000
003FE000
003DE000
007DF000
0078F000
00F8F800
00F07800
01F07C00
01E03C00
03E03E00
03C01E00
07C01F00
07800F00
0F800F80
0F000780
1F0007C0
1E0003C0
3E0003E0
3C0001E0
7C0001F0
780000F0
F80000F8
F0000078
ENDCHAR
STARTCHAR 005F
ENCODING 95
SWIDTH 504 0
DWIDTH 28 0
BBX 24 4 2 -4
BITMAP
FFFFFF
FFFFFF
FFFFFF
FFFFFF
ENDCHAR
STARTCHAR 0060
ENCODING 96
SWIDTH 612 0
DWIDTH 34 0
BBX 13 9 11 35
BITMAP
FE00
7E00
3F00
1F80
0FC0
07C0
03E0
01F0
00F8
ENDCHAR
STARTCHAR 0061
ENCODING 97
SWIDTH 558 0
DWIDTH 31 0
BBX 27 30 3 0
BITMAP
007F8000
03FFF000
0FFFF800
1FFFFC00
1F81FC00
1C007E00
10003E00
00003E00
00003E00
00003E00
00003E00
00003E00
001FFE00
01FFFE00
0FFFFE00
1FE03E00
3F003E00
7E003E00
7C003E00
F8003E00
F8003E00
F8003E00
F8003E00
FC007E00
FC00FE00
7F07FF00
7FFFDFE0
3FFF1FE0
0FFE0FE0
03F007C0
ENDCHAR
STARTCHAR 0062
ENCODING 98
SWIDTH 630 0
DWIDTH 35 0
BBX 27 44 5 0
BITMAP
F8000000
F8000000
F8000000
F8000000
F8000000
F8000000
F8000000
F8000000
F8000000
F8000000
F8000000
F8000000
F8000000
F8000000
F80FE000
F87FF800
F8FFFE00
F9FFFF00
FBF07F00
FF801F80
FF000FC0
FC0007C0
F80007C0
F80007E0
F80003E0
F80003E0
F80003E0
F80003E0
F80003E0
F80003E0
F80003E0
F80003E0
F80003E0
F80007C0
F80007C0
F80007C0
F8000F80
FE000F80
FF001F00
FFC07F00
FFFFFE00
F9FFFC00
F8FFF000
F03FC000
ENDCHAR
STARTCHAR 0063
ENCODING 99
SWIDTH 522 0
DWIDTH 29 0
BBX 23 30 3 0
BITMAP
003FF0
01FFFE
03FFFE
0FFFFE
1FF00E
1FC000
3F0000
7E0000
7E0000
7C0000
FC0000
F80000
F80000
F80000
F80000
F80000
F80000
F80000
F80000
7C0000
7C0000
7E0000
3E0000
3F0000
1F8002
0FF01E
07FFFE
03FFFE
00FFFC
003FC0
ENDCHAR
STARTCHAR 0064
ENCODING 100
SWIDTH 630 0
DWIDTH 35 0
BBX 27 44 3 0
BITMAP
000003E0
000003E0
000003E0
000003E0
000003E0
000003E0
000003E0
000003E0
000003E0
000003E0
000003E0
000003E0
000003E0
000003E0
007F83E0
01FFE3E0
07FFF3E0
0FFFFFE0
1FC0FFE0
1F001FE0
3E000FE0
3E0003E0
7C0003E0
7C0003E0
7C0003E0
F80003E0
F80003E0
F80003E0
F80003E0
F80003E0
F80003E0
F80003E0
F80003E0
F80003E0
FC0003E0
7C0003E0
7C0007E0
7E001FE0
3F003FE0
1FC0FBE0
1FFFFBE0
0FFFE3E0
03FFC3E0
00FF03E0
ENDCHAR
STARTCHAR 0065
ENCODING 101
SWIDTH 558 0
DWIDTH 31 0
BBX 24 30 3 0
BITMAP
007F00
01FFE0
07FFF0
0FFFF8
1FC1FC
1F007C
3E003E
7C003E
7C001E
7C001F
F8001F
F8001F
FFFFFF
FFFFFF
FFFFFF
FFFFFF
F80000
F80000
F80000
7C0000
7C0000
7E0000
3E0000
3F0000
1FC001
0FF01F
07FFFF
03FFFF
00FFFE
001FE0
ENDCHAR
STARTCHAR 0066
ENCODING 102
SWIDTH 378 0
DWIDTH 21 0
BBX 19 44 2 0
BITMAP
003F80
00FFE0
03FFE0
03FFE0
07E060
07C000
0F8000
0F8000
0F8000
0F8000
0F8000
0F8000
0F8000
0F8000
FFFF00
FFFF00
FFFF00
FFFF00
0F8000
0F8000
0F8000
0F8000
0F8000
0F8000
0F8000
0F8000
0F8000
0F8000
0F8000
0F8000
0F8000
0F8000
0F8000
0F8000
0F8000
0F8000
0F8000
0F8000
0F8000
0F8000
0F8000
0F8000
0F8000
0F8000
ENDCHAR
STARTCHAR 0067
ENCODING 103
SWIDTH 630 0
DWIDTH 35 0
BBX 27 41 3 -11
BITMAP
003F83E0
01FFE3E0
07FFF3E0
0FFFFBE0
1FE07FE0
1F801FE0
3F0007E0
7E0003E0
7C0003E0
7C0003E0
FC0003E0
F80003E0
F80003E0
F80003E0
F80003E0
F80003E0
F80003E0
F80003E0
F80003E0
F80003E0
7C0003E0
7C0007E0
7E001FE0
3F003FE0
1FC0FBE0
1FFFFBE0
0FFFF3E0
03FFC3E0
00FF03E0
000003E0
000003C0
000007C0
000007C0
000007C0
00000F80
10001F80
3F00FF00
3FFFFE00
3FFFFC00
1FFFF000
01FF8000
ENDCHAR
STARTCHAR 0068
ENCODING 104
SWIDTH 630 0
DWIDTH 35 0
BBX 25 44 5 0
BITMAP
F8000000
F8000000
F8000000
F8000000
F8000000
F8000000
F8000000
F8000000
F8000000
F8000000
F8000000
F8000000
F8000000
F8000000
F80FE000
F83FF800
F8FFFE00
F9FFFE00
FBF03F00
FFC01F00
FF801F80
FF000F80
FE000F80
FC000F80
F8000F80
F8000F80
F8000F80
F8000F80
F8000F80
F8000F80
F8000F80
F8000F80
F8000F80
F8000F80
F8000F80
F8000F80
F8000F80
F8000F80
F8000F80
F8000F80
F8000F80
F8000F80
F8000F80
F8000F80
ENDCHAR
STARTCHAR 0069
ENCODING 105
SWIDTH 288 0
DWIDTH 16 0
BBX 5 41 5 0
BITMAP
F8
F8
F8
F8
F8
00
00
00
00
00
00
F8
F8
F8
F8
F8
F8
F8
F8
F8
F8
F8
F8
F8
F8
F8
F8
F8
F8
F8
F8
F8
F8
F8
F8
F8
F8
F8
F8
F8
F8
ENDCHAR
STARTCHAR 006A
ENCODING 106
SWIDTH 306 0
DWIDTH 17 0
BBX 15 52 -3 -11
BITMAP
003E
003E
003E
003E
003E
0000
0000
0000
0000
0000
0000
003E
003E
003E
003E
003E
003E
003E
003E
003E
003E
003E
003E
003E
003E
003E
003E
003E
003E
003E
003E
003E
003E
003E
003E
003E
003E
003E
003E
003E
003E
003E
003E
003E
003E
007C
807C
E0FC
FFF8
FFF0
7FE0
1F80
ENDCHAR
STARTCHAR 006B
ENCODING 107
SWIDTH 594 0
DWIDTH 33 0
BBX 27 44 5 0
BITMAP
F8000000
F8000000
F8000000
F8000000
F8000000
F8000000
F8000000
F8000000
F8000000
F8000000
F8000000
F8000000
F8000000
F8000000
F8003F80
F8007F00
F800FE00
F801FC00
F803F800
F803F000
F807E000
F80FC000
F81F8000
F83F0000
F87E0000
F8FC0000
F9FC0000
FBF80000
FFF00000
FBF00000
F9F80000
F8FC0000
F87F0000
F83F8000
F81FC000
F80FE000
F807F000
F803F800
F801FC00
F800FE00
F8007F00
F8003F80
F8001FC0
F8000FE0
ENDCHAR
STARTCHAR 006C
ENCODING 108
SWIDTH 288 0
DWIDTH 16 0
BBX 5 44 5 0
BITMAP
F8
F8
F8
F8
F8
F8
F8
F8
F8
F8
F8
F8
F8
F8
F8
F8
F8
F8
F8
F8
F8
F8
F8
F8
F8
F8
F8
F8
F8
F8
F8
F8
F8
F8
F8
F8
F8
F8
F8
F8
F8
F8
F8
F8
ENDCHAR
STARTCHAR 006D
ENCODING 109
SWIDTH 936 0
DWIDTH 52 0
BBX 41 30 5 0
BITMAP
F80FC003F000
F87FF01FFC00
F8FFF83FFE00
F9FFFC7FFF00
FBE0FCFC3F00
FFC07FF01F80
FF003FC00F80
FE003F800F80
FC003F000F80
F8003E000F80
F8003E000F80
F8003E000F80
F8003E000F80
F8003E000F80
F8003E000F80
F8003E000F80
F8003E000F80
F8003E000F80
F8003E000F80
F8003E000F80
F8003E000F80
F8003E000F80
F8003E000F80
F8003E000F80
F8003E000F80
F8003E000F80
F8003E000F80
F8003E000F80
F8003E000F80
F8003E000F80
ENDCHAR
STARTCHAR 006E
ENCODING 110
SWIDTH 630 0
DWIDTH 35 0
BBX 25 30 5 0
BITMAP
F80FE000
F83FF800
F8FFFE00
F9FFFE00
FBF03F00
FFC01F00
FF801F80
FF000F80
FE000F80
FC000F80
F8000F80
F8000F80
F8000F80
F8000F80
F8000F80
F8000F80
F8000F80
F8000F80
F8000F80
F8000F80
F8000F80
F8000F80
F8000F80
F8000F80
F8000F80
F8000F80
F8000F80
F8000F80
F8000F80
F8000F80
ENDCHAR
STARTCHAR 006F
ENCODING 111
SWIDTH 612 0
DWIDTH 34 0
BBX 28 30 3 0
BITMAP
003FC000
01FFF800
07FFFC00
0FFFFF00
1FE07F80
1F801F80
3E0007C0
7E0007E0
7C0003E0
7C0003E0
F80003F0
F80001F0
F80001F0
F80001F0
F80001F0
F80001F0
F80001F0
F80001F0
F80001F0
F80003F0
7C0003E0
7C0003E0
7E0007E0
3E000FC0
1F801F80
1FC07F80
0FFFFF00
07FFFE00
01FFF800
003FC000
ENDCHAR
STARTCHAR 0070
ENCODING 112
SWIDTH 630 0
DWIDTH 35 0
BBX 27 41 5 -11
BITMAP
F80FE000
F87FF800
F8FFFE00
F9FFFF00
FBF07F00
FF801F80
FF000FC0
FC0007C0
F80007C0
F80007E0
F80003E0
F80003E0
F80003E0
F80003E0
F80003E0
F80003E0
F80003E0
F80003E0
F80003E0
F80007C0
F80007C0
F80007C0
F8000F80
FE000F80
FF001F00
FFC07F00
FFFFFE00
F9FFFC00
F8FFF000
F83FC000
F8000000
F8000000
F8000000
F8000000
F8000000
F8000000
F8000000
F8000000
F8000000
F8000000
F8000000
ENDCHAR
STARTCHAR 0071
ENCODING 113
SWIDTH 630 0
DWIDTH 35 0
BBX 27 41 3 -11
BITMAP
007F83E0
01FFE3E0
07FFF3E0
0FFFFFE0
1FC0FFE0
1F001FE0
3E000FE0
3E0003E0
7C0003E0
7C0003E0
7C0003E0
F80003E0
F80003E0
F80003E0
F80003E0
F80003E0
F80003E0
F80003E0
F80003E0
F80003E0
FC0003E0
7C0003E0
7C0007E0
7E001FE0
3F003FE0
1FC0FBE0
1FFFFBE0
0FFFE3E0
03FFC3E0
00FF03E0
000003E0
000003E0
000003E0
000003E0
000003E0
000003E0
000003E0
000003E0
000003E0
000003E0
000003E0
ENDCHAR
STARTCHAR 0072
ENCODING 114
SWIDTH 414 0
DWIDTH 23 0
BBX 17 30 5 0
BITMAP
F80F80
F87F80
F8FF80
F9FF80
FBE000
FF8000
FF0000
FE0000
FC0000
F80000
F80000
F80000
F80000
F80000
F80000
F80000
F80000
F80000
F80000
F80000
F80000
F80000
F80000
F80000
F80000
F80000
F80000
F80000
F80000
F80000
ENDCHAR
STARTCHAR 0073
ENCODING 115
SWIDTH 522 0
DWIDTH 29 0
BBX 21 30 4 0
BITMAP
01FF00
0FFFE0
1FFFE0
3FFFE0
7E00E0
FC0000
F80000
F80000
F80000
FC0000
FE0000
7F8000
3FF000
1FFC00
0FFF00
03FFC0
007FE0
001FF0
0003F0
0001F8
0000F8
0000F8
0000F8
8000F8
E001F0
FC07F0
FFFFE0
7FFFC0
1FFF00
03FC00
ENDCHAR
STARTCHAR 0074
ENCODING 116
SWIDTH 378 0
DWIDTH 21 0
BBX 18 36 1 0
BITMAP
0F8000
0F8000
0F8000
0F8000
0F8000
0F8000
FFFFC0
FFFFC0
FFFFC0
FFFFC0
0F8000
0F8000
0F8000
0F8000
0F8000
0F8000
0F8000
0F8000
0F8000
0F8000
0F8000
0F8000
0F8000
0F8000
0F8000
0F8000
0F8000
0F8000
0F8000
0FC000
0FC000
07F000
07FFC0
03FFC0
00FFC0
003FC0
ENDCHAR
STARTCHAR 0075
ENCODING 117
SWIDTH 630 0
DWIDTH 35 0
BBX 25 30 5 0
BITMAP
F8000F80
F8000F80
F8000F80
F8000F80
F8000F80
F8000F80
F8000F80
F8000F80
F8000F80
F8000F80
F8000F80
F8000F80
F8000F80
F8000F80
F8000F80
F8000F80
F8000F80
F8000F80
F8000F80
F8000F80
F8001F80
F8003F80
F8007F80
F800FF80
7C01FF80
7E07EF80
7FFFCF80
3FFF8F80
1FFE0F80
03F80F80
ENDCHAR
STARTCHAR 0076
ENCODING 118
SWIDTH 522 0
DWIDTH 29 0
BBX 29 30 1 0
BITMAP
F80000F8
7C0001F0
7C0001F0
7E0003F0
3E0003E0
3E0003E0
1F0007C0
1F0007C0
1F800FC0
0F800F80
0F800F80
07C01F00
07C01F00
07E03F00
03E03E00
03E03E00
03F07E00
01F07C00
01F8FC00
00F8F800
00F8F800
00FDF800
007DF000
007FF000
003FE000
003FE000
003FE000
001FC000
001FC000
000F8000
ENDCHAR
STARTCHAR 0077
ENCODING 119
SWIDTH 774 0
DWIDTH 43 0
BBX 43 31 0 -1
BITMAP
F8003F8003E0
FC003F8007E0
7C003FC007C0
7C007FC007C0
7C007FC007C0
7E007FC00F80
3E007FC00F80
3E00FBE00F80
3E00FBE01F00
3F00FBE01F00
1F01F3E01F00
1F01F1F03F00
1F01F1F03E00
0F81F1F03E00
0F83E1F07E00
0F83E0F07C00
0F83E0F87C00
07C7C0F87C00
07C7C0F8F800
07C7C0F8F800
07E7C07CF800
03EF807DF000
03EF807DF000
03EF807DF000
03FF003FF000
01FF003FE000
01FF003FE000
01FF003FE000
01FE003FC000
00FE001FC000
00FE001FC000
ENDCHAR
STARTCHAR 0078
ENCODING 120
SWIDTH 612 0
DWIDTH 34 0
BBX 28 30 3 0
BITMAP
FC0007E0
7E000FC0
3F000FC0
3F001F80
1F801F00
0FC03F00
07E07E00
07E07E00
03F0FC00
01F9F800
00FDF800
00FFF000
007FE000
003FE000
003FC000
003FC000
007FC000
00FFE000
00FFF000
01FBF000
03F1F800
03E0FC00
07E07E00
0FC07E00
1F803F00
1F801F80
3F000FC0
7E000FC0
7E0007E0
FC0003F0
ENDCHAR
STARTCHAR 0079
ENCODING 121
SWIDTH 522 0
DWIDTH 29 0
BBX 29 41 0 -11
BITMAP
F80000F8
FC0001F8
7C0001F0
7C0003F0
3E0003E0
3E0003E0
3F0007E0
1F0007C0
1F000FC0
0F800F80
0F800F80
0FC01F80
07C01F00
07C03F00
03E03E00
03E07E00
03E07E00
01F07C00
01F0FC00
01F8F800
00F9F800
00F9F000
007DF000
007FF000
007FE000
003FE000
003FC000
001FC000
001FC000
001F8000
001F8000
001F0000
003F0000
003F0000
003E0000
007E0000
007C0000
00FC0000
00FC0000
01F80000
01F80000
ENDCHAR
STARTCHAR 007A
ENCODING 122
SWIDTH 576 0
DWIDTH 32 0
BBX 26 30 3 0
BITMAP
7FFFFFC0
7FFFFFC0
7FFFFFC0
7FFFFFC0
00001FC0
00003F80
00007F00
00007E00
0000FC00
0001F800
0003F000
0007E000
000FC000
001FC000
003F8000
007F0000
00FE0000
00FC0000
01F80000
03F00000
07E00000
0FC00000
1F800000
3F800000
7F000000
FE000000
FFFFFFC0
FFFFFFC0
FFFFFFC0
FFFFFFC0
ENDCHAR
STARTCHAR 007B
ENCODING 123
SWIDTH 324 0
DWIDTH 18 0
BBX 14 52 1 -8
BITMAP
001C
00FC
01FC
03FC
07E0
07C0
0F80
0F80
0F80
0F80
0F80
0FC0
0FC0
0FC0
07C0
07C0
07C0
07C0
07C0
07C0
07C0
0780
0F80
1F00
FE00
FC00
FC00
FE00
1F00
0F80
0780
07C0
07C0
07C0
07C0
07C0
07C0
07C0
0FC0
0FC0
0FC0
0F80
0F80
0F80
0F80
0F80
07C0
07E0
03FC
01FC
00FC
001C
ENDCHAR
STARTCHAR 007C
ENCODING 124
SWIDTH 378 0
DWIDTH 21 0
BBX 4 52 8 -8
BITMAP
F0
F0
F0
F0
F0
F0
F0
F0
F0
F0
F0
F0
F0
F0
F0
F0
F0
F0
F0
F0
F0
F0
F0
F0
F0
F0
F0
F0
F0
F0
F0
F0
F0
F0
F0
F0
F0
F0
F0
F0
F0
F0
F0
F0
F0
F0
F0
F0
F0
F0
F0
F0
ENDCHAR
STARTCHAR 007D
ENCODING 125
SWIDTH 324 0
DWIDTH 18 0
BBX 14 52 3 -8
BITMAP
E000
FC00
FE00
FF00
1F80
0F80
07C0
07C0
07C0
07C0
07C0
0FC0
0FC0
0FC0
0F80
0F80
0F80
0F80
0F80
0F80
0F80
0780
07C0
03E0
01FC
01FC
00FC
01FC
03E0
07C0
0780
0F80
0F80
0F80
0F80
0F80
0F80
0F80
0FC0
0FC0
0FC0
07C0
07C0
07C0
07C0
07C0
0F80
1F80
FF00
FE00
FC00
E000
ENDCHAR
STARTCHAR 007E
ENCODING 126
SWIDTH 630 0
DWIDTH 35 0
BBX 29 10 3 11
BITMAP
07C00000
1FF00078
3FFC0078
7FFF0078
7C7FC0F0
F81FF1F0
F007FFF0
F001FFE0
F0007FC0
00001F80
ENDCHAR
STARTCHAR 00A0
ENCODING 160
SWIDTH 306 0
DWIDTH 17 0
BBX 1 1 0 0
BITMAP
00
ENDCHAR
STARTCHAR 00A1
ENCODING 161
SWIDTH 324 0
DWIDTH 18 0
BBX 5 41 6 -11
BITMAP
F8
F8
F8
F8
F8
00
00
00
00
00
70
70
70
70
F0
F8
F8
F8
F8
F8
F8
F8
F8
F8
F8
F8
F8
F8
F8
F8
F8
F8
F8
F8
F8
F8
F8
F8
F8
F8
F8
ENDCHAR
STARTCHAR 00A2
ENCODING 162
SWIDTH 630 0
DWIDTH 35 0
BBX 22 41 6 0
BITMAP
000E00
000E00
000E00
000E00
000E00
000E00
003FC0
01FFF8
07FFFC
0FFFFC
1FEE7C
1F0E04
3E0E00
7E0E00
7C0E00
7C0E00
F80E00
F80E00
F80E00
F80E00
F80E00
F80E00
F80E00
F80E00
F80E00
7C0E00
7C0E00
7C0E00
3E0E00
3F0E00
1F8E04
1FEE3C
0FFFFC
03FFFC
01FFF8
007FC0
000E00
000E00
000E00
000E00
000E00
ENDCHAR
STARTCHAR 00A3
ENCODING 163
SWIDTH 630 0
DWIDTH 35 0
BBX 22 42 7 0
BITMAP
000FF0
003FFC
00FFFC
01FFFC
01F80C
03E000
03E000
07C000
07C000
07C000
07C000
07C000
07C000
07C000
07C000
07C000
07C000
07C000
7FFF00
7FFF00
7FFF00
7FFF00
07C000
07C000
07C000
07C000
07C000
07C000
07C000
07C000
07C000
078000
0F8000
0F8000
1F0000
3F0000
7E0000
FFFFFC
FFFFFC
FFFFFC
FFFFFC
FFFFFC
ENDCHAR
STARTCHAR 00A4
ENCODING 164
SWIDTH 630 0
DWIDTH 35 0
BBX 30 30 2 5
BITMAP
20000010
70000038
F800007C
7C0FC0F8
3E7FF9F0
1FFFFFE0
0FFFFFC0
07F03F80
07C00F80
0F8007C0
0F0003C0
1F0003C0
1E0001E0
1E0001E0
1E0001E0
1E0001E0
1E0001E0
1E0001E0
1F0003E0
0F0003C0
0F8007C0
07C00F80
07F03F80
0FFFFFC0
1FFFFFE0
3E7FF9F0
7C0FC0F8
F800007C
70000038
20000010
ENDCHAR
STARTCHAR 00A5
ENCODING 165
SWIDTH 630 0
DWIDTH 35 0
BBX 32 41 2 0
BITMAP
FC00001F
7E00003E
3E00003C
3F00007C
1F8000F8
0F8001F0
0FC001E0
07E003E0
03E007C0
03F00780
01F80F80
01F81F00
00FC1E00
007E3E00
007E7C00
003FF800
001FF000
001FF000
000FE000
0007C000
07FFFFC0
07FFFFC0
07FFFFC0
0007C000
0007C000
0007C000
0007C000
0007C000
07FFFFC0
07FFFFC0
07FFFFC0
0007C000
0007C000
0007C000
0007C000
0007C000
0007C000
0007C000
0007C000
0007C000
0007C000
ENDCHAR
STARTCHAR 00A6
ENCODING 166
SWIDTH 378 0
DWIDTH 21 0
BBX 4 52 8 -8
BITMAP
F0
F0
F0
F0
F0
F0
F0
F0
F0
F0
F0
F0
F0
F0
F0
F0
F0
F0
F0
F0
00
00
00
00
00
00
00
00
00
00
00
00
F0
F0
F0
F0
F0
F0
F0
F0
F0
F0
F0
F0
F0
F0
F0
F0
F0
F0
F0
F0
ENDCHAR
STARTCHAR 00A7
ENCODING 167
SWIDTH 630 0
DWIDTH 35 0
BBX 23 51 6 -9
BITMAP
00FFE0
07FFFC
0FFFFC
1FFFFC
3F801C
7E0000
7C0000
F80000
F80000
F80000
F80000
FC0000
FE0000
7F8000
3FE000
3FF800
0FFE00
1FFF80
3EFFE0
7C3FF0
7C0FF8
7803FC
F800FC
F8007E
F8007E
F8003E
FC003E
FE003E
7F003E
7F803C
3FE03C
1FF878
0FFE70
03FFF0
00FFE0
003FF0
000FF8
0003FC
0000FC
00007E
00003E
00003E
00003E
00003E
00007E
C000FC
FC03FC
FFFFF8
FFFFE0
3FFFC0
03FE00
ENDCHAR
STARTCHAR 00A8
ENCODING 168
SWIDTH 612 0
DWIDTH 34 0
BBX 16 5 9 35
BITMAP
F81F
F81F
F81F
F81F
F81F
ENDCHAR
STARTCHAR 00A9
ENCODING 169
SWIDTH 864 0
DWIDTH 48 0
BBX 43 43 2 -1
BITMAP
00007FC00000
0007FFFC0000
001FFFFF0000
003F803F8000
00FC0007E000
01F00001F000
03E00000F800
078000003C00
0F0000001E00
0E003FE00E00
1E00FFF80F00
3C03FFF80780
3807E0180380
780F800003C0
700F000001C0
701F000001C0
701E000001C0
E03E000000E0
E03C000000E0
E03C000000E0
E03C000000E0
E03C000000E0
E03C000000E0
E03C000000E0
E03C000000E0
E03E000000E0
701E000001C0
701F000001C0
700F000001C0
780F800003C0
3807F0180380
3C03FFF80780
1E00FFF80F00
0E003FE00E00
0F0000001E00
078000003C00
03E00000F800
01F00001F000
00FC0007E000
003F803F8000
001FFFFF0000
0007FFFC0000
00007FC00000
ENDCHAR
STARTCHAR 00AA
ENCODING 170
SWIDTH 468 0
DWIDTH 26 0
BBX 18 20 5 23
BITMAP
1FE000
7FF800
7FFC00
607E00
003E00
003E00
003E00
003E00
07FE00
1FFE00
7FFE00
7E3E00
F83E00
F83E00
F83E00
F83E00
FC7F00
7FFFC0
7F9FC0
1E0FC0
ENDCHAR
STARTCHAR 00AB
ENCODING 171
SWIDTH 522 0
DWIDTH 29 0
BBX 24 25 3 2
BITMAP
002004
00700E
00F81F
00F01E
01E03C
03C078
07C0F8
0F81F0
1F03E0
1E03C0
3E07C0
7C0F80
F81F00
7C0F80
3E07C0
1E03C0
1F03E0
0F81F0
07C0F8
03C078
01E03C
00F01E
00F81F
00700E
002004
ENDCHAR
STARTCHAR 00AC
ENCODING 172
SWIDTH 810 0
DWIDTH 45 0
BBX 33 16 6 8
BITMAP
FFFFFFFF80
FFFFFFFF80
FFFFFFFF80
FFFFFFFF80
0000000780
0000000780
0000000780
0000000780
0000000780
0000000780
0000000780
0000000780
0000000780
0000000780
0000000780
0000000780
ENDCHAR
STARTCHAR 00AD
ENCODING 173
SWIDTH 576 0
DWIDTH 32 0
BBX 24 4 4 14
BITMAP
FFFFFF
FFFFFF
FFFFFF
FFFFFF
ENDCHAR
STARTCHAR 00AE
ENCODING 174
SWIDTH 630 0
DWIDTH 35 0
BBX 24 24 5 17
BITMAP
00FF00
03FFC0
07FFE0
0F81F0
1E0078
3DFE3C
79FF1E
71C78E
F1C38E
E1C387
E1C707
E1FF07
E1FC07
E1CE07
E1CE07
F1CF0F
71C70E
79C79E
3DC3BC
1E0078
0F81F0
07FFE0
03FFC0
00FE00
ENDCHAR
STARTCHAR 00AF
ENCODING 175
SWIDTH 504 0
DWIDTH 28 0
BBX 23 4 2 40
BITMAP
FFFFFE
FFFFFE
FFFFFE
FFFFFE
ENDCHAR
STARTCHAR 00B0
ENCODING 176
SWIDTH 432 0
DWIDTH 24 0
BBX 16 16 4 28
BITMAP
07E0
1FF8
3FFC
7C3E
700E
F00F
E007
E007
E007
E007
F00F
700E
7C3E
3FFC
1FF8
07E0
ENDCHAR
STARTCHAR 00B1
ENCODING 177
SWIDTH 810 0
DWIDTH 45 0
BBX 32 32 6 0
BITMAP
0003C000
0003C000
0003C000
0003C000
0003C000
0003C000
0003C000
0003C000
0003C000
0003C000
FFFFFFFF
FFFFFFFF
FFFFFFFF
FFFFFFFF
0003C000
0003C000
0003C000
0003C000
0003C000
0003C000
0003C000
0003C000
0003C000
0003C000
00000000
00000000
00000000
00000000
FFFFFFFF
FFFFFFFF
FFFFFFFF
FFFFFFFF
ENDCHAR
STARTCHAR 00B2
ENCODING 178
SWIDTH 432 0
DWIDTH 24 0
BBX 16 25 4 16
BITMAP
1FE0
7FF8
7FFC
603E
001F
000F
000F
000F
001F
001E
003E
007C
00FC
01F8
03F0
07E0
0FC0
1F80
3F00
3E00
7C00
F800
FFFF
FFFF
FFFF
ENDCHAR
STARTCHAR 00B3
ENCODING 179
SWIDTH 432 0
DWIDTH 24 0
BBX 16 27 4 15
BITMAP
3FE0
FFF8
FFFC
C07E
003E
001E
001E
001E
003C
003C
00F8
3FE0
3FC0
3FF8
00FC
003E
001E
000F
000F
000F
000F
001F
001E
C07E
FFFC
FFF8
3FC0
ENDCHAR
STARTCHAR 00B4
ENCODING 180
SWIDTH 612 0
DWIDTH 34 0
BBX 13 9 11 35
BITMAP
03F8
03F0
07E0
0FC0
1F80
1F00
3E00
7C00
F800
ENDCHAR
STARTCHAR 00B5
ENCODING 181
SWIDTH 630 0
DWIDTH 35 0
BBX 25 41 5 -11
BITMAP
F8000F80
F8000F80
F8000F80
F8000F80
F8000F80
F8000F80
F8000F80
F8000F80
F8000F80
F8000F80
F8000F80
F8000F80
F8000F80
F8000F80
F8000F80
F8000F80
F8000F80
F8000F80
F8000F80
F8000F80
F8001F80
F8003F80
FC007F80
FC00FF80
FE01EF80
FF07EF80
FFFFCF80
FFFF8F80
FFFE0F80
F9F80F80
F8000000
F8000000
F8000000
F8000000
F8000000
F8000000
F8000000
F8000000
F8000000
F8000000
F8000000
ENDCHAR
STARTCHAR 00B6
ENCODING 182
SWIDTH 630 0
DWIDTH 35 0
BBX 21 49 6 -8
BITMAP
03FFF8
1FFFF8
3FFFF8
7FFC38
7FFC38
FFFC38
FFFC38
FFFC38
FFFC38
FFFC38
FFFC38
FFFC38
FFFC38
7FFC38
7FFC38
3FFC38
1FFC38
0FFC38
07FC38
00FC38
001C38
001C38
001C38
001C38
001C38
001C38
001C38
001C38
001C38
001C38
001C38
001C38
001C38
001C38
001C38
001C38
001C38
001C38
001C38
001C38
001C38
001C38
001C38
001C38
001C38
001C38
001C38
001C38
001C38
ENDCHAR
STARTCHAR 00B7
ENCODING 183
SWIDTH 324 0
DWIDTH 18 0
BBX 7 7 5 13
BITMAP
FE
FE
FE
FE
FE
FE
FE
ENDCHAR
STARTCHAR 00B8
ENCODING 184
SWIDTH 612 0
DWIDTH 34 0
BBX 10 12 14 -12
BITMAP
1C00
1800
3800
3E00
7F80
0F80
03C0
03C0
03C0
8780
FF80
7E00
ENDCHAR
STARTCHAR 00B9
ENCODING 185
SWIDTH 432 0
DWIDTH 24 0
BBX 14 25 6 16
BITMAP
0180
3F80
FF80
FF80
C780
0780
0780
0780
0780
0780
0780
0780
0780
0780
0780
0780
0780
0780
0780
0780
0780
0780
FFFC
FFFC
FFFC
ENDCHAR
STARTCHAR 00BA
ENCODING 186
SWIDTH 468 0
DWIDTH 26 0
BBX 20 20 3 23
BITMAP
03FC00
0FFF00
1FFF80
3F0FC0
7C03E0
7C03E0
F801F0
F801F0
F801F0
F801F0
F801F0
F801F0
F801F0
F801F0
7C03E0
7C07E0
3F0FC0
1FFF80
0FFF00
03F800
ENDCHAR
STARTCHAR 00BB
ENCODING 187
SWIDTH 522 0
DWIDTH 29 0
BBX 24 25 2 2
BITMAP
200400
700E00
F81F00
780F00
3C0780
1E03C0
1F03E0
0F81F0
07C0F8
03C078
03E07C
01F03E
00F81F
01F03E
03E07C
03C078
07C0F8
0F81F0
1F03E0
1E03C0
3C0780
780F00
F81F00
700E00
200400
ENDCHAR
STARTCHAR 00BC
ENCODING 188
SWIDTH 810 0
DWIDTH 45 0
BBX 40 43 2 -1
BITMAP
01800001E0
3F800001C0
FF800003C0
FF80000780
C780000700
0780000E00
0780001E00
0780003C00
0780003800
0780007800
078000F000
078000E000
078001E000
078003C000
0780038000
0780070000
07800F0000
07800E0078
07801C00F8
07803C01F8
07807803F8
07807003F8
0780F00778
0781E00E78
0781C01E78
0783801C78
0007803878
0007007078
000E007078
001E00E078
003C01C078
003803C078
007803FFFF
00F003FFFF
00E003FFFF
01C0000078
03C0000078
0380000078
0700000078
0F00000078
1E00000078
1C00000078
3C00000000
ENDCHAR
STARTCHAR 00BD
ENCODING 189
SWIDTH 810 0
DWIDTH 45 0
BBX 40 43 2 -1
BITMAP
01800003C0
3F80000380
FF80000780
FF80000F00
C780000E00
0780001C00
0780003C00
0780007800
0780007000
078000F000
078001E000
078001C000
078003C000
0780078000
0780070000
07800E0000
07801E0FF0
07801C3FF8
0780383FFC
078078303E
0780F0001F
0780E0000F
0781E0000F
0783C0000F
078380000F
078700001F
000F00001E
000E00003E
001C00007C
003C0000F8
00780001F8
00700003F0
00F00003E0
01E00007C0
01C0000F80
0380001F00
0780003E00
0700003E00
0E00007C00
1E00007FFF
3C00007FFF
3800007FFF
7800000000
ENDCHAR
STARTCHAR 00BE
ENCODING 190
SWIDTH 810 0
DWIDTH 45 0
BBX 39 43 3 -1
BITMAP
3FC0000078
FFF0000070
FFF80000F0
C0FC0001E0
007C0001C0
003C000380
003C000780
003C000F00
0038000E00
0078001E00
01F0003C00
3FC0003800
3FC0007800
3FF000F000
01F800E000
007C01C000
003E03C000
001E0380F0
001E0701F0
001E0F03F0
001E1E07F0
003E1C07F0
003C3C0EF0
C0FC781CF0
FFF8703CF0
FFF0E038F0
3FC1E070F0
0001C0E0F0
000380E0F0
000781C0F0
000F0380F0
000E0780F0
001E07FFFE
003C07FFFE
003807FFFE
00780000F0
00F00000F0
00E00000F0
01C00000F0
03C00000F0
07800000F0
07000000F0
0F00000000
ENDCHAR
STARTCHAR 00BF
ENCODING 191
SWIDTH 432 0
DWIDTH 24 0
BBX 22 41 1 -11
BITMAP
001F00
001F00
001F00
001F00
001F00
000000
000000
000000
000000
000000
001F00
001F00
001F00
001F00
001F00
001E00
001E00
003C00
007C00
007800
00F000
01F000
03E000
0FC000
1F8000
3F0000
3E0000
7C0000
7C0000
F80000
F80000
F80000
F80000
F80000
FC0000
7E0004
7F807C
3FFFFC
1FFFFC
07FFF8
00FF80
ENDCHAR
STARTCHAR 00C0
ENCODING 192
SWIDTH 702 0
DWIDTH 39 0
BBX 38 53 0 0
BITMAP
003F800000
001F800000
000FC00000
0007E00000
0003F00000
0001F00000
0000F80000
00007C0000
00003E0000
0000000000
0000000000
0000000000
0000780000
0000780000
0000FC0000
0000FC0000
0000FE0000
0001FE0000
0001FE0000
0003FF0000
0003DF0000
0007DF8000
00078F8000
00078FC000
000F07C000
000F07C000
001F07E000
001E03E000
003E03F000
003C01F000
003C01F800
007800F800
007800F800
00F800FC00
00F0007C00
01F0007E00
01E0003E00
01FFFFFE00
03FFFFFF00
03FFFFFF00
07FFFFFF80
0780000F80
0F80000FC0
0F000007C0
0F000007C0
1E000003E0
1E000003E0
3E000003F0
3C000001F0
7C000001F8
78000000F8
78000000F8
F0000000FC
ENDCHAR
STARTCHAR 00C1
ENCODING 193
SWIDTH 702 0
DWIDTH 39 0
BBX 38 53 0 0
BITMAP
000007F000
000007E000
00000FC000
00001F8000
00003F0000
00003E0000
00007C0000
0000F80000
0001F00000
0000000000
0000000000
0000000000
0000780000
0000780000
0000FC0000
0000FC0000
0000FE0000
0001FE0000
0001FE0000
0003FF0000
0003DF0000
0007DF8000
00078F8000
00078FC000
000F07C000
000F07C000
001F07E000
001E03E000
003E03F000
003C01F000
003C01F800
007800F800
007800F800
00F800FC00
00F0007C00
01F0007E00
01E0003E00
01FFFFFE00
03FFFFFF00
03FFFFFF00
07FFFFFF80
0780000F80
0F80000FC0
0F000007C0
0F000007C0
1E000003E0
1E000003E0
3E000003F0
3C000001F0
7C000001F8
78000000F8
78000000F8
F0000000FC
ENDCHAR
STARTCHAR 00C2
ENCODING 194
SWIDTH 702 0
DWIDTH 39 0
BBX 38 53 0 0
BITMAP
0000FE0000
0001FF0000
0001FF0000
0003EF8000
0007C7C000
000F83E000
000F01E000
001E00F000
003C007800
0000000000
0000000000
0000000000
0000780000
0000780000
0000FC0000
0000FC0000
0000FE0000
0001FE0000
0001FE0000
0003FF0000
0003DF0000
0007DF8000
00078F8000
00078FC000
000F07C000
000F07C000
001F07E000
001E03E000
003E03F000
003C01F000
003C01F800
007800F800
007800F800
00F800FC00
00F0007C00
01F0007E00
01E0003E00
01FFFFFE00
03FFFFFF00
03FFFFFF00
07FFFFFF80
0780000F80
0F80000FC0
0F000007C0
0F000007C0
1E000003E0
1E000003E0
3E000003F0
3C000001F0
7C000001F8
78000000F8
78000000F8
F0000000FC
ENDCHAR
STARTCHAR 00C3
ENCODING 195
SWIDTH 702 0
DWIDTH 39 0
BBX 38 50 0 0
BITMAP
0007C07000
001FF07000
001FF8F000
003C7FE000
00383FE000
00380F8000
0000000000
0000000000
0000000000
0000780000
0000780000
0000FC0000
0000FC0000
0000FE0000
0001FE0000
0001FE0000
0003FF0000
0003DF0000
0007DF8000
00078F8000
00078FC000
000F07C000
000F07C000
001F07E000
001E03E000
003E03F000
003C01F000
003C01F800
007800F800
007800F800
00F800FC00
00F0007C00
01F0007E00
01E0003E00
01FFFFFE00
03FFFFFF00
03FFFFFF00
07FFFFFF80
0780000F80
0F80000FC0
0F000007C0
0F000007C0
1E000003E0
1E000003E0
3E000003F0
3C000001F0
7C000001F8
78000000F8
78000000F8
F0000000FC
ENDCHAR
STARTCHAR 00C4
ENCODING 196
SWIDTH 702 0
DWIDTH 39 0
BBX 38 49 0 0
BITMAP
001F03E000
001F03E000
001F03E000
001F03E000
001F03E000
0000000000
0000000000
0000000000
0000780000
0000780000
0000FC0000
0000FC0000
0000FE0000
0001FE0000
0001FE0000
0003FF0000
0003DF0000
0007DF8000
00078F8000
00078FC000
000F07C000
000F07C000
001F07E000
001E03E000
003E03F000
003C01F000
003C01F800
007800F800
007800F800
00F800FC00
00F0007C00
01F0007E00
01E0003E00
01FFFFFE00
03FFFFFF00
03FFFFFF00
07FFFFFF80
0780000F80
0F80000FC0
0F000007C0
0F000007C0
1E000003E0
1E000003E0
3E000003F0
3C000001F0
7C000001F8
78000000F8
78000000F8
F0000000FC
ENDCHAR
STARTCHAR 00C5
ENCODING 197
SWIDTH 702 0
DWIDTH 39 0
BBX 38 53 0 0
BITMAP
00003C0000
0000FF0000
0001C38000
0003818000
000300C000
000300C000
000300C000
000300C000
0003818000
0001C38000
0000FF0000
00007C0000
0000780000
0000780000
0000FC0000
0000FC0000
0000FE0000
0001FE0000
0001FE0000
0003FF0000
0003DF0000
0007DF8000
00078F8000
00078FC000
000F07C000
000F07C000
001F07E000
001E03E000
003E03F000
003C01F000
003C01F800
007800F800
007800F800
00F800FC00
00F0007C00
01F0007E00
01E0003E00
01FFFFFE00
03FFFFFF00
03FFFFFF00
07FFFFFF80
0780000F80
0F80000FC0
0F000007C0
0F000007C0
1E000003E0
1E000003E0
3E000003F0
3C000001F0
7C000001F8
78000000F8
78000000F8
F0000000FC
ENDCHAR
STARTCHAR 00C6
ENCODING 198
SWIDTH 918 0
DWIDTH 51 0
BBX 49 41 1 0
BITMAP
000000FFFFFF00
000001FFFFFF00
000001FFFFFF00
000003FFFFFF00
000003FC000000
000007FC000000
00000FFC000000
00000F7C000000
00001F7C000000
00001E7C000000
00003E7C000000
00007C7C000000
0000787C000000
0000F87C000000
0000F07C000000
0001F07C000000
0003E07C000000
0003C07C000000
0007C07FFFF800
0007807FFFF800
000F807FFFF800
001F007FFFF800
001E007C000000
003E007C000000
003C007C000000
007C007C000000
00FFFFFC000000
00FFFFFC000000
01FFFFFC000000
01FFFFFC000000
03E0007C000000
07C0007C000000
0780007C000000
0F80007C000000
0F00007C000000
1F00007C000000
3E00007C000000
3C00007FFFFF80
7C00007FFFFF80
7800007FFFFF80
F800007FFFFF80
ENDCHAR
STARTCHAR 00C7
ENCODING 199
SWIDTH 702 0
DWIDTH 39 0
BBX 33 54 3 -12
BITMAP
0001FF8000
001FFFF800
007FFFFF00
00FFFFFF80
03FE00FF80
07F8000F80
0FE0000180
0FC0000000
1F80000000
1F00000000
3F00000000
3E00000000
7E00000000
7C00000000
7C00000000
7C00000000
F800000000
F800000000
F800000000
F800000000
F800000000
F800000000
F800000000
F800000000
F800000000
F800000000
F800000000
FC00000000
7C00000000
7C00000000
7E00000000
3E00000000
3F00000000
3F00000000
1F80000000
0FC0000080
0FE0000380
07F8000F80
03FF00FF80
01FFFFFF00
007FFFFC00
001FFFF000
0001FF8000
0000300000
0000700000
00007C0000
0000FF0000
00001F0000
0000078000
0000078000
0000078000
00010F0000
0001FF0000
0000FC0000
ENDCHAR
STARTCHAR 00C8
ENCODING 200
SWIDTH 540 0
DWIDTH 30 0
BBX 24 53 5 0
BITMAP
1FC000
0FC000
07E000
03F000
01F800
00F800
007C00
003E00
001F00
000000
000000
000000
FFFFFE
FFFFFE
FFFFFE
FFFFFE
F80000
F80000
F80000
F80000
F80000
F80000
F80000
F80000
F80000
F80000
F80000
F80000
F80000
F80000
FFFFF0
FFFFF0
FFFFF0
FFFFF0
F80000
F80000
F80000
F80000
F80000
F80000
F80000
F80000
F80000
F80000
F80000
F80000
F80000
F80000
F80000
FFFFFF
FFFFFF
FFFFFF
FFFFFF
ENDCHAR
STARTCHAR 00C9
ENCODING 201
SWIDTH 540 0
DWIDTH 30 0
BBX 24 53 5 0
BITMAP
0007F0
0007E0
000FC0
001F80
003F00
003E00
007C00
00F800
01F000
000000
000000
000000
FFFFFE
FFFFFE
FFFFFE
FFFFFE
F80000
F80000
F80000
F80000
F80000
F80000
F80000
F80000
F80000
F80000
F80000
F80000
F80000
F80000
FFFFF0
FFFFF0
FFFFF0
FFFFF0
F80000
F80000
F80000
F80000
F80000
F80000
F80000
F80000
F80000
F80000
F80000
F80000
F80000
F80000
F80000
FFFFFF
FFFFFF
FFFFFF
FFFFFF
ENDCHAR
STARTCHAR 00CA
ENCODING 202
SWIDTH 540 0
DWIDTH 30 0
BBX 24 53 5 0
BITMAP
00FE00
01FF00
01FF00
03EF80
07C7C0
0F83E0
0F01E0
1E00F0
3C0078
000000
000000
000000
FFFFFE
FFFFFE
FFFFFE
FFFFFE
F80000
F80000
F80000
F80000
F80000
F80000
F80000
F80000
F80000
F80000
F80000
F80000
F80000
F80000
FFFFF0
FFFFF0
FFFFF0
FFFFF0
F80000
F80000
F80000
F80000
F80000
F80000
F80000
F80000
F80000
F80000
F80000
F80000
F80000
F80000
F80000
FFFFFF
FFFFFF
FFFFFF
FFFFFF
ENDCHAR
STARTCHAR 00CB
ENCODING 203
SWIDTH 540 0
DWIDTH 30 0
BBX 24 49 5 0
BITMAP
0F81F0
0F81F0
0F81F0
0F81F0
0F81F0
000000
000000
000000
FFFFFE
FFFFFE
FFFFFE
FFFFFE
F80000
F80000
F80000
F80000
F80000
F80000
F80000
F80000
F80000
F80000
F80000
F80000
F80000
F80000
FFFFF0
FFFFF0
FFFFF0
FFFFF0
F80000
F80000
F80000
F80000
F80000
F80000
F80000
F80000
F80000
F80000
F80000
F80000
F80000
F80000
F80000
FFFFFF
FFFFFF
FFFFFF
FFFFFF
ENDCHAR
STARTCHAR 00CC
ENCODING 204
SWIDTH 288 0
DWIDTH 16 0
BBX 13 53 -1 0
BITMAP
FE00
7E00
3F00
1F80
0FC0
07C0
03E0
01F0
00F8
0000
0000
0000
03E0
03E0
03E0
03E0
03E0
03E0
03E0
03E0
03E0
03E0
03E0
03E0
03E0
03E0
03E0
03E0
03E0
03E0
03E0
03E0
03E0
03E0
03E0
03E0
03E0
03E0
03E0
03E0
03E0
03E0
03E0
03E0
03E0
03E0
03E0
03E0
03E0
03E0
03E0
03E0
03E0
ENDCHAR
STARTCHAR 00CD
ENCODING 205
SWIDTH 288 0
DWIDTH 16 0
BBX 13 53 4 0
BITMAP
03F8
03F0
07E0
0FC0
1F80
1F00
3E00
7C00
F800
0000
0000
0000
7C00
7C00
7C00
7C00
7C00
7C00
7C00
7C00
7C00
7C00
7C00
7C00
7C00
7C00
7C00
7C00
7C00
7C00
7C00
7C00
7C00
7C00
7C00
7C00
7C00
7C00
7C00
7C00
7C00
7C00
7C00
7C00
7C00
7C00
7C00
7C00
7C00
7C00
7C00
7C00
7C00
ENDCHAR
STARTCHAR 00CE
ENCODING 206
SWIDTH 288 0
DWIDTH 16 0
BBX 19 53 -2 0
BITMAP
03F800
07FC00
07FC00
0FBE00
1F1F00
3E0F80
3C0780
7803C0
F001E0
000000
000000
000000
01F000
01F000
01F000
01F000
01F000
01F000
01F000
01F000
01F000
01F000
01F000
01F000
01F000
01F000
01F000
01F000
01F000
01F000
01F000
01F000
01F000
01F000
01F000
01F000
01F000
01F000
01F000
01F000
01F000
01F000
01F000
01F000
01F000
01F000
01F000
01F000
01F000
01F000
01F000
01F000
01F000
ENDCHAR
STARTCHAR 00CF
ENCODING 207
SWIDTH 288 0
DWIDTH 16 0
BBX 16 49 0 0
BITMAP
F81F
F81F
F81F
F81F
F81F
0000
0000
0000
07C0
07C0
07C0
07C0
07C0
07C0
07C0
07C0
07C0
07C0
07C0
07C0
07C0
07C0
07C0
07C0
07C0
07C0
07C0
07C0
07C0
07C0
07C0
07C0
07C0
07C0
07C0
07C0
07C0
07C0
07C0
07C0
07C0
07C0
07C0
07C0
07C0
07C0
07C0
07C0
07C0
ENDCHAR
STARTCHAR 00D0
ENCODING 208
SWIDTH 756 0
DWIDTH 42 0
BBX 40 41 -1 0
BITMAP
03FFFFC000
03FFFFFC00
03FFFFFF00
03FFFFFF80
03E000FFC0
03E0001FE0
03E00007F0
03E00003F8
03E00001F8
03E00000FC
03E000007C
03E000007E
03E000003E
03E000003E
03E000003F
03E000001F
03E000001F
03E000001F
FFFFF0001F
FFFFF0001F
FFFFF0001F
FFFFF0001F
03E000001F
03E000001F
03E000001F
03E000003E
03E000003E
03E000003E
03E000003E
03E000007C
03E000007C
03E00000F8
03E00001F8
03E00003F0
03E00007E0
03E0001FE0
03E000FF80
03FFFFFF00
03FFFFFE00
03FFFFF000
03FFFF8000
ENDCHAR
STARTCHAR 00D1
ENCODING 209
SWIDTH 738 0
DWIDTH 41 0
BBX 31 50 5 0
BITMAP
003E0380
00FF8380
00FFC780
01E3FF00
01C1FF00
01C07C00
00000000
00000000
00000000
F800001E
FC00001E
FC00001E
FE00001E
FF00001E
FF00001E
FF80001E
FFC0001E
F7C0001E
F7E0001E
F3F0001E
F1F0001E
F1F8001E
F0FC001E
F07C001E
F07E001E
F03F001E
F01F001E
F01F801E
F00FC01E
F007C01E
F007E01E
F003F01E
F001F01E
F001F81E
F000FC1E
F0007C1E
F0007E1E
F0003F1E
F0001F1E
F0001F9E
F0000FDE
F00007DE
F00007FE
F00003FE
F00001FE
F00001FE
F00000FE
F000007E
F000007E
F000003E
ENDCHAR
STARTCHAR 00D2
ENCODING 210
SWIDTH 792 0
DWIDTH 44 0
BBX 38 54 3 -1
BITMAP
003F800000
001F800000
000FC00000
0007E00000
0003F00000
0001F00000
0000F80000
00007C0000
00003E0000
0000000000
0000000000
0003FF0000
001FFFE000
007FFFF800
00FFFFFC00
01FE01FE00
07F0007F00
07E0001F80
0FC0000FC0
1F800007E0
1F000003E0
3E000001F0
3E000001F0
7C000000F8
7C000000F8
7C000000F8
7C000000F8
F80000007C
F80000007C
F80000007C
F80000007C
F80000007C
F80000007C
F80000007C
F80000007C
F80000007C
F80000007C
F80000007C
7C000000F8
7C000000F8
7C000000F8
7C000001F8
3E000001F0
3E000001F0
1F000003E0
1F800007E0
0FC0000FC0
07E0001F80
07F0003F80
03FE01FF00
00FFFFFC00
007FFFF800
001FFFE000
0003FF0000
ENDCHAR
STARTCHAR 00D3
ENCODING 211
SWIDTH 792 0
DWIDTH 44 0
BBX 38 54 3 -1
BITMAP
000007F000
000007E000
00000FC000
00001F8000
00003F0000
00003E0000
00007C0000
0000F80000
0001F00000
0000000000
0000000000
0003FF0000
001FFFE000
007FFFF800
00FFFFFC00
01FE01FE00
07F0007F00
07E0001F80
0FC0000FC0
1F800007E0
1F000003E0
3E000001F0
3E000001F0
7C000000F8
7C000000F8
7C000000F8
7C000000F8
F80000007C
F80000007C
F80000007C
F80000007C
F80000007C
F80000007C
F80000007C
F80000007C
F80000007C
F80000007C
F80000007C
7C000000F8
7C000000F8
7C000000F8
7C000001F8
3E000001F0
3E000001F0
1F000003E0
1F800007E0
0FC0000FC0
07E0001F80
07F0003F80
03FE01FF00
00FFFFFC00
007FFFF800
001FFFE000
0003FF0000
ENDCHAR
STARTCHAR 00D4
ENCODING 212
SWIDTH 792 0
DWIDTH 44 0
BBX 38 54 3 -1
BITMAP
0000FE0000
0001FF0000
0001FF0000
0003EF8000
0007C7C000
000F83E000
000F01E000
001E00F000
003C007800
0000000000
0000000000
0003FF0000
001FFFE000
007FFFF800
00FFFFFC00
01FE01FE00
07F0007F00
07E0001F80
0FC0000FC0
1F800007E0
1F000003E0
3E000001F0
3E000001F0
7C000000F8
7C000000F8
7C000000F8
7C000000F8
F80000007C
F80000007C
F80000007C
F80000007C
F80000007C
F80000007C
F80000007C
F80000007C
F80000007C
F80000007C
F80000007C
7C000000F8
7C000000F8
7C000000F8
7C000001F8
3E000001F0
3E000001F0
1F000003E0
1F800007E0
0FC0000FC0
07E0001F80
07F0003F80
03FE01FF00
00FFFFFC00
007FFFF800
001FFFE000
0003FF0000
ENDCHAR
STARTCHAR 00D5
ENCODING 213
SWIDTH 792 0
DWIDTH 44 0
BBX 38 51 3 -1
BITMAP
0007C07000
001FF07000
001FF8F000
003C7FE000
00383FE000
00380F8000
0000000000
0000000000
0003FF0000
001FFFE000
007FFFF800
00FFFFFC00
01FE01FE00
07F0007F00
07E0001F80
0FC0000FC0
1F800007E0
1F000003E0
3E000001F0
3E000001F0
7C000000F8
7C000000F8
7C000000F8
7C000000F8
F80000007C
F80000007C
F80000007C
F80000007C
F80000007C
F80000007C
F80000007C
F80000007C
F80000007C
F80000007C
F80000007C
7C000000F8
7C000000F8
7C000000F8
7C000001F8
3E000001F0
3E000001F0
1F000003E0
1F800007E0
0FC0000FC0
07E0001F80
07F0003F80
03FE01FF00
00FFFFFC00
007FFFF800
001FFFE000
0003FF0000
ENDCHAR
STARTCHAR 00D6
ENCODING 214
SWIDTH 792 0
DWIDTH 44 0
BBX 38 50 3 -1
BITMAP
001F03E000
001F03E000
001F03E000
001F03E000
001F03E000
0000000000
0000000000
0003FF0000
001FFFE000
007FFFF800
00FFFFFC00
01FE01FE00
07F0007F00
07E0001F80
0FC0000FC0
1F800007E0
1F000003E0
3E000001F0
3E000001F0
7C000000F8
7C000000F8
7C000000F8
7C000000F8
F80000007C
F80000007C
F80000007C
F80000007C
F80000007C
F80000007C
F80000007C
F80000007C
F80000007C
F80000007C
F80000007C
7C000000F8
7C000000F8
7C000000F8
7C000001F8
3E000001F0
3E000001F0
1F000003E0
1F800007E0
0FC0000FC0
07E0001F80
07F0003F80
03FE01FF00
00FFFFFC00
007FFFF800
001FFFE000
0003FF0000
ENDCHAR
STARTCHAR 00D7
ENCODING 215
SWIDTH 810 0
DWIDTH 45 0
BBX 32 32 6 0
BITMAP
20000004
7000000E
F800001F
7C00003E
3E00007C
1F0000F8
0F8001F0
07C003E0
03E007C0
01F00F80
00F81F00
007C3E00
003E7C00
001FF800
000FF000
0007E000
0007E000
000FF000
001FF800
003E7C00
007C3E00
00F81F00
01F00F80
03E007C0
07C003E0
0F8001F0
1F0000F8
3E00007C
7C00003E
F800001F
7000000E
20000004
ENDCHAR
STARTCHAR 00D8
ENCODING 216
SWIDTH 792 0
DWIDTH 44 0
BBX 38 43 3 -1
BITMAP
0003FF00FC
001FFFE1F8
007FFFFBF0
00FFFFFFF0
01FE01FFE0
07F0003FC0
07E0001F80
0FC0001FC0
1F80003FE0
1F00007FE0
3E0000FDF0
3E0001FDF0
7C0001F9F8
7C0003F0F8
7C0007E0F8
7C000FE0F8
F8000FC07C
F8001F807C
F8003F007C
F8007F007C
F8007E007C
F800FC007C
F801F8007C
F803F8007C
F803F0007C
F807E0007C
F80FC0007C
7C1FC000F8
7C1F8000F8
7C3F0000F8
7E7E0001F8
3EFE0001F0
3EFC0001F0
1FF80003E0
1FF00007E0
0FF0000FC0
07E0001F80
0FF0003F00
1FFE01FF00
3FFFFFFC00
3F7FFFF800
7E1FFFE000
FC03FF0000
ENDCHAR
STARTCHAR 00D9
ENCODING 217
SWIDTH 702 0
DWIDTH 39 0
BBX 29 54 5 -1
BITMAP
03F80000
01F80000
00FC0000
007E0000
003F0000
001F0000
000F8000
0007C000
0003E000
00000000
00000000
00000000
F8000078
F8000078
F8000078
F8000078
F8000078
F8000078
F8000078
F8000078
F8000078
F8000078
F8000078
F8000078
F8000078
F8000078
F8000078
F8000078
F8000078
F8000078
F8000078
F8000078
F8000078
F8000078
F8000078
F8000078
F8000078
F8000078
F8000078
F8000078
F8000078
F8000078
F8000078
7C0000F8
7C0000F0
7C0000F0
7E0001F0
3F0001E0
3F8003E0
1FE01FC0
0FFFFF80
07FFFF00
01FFFE00
003FF000
ENDCHAR
STARTCHAR 00DA
ENCODING 218
SWIDTH 702 0
DWIDTH 39 0
BBX 29 54 5 -1
BITMAP
00007F00
00007E00
0000FC00
0001F800
0003F000
0003E000
0007C000
000F8000
001F0000
00000000
00000000
00000000
F8000078
F8000078
F8000078
F8000078
F8000078
F8000078
F8000078
F8000078
F8000078
F8000078
F8000078
F8000078
F8000078
F8000078
F8000078
F8000078
F8000078
F8000078
F8000078
F8000078
F8000078
F8000078
F8000078
F8000078
F8000078
F8000078
F8000078
F8000078
F8000078
F8000078
F8000078
7C0000F8
7C0000F0
7C0000F0
7E0001F0
3F0001E0
3F8003E0
1FE01FC0
0FFFFF80
07FFFF00
01FFFE00
003FF000
ENDCHAR
STARTCHAR 00DB
ENCODING 219
SWIDTH 702 0
DWIDTH 39 0
BBX 29 54 5 -1
BITMAP
000FE000
001FF000
001FF000
003EF800
007C7C00
00F83E00
00F01E00
01E00F00
03C00780
00000000
00000000
00000000
F8000078
F8000078
F8000078
F8000078
F8000078
F8000078
F8000078
F8000078
F8000078
F8000078
F8000078
F8000078
F8000078
F8000078
F8000078
F8000078
F8000078
F8000078
F8000078
F8000078
F8000078
F8000078
F8000078
F8000078
F8000078
F8000078
F8000078
F8000078
F8000078
F8000078
F8000078
7C0000F8
7C0000F0
7C0000F0
7E0001F0
3F0001E0
3F8003E0
1FE01FC0
0FFFFF80
07FFFF00
01FFFE00
003FF000
ENDCHAR
STARTCHAR 00DC
ENCODING 220
SWIDTH 702 0
DWIDTH 39 0
BBX 29 50 5 -1
BITMAP
01F03E00
01F03E00
01F03E00
01F03E00
01F03E00
00000000
00000000
00000000
F8000078
F8000078
F8000078
F8000078
F8000078
F8000078
F8000078
F8000078
F8000078
F8000078
F8000078
F8000078
F8000078
F8000078
F8000078
F8000078
F8000078
F8000078
F8000078
F8000078
F8000078
F8000078
F8000078
F8000078
F8000078
F8000078
F8000078
F8000078
F8000078
F8000078
F8000078
7C0000F8
7C0000F0
7C0000F0
7E0001F0
3F0001E0
3F8003E0
1FE01FC0
0FFFFF80
07FFFF00
01FFFE00
003FF000
ENDCHAR
STARTCHAR 00DD
ENCODING 221
SWIDTH 630 0
DWIDTH 35 0
BBX 33 53 0 0
BITMAP
00001FC000
00001F8000
00003F0000
00007E0000
0000FC0000
0000F80000
0001F00000
0003E00000
0007C00000
0000000000
0000000000
0000000000
FC00000F80
7E00001F00
3E00001E00
3F00003E00
1F00003C00
1F80007C00
0FC000F800
07C000F000
07E001F000
03F003E000
01F003E000
01F807C000
00F8078000
00FC0F8000
007E1F0000
003E1E0000
003F3E0000
001FBC0000
000FFC0000
000FF80000
0007F00000
0007F00000
0003E00000
0003E00000
0003E00000
0003E00000
0003E00000
0003E00000
0003E00000
0003E00000
0003E00000
0003E00000
0003E00000
0003E00000
0003E00000
0003E00000
0003E00000
0003E00000
0003E00000
0003E00000
0003E00000
ENDCHAR
STARTCHAR 00DE
ENCODING 222
SWIDTH 558 0
DWIDTH 31 0
BBX 25 41 5 0
BITMAP
F8000000
F8000000
F8000000
F8000000
F8000000
F8000000
F8000000
F8000000
FFFF0000
FFFFF000
FFFFFC00
FFFFFE00
F803FE00
F8007F00
F8003F00
F8001F80
F8000F80
F8000F80
F8000F80
F8000F80
F8000F80
F8000F80
F8000F80
F8001F00
F8001F00
F8003E00
F8007E00
F801FC00
F807F800
FFFFF000
FFFFE000
FFFF8000
FFF80000
F8000000
F8000000
F8000000
F8000000
F8000000
F8000000
F8000000
F8000000
ENDCHAR
STARTCHAR 00DF
ENCODING 223
SWIDTH 612 0
DWIDTH 34 0
BBX 27 44 5 0
BITMAP
03FE0000
0FFF8000
1FFFE000
3FFFF000
7F03F000
7C01F800
7C00F800
F800F800
F800F800
F800F800
F801F000
F801F000
F803E000
F807C000
F80F8000
F81F8000
F81F0000
F83E0000
F87C0000
F87C0000
F87C0000
F87E0000
F87F0000
F83F8000
F81FC000
F80FF000
F807F800
F803FC00
F800FF00
F8007F80
F8001F80
F8000FC0
F80007C0
F80007E0
F80003E0
F80003E0
F80003E0
F80003E0
F84007C0
F87C0FC0
F87FFF80
F87FFF80
F83FFE00
F807F800
ENDCHAR
STARTCHAR 00E0
ENCODING 224
SWIDTH 558 0
DWIDTH 31 0
BBX 27 44 3 0
BITMAP
0FE00000
07E00000
03F00000
01F80000
00FC0000
007C0000
003E0000
001F0000
000F8000
00000000
00000000
00000000
00000000
00000000
007F8000
03FFF000
0FFFF800
1FFFFC00
1F81FC00
1C007E00
10003E00
00003E00
00003E00
00003E00
00003E00
00003E00
001FFE00
01FFFE00
0FFFFE00
1FE03E00
3F003E00
7E003E00
7C003E00
F8003E00
F8003E00
F8003E00
F8003E00
FC007E00
FC00FE00
7F07FF00
7FFFDFE0
3FFF1FE0
0FFE0FE0
03F007C0
ENDCHAR
STARTCHAR 00E1
ENCODING 225
SWIDTH 558 0
DWIDTH 31 0
BBX 27 44 3 0
BITMAP
0003F800
0003F000
0007E000
000FC000
001F8000
001F0000
003E0000
007C0000
00F80000
00000000
00000000
00000000
00000000
00000000
007F8000
03FFF000
0FFFF800
1FFFFC00
1F81FC00
1C007E00
10003E00
00003E00
00003E00
00003E00
00003E00
00003E00
001FFE00
01FFFE00
0FFFFE00
1FE03E00
3F003E00
7E003E00
7C003E00
F8003E00
F8003E00
F8003E00
F8003E00
FC007E00
FC00FE00
7F07FF00
7FFFDFE0
3FFF1FE0
0FFE0FE0
03F007C0
ENDCHAR
STARTCHAR 00E2
ENCODING 226
SWIDTH 558 0
DWIDTH 31 0
BBX 27 44 3 0
BITMAP
007F0000
00FF8000
00FF8000
01F7C000
03E3E000
07C1F000
0780F000
0F007800
1E003C00
00000000
00000000
00000000
00000000
00000000
007F8000
03FFF000
0FFFF800
1FFFFC00
1F81FC00
1C007E00
10003E00
00003E00
00003E00
00003E00
00003E00
00003E00
001FFE00
01FFFE00
0FFFFE00
1FE03E00
3F003E00
7E003E00
7C003E00
F8003E00
F8003E00
F8003E00
F8003E00
FC007E00
FC00FE00
7F07FF00
7FFFDFE0
3FFF1FE0
0FFE0FE0
03F007C0
ENDCHAR
STARTCHAR 00E3
ENCODING 227
SWIDTH 558 0
DWIDTH 31 0
BBX 27 41 3 0
BITMAP
01F01C00
07FC1C00
07FE3C00
0F1FF800
0E0FF800
0E03E000
00000000
00000000
00000000
00000000
00000000
007F8000
03FFF000
0FFFF800
1FFFFC00
1F81FC00
1C007E00
10003E00
00003E00
00003E00
00003E00
00003E00
00003E00
001FFE00
01FFFE00
0FFFFE00
1FE03E00
3F003E00
7E003E00
7C003E00
F8003E00
F8003E00
F8003E00
F8003E00
FC007E00
FC00FE00
7F07FF00
7FFFDFE0
3FFF1FE0
0FFE0FE0
03F007C0
ENDCHAR
STARTCHAR 00E4
ENCODING 228
SWIDTH 558 0
DWIDTH 31 0
BBX 27 40 3 0
BITMAP
07C0F800
07C0F800
07C0F800
07C0F800
07C0F800
00000000
00000000
00000000
00000000
00000000
007F8000
03FFF000
0FFFF800
1FFFFC00
1F81FC00
1C007E00
10003E00
00003E00
00003E00
00003E00
00003E00
00003E00
001FFE00
01FFFE00
0FFFFE00
1FE03E00
3F003E00
7E003E00
7C003E00
F8003E00
F8003E00
F8003E00
F8003E00
FC007E00
FC00FE00
7F07FF00
7FFFDFE0
3FFF1FE0
0FFE0FE0
03F007C0
ENDCHAR
STARTCHAR 00E5
ENCODING 229
SWIDTH 558 0
DWIDTH 31 0
BBX 27 47 3 0
BITMAP
001E0000
007F8000
00E1C000
01C0C000
01806000
01806000
01806000
01806000
01C0C000
00E1C000
007F8000
003E0000
00000000
00000000
00000000
00000000
00000000
007F8000
03FFF000
0FFFF800
1FFFFC00
1F81FC00
1C007E00
10003E00
00003E00
00003E00
00003E00
00003E00
00003E00
001FFE00
01FFFE00
0FFFFE00
1FE03E00
3F003E00
7E003E00
7C003E00
F8003E00
F8003E00
F8003E00
F8003E00
FC007E00
FC00FE00
7F07FF00
7FFFDFE0
3FFF1FE0
0FFE0FE0
03F007C0
ENDCHAR
STARTCHAR 00E6
ENCODING 230
SWIDTH 864 0
DWIDTH 48 0
BBX 41 30 3 0
BITMAP
007F003F8000
03FFE1FFE000
0FFFF3FFF800
1FFFFFFFFC00
1F01FFC0FE00
1C00FF803E00
10007F001F00
00007E001F00
00007E000F00
00007C000F00
00007C000F80
00007C000F80
003FFFFFFF80
03FFFFFFFF80
0FFFFFFFFF80
1FE07C000000
3F007C000000
7E007C000000
7C007C000000
F8007E000000
F8007E000000
F8007F000000
F8007F000000
FC00FF800000
FC01FFC00080
7F07CFF80F80
7FFF87FFFF80
3FFF03FFFF80
1FFC00FFFF00
07F0001FF000
ENDCHAR
STARTCHAR 00E7
ENCODING 231
SWIDTH 522 0
DWIDTH 29 0
BBX 23 42 3 -12
BITMAP
003FF0
01FFFE
03FFFE
0FFFFE
1FF00E
1FC000
3F0000
7E0000
7E0000
7C0000
FC0000
F80000
F80000
F80000
F80000
F80000
F80000
F80000
F80000
7C0000
7C0000
7E0000
3E0000
3F0000
1F8002
0FF01E
07FFFE
03FFFE
00FFFC
003FC0
000700
000600
000E00
000F80
001FE0
0003E0
0000F0
0000F0
0000F0
0021E0
003FE0
001F80
ENDCHAR
STARTCHAR 00E8
ENCODING 232
SWIDTH 558 0
DWIDTH 31 0
BBX 24 44 3 0
BITMAP
0FE000
07E000
03F000
01F800
00FC00
007C00
003E00
001F00
000F80
000000
000000
000000
000000
000000
007F00
01FFE0
07FFF0
0FFFF8
1FC1FC
1F007C
3E003E
7C003E
7C001E
7C001F
F8001F
F8001F
FFFFFF
FFFFFF
FFFFFF
FFFFFF
F80000
F80000
F80000
7C0000
7C0000
7E0000
3E0000
3F0000
1FC001
0FF01F
07FFFF
03FFFF
00FFFE
001FE0
ENDCHAR
STARTCHAR 00E9
ENCODING 233
SWIDTH 558 0
DWIDTH 31 0
BBX 24 44 3 0
BITMAP
0003F8
0003F0
0007E0
000FC0
001F80
001F00
003E00
007C00
00F800
000000
000000
000000
000000
000000
007F00
01FFE0
07FFF0
0FFFF8
1FC1FC
1F007C
3E003E
7C003E
7C001E
7C001F
F8001F
F8001F
FFFFFF
FFFFFF
FFFFFF
FFFFFF
F80000
F80000
F80000
7C0000
7C0000
7E0000
3E0000
3F0000
1FC001
0FF01F
07FFFF
03FFFF
00FFFE
001FE0
ENDCHAR
STARTCHAR 00EA
ENCODING 234
SWIDTH 558 0
DWIDTH 31 0
BBX 24 44 3 0
BITMAP
003F80
007FC0
007FC0
00FBE0
01F1F0
03E0F8
03C078
07803C
0F001E
000000
000000
000000
000000
000000
007F00
01FFE0
07FFF0
0FFFF8
1FC1FC
1F007C
3E003E
7C003E
7C001E
7C001F
F8001F
F8001F
FFFFFF
FFFFFF
FFFFFF
FFFFFF
F80000
F80000
F80000
7C0000
7C0000
7E0000
3E0000
3F0000
1FC001
0FF01F
07FFFF
03FFFF
00FFFE
001FE0
ENDCHAR
STARTCHAR 00EB
ENCODING 235
SWIDTH 558 0
DWIDTH 31 0
BBX 24 40 3 0
BITMAP
07C0F8
07C0F8
07C0F8
07C0F8
07C0F8
000000
000000
000000
000000
000000
007F00
01FFE0
07FFF0
0FFFF8
1FC1FC
1F007C
3E003E
7C003E
7C001E
7C001F
F8001F
F8001F
FFFFFF
FFFFFF
FFFFFF
FFFFFF
F80000
F80000
F80000
7C0000
7C0000
7E0000
3E0000
3F0000
1FC001
0FF01F
07FFFF
03FFFF
00FFFE
001FE0
ENDCHAR
STARTCHAR 00EC
ENCODING 236
SWIDTH 288 0
DWIDTH 16 0
BBX 13 44 -1 0
BITMAP
FE00
7E00
3F00
1F80
0FC0
07C0
03E0
01F0
00F8
0000
0000
0000
0000
0000
03E0
03E0
03E0
03E0
03E0
03E0
03E0
03E0
03E0
03E0
03E0
03E0
03E0
03E0
03E0
03E0
03E0
03E0
03E0
03E0
03E0
03E0
03E0
03E0
03E0
03E0
03E0
03E0
03E0
03E0
ENDCHAR
STARTCHAR 00ED
ENCODING 237
SWIDTH 288 0
DWIDTH 16 0
BBX 13 44 4 0
BITMAP
03F8
03F0
07E0
0FC0
1F80
1F00
3E00
7C00
F800
0000
0000
0000
0000
0000
7C00
7C00
7C00
7C00
7C00
7C00
7C00
7C00
7C00
7C00
7C00
7C00
7C00
7C00
7C00
7C00
7C00
7C00
7C00
7C00
7C00
7C00
7C00
7C00
7C00
7C00
7C00
7C00
7C00
7C00
ENDCHAR
STARTCHAR 00EE
ENCODING 238
SWIDTH 288 0
DWIDTH 16 0
BBX 19 44 -2 0
BITMAP
03F800
07FC00
07FC00
0FBE00
1F1F00
3E0F80
3C0780
7803C0
F001E0
000000
000000
000000
000000
000000
01F000
01F000
01F000
01F000
01F000
01F000
01F000
01F000
01F000
01F000
01F000
01F000
01F000
01F000
01F000
01F000
01F000
01F000
01F000
01F000
01F000
01F000
01F000
01F000
01F000
01F000
01F000
01F000
01F000
01F000
ENDCHAR
STARTCHAR 00EF
ENCODING 239
SWIDTH 288 0
DWIDTH 16 0
BBX 16 40 0 0
BITMAP
F81F
F81F
F81F
F81F
F81F
0000
0000
0000
0000
0000
07C0
07C0
07C0
07C0
07C0
07C0
07C0
07C0
07C0
07C0
07C0
07C0
07C0
07C0
07C0
07C0
07C0
07C0
07C0
07C0
07C0
07C0
07C0
07C0
07C0
07C0
07C0
07C0
07C0
07C0
ENDCHAR
STARTCHAR 00F0
ENCODING 240
SWIDTH 612 0
DWIDTH 34 0
BBX 28 47 3 0
BITMAP
00060000
00070000
000FC000
F81F8000
FFBF0000
FFFF0000
FFFE0000
0FFF0000
01FF8000
03FFE000
03FFF000
07E3F800
0FC1F800
0381FC00
0180FE00
00007F00
00007F00
003FFF80
01FFFF80
03FFFFC0
07FFFFC0
0FE07FE0
1F801FE0
3F0007E0
3E0007E0
7C0003F0
7C0003F0
FC0001F0
F80001F0
F80001F0
F80001F0
F80001F0
F80001F0
F80001F0
F80001F0
F80001E0
7C0003E0
7C0003E0
7C0003E0
3E0007C0
3F000FC0
1F801F80
0FE07F00
0FFFFE00
03FFFC00
01FFF000
003FC000
ENDCHAR
STARTCHAR 00F1
ENCODING 241
SWIDTH 630 0
DWIDTH 35 0
BBX 25 41 5 0
BITMAP
01F01C00
07FC1C00
07FE3C00
0F1FF800
0E0FF800
0E03E000
00000000
00000000
00000000
00000000
00000000
F80FE000
F83FF800
F8FFFE00
F9FFFE00
FBF03F00
FFC01F00
FF801F80
FF000F80
FE000F80
FC000F80
F8000F80
F8000F80
F8000F80
F8000F80
F8000F80
F8000F80
F8000F80
F8000F80
F8000F80
F8000F80
F8000F80
F8000F80
F8000F80
F8000F80
F8000F80
F8000F80
F8000F80
F8000F80
F8000F80
F8000F80
ENDCHAR
STARTCHAR 00F2
ENCODING 242
SWIDTH 612 0
DWIDTH 34 0
BBX 28 44 3 0
BITMAP
07F00000
03F00000
01F80000
00FC0000
007E0000
003E0000
001F0000
000F8000
0007C000
00000000
00000000
00000000
00000000
00000000
003FC000
01FFF800
07FFFC00
0FFFFF00
1FE07F80
1F801F80
3E0007C0
7E0007E0
7C0003E0
7C0003E0
F80003F0
F80001F0
F80001F0
F80001F0
F80001F0
F80001F0
F80001F0
F80001F0
F80001F0
F80003F0
7C0003E0
7C0003E0
7E0007E0
3E000FC0
1F801F80
1FC07F80
0FFFFF00
07FFFE00
01FFF800
003FC000
ENDCHAR
STARTCHAR 00F3
ENCODING 243
SWIDTH 612 0
DWIDTH 34 0
BBX 28 44 3 0
BITMAP
0000FE00
0000FC00
0001F800
0003F000
0007E000
0007C000
000F8000
001F0000
003E0000
00000000
00000000
00000000
00000000
00000000
003FC000
01FFF800
07FFFC00
0FFFFF00
1FE07F80
1F801F80
3E0007C0
7E0007E0
7C0003E0
7C0003E0
F80003F0
F80001F0
F80001F0
F80001F0
F80001F0
F80001F0
F80001F0
F80001F0
F80001F0
F80003F0
7C0003E0
7C0003E0
7E0007E0
3E000FC0
1F801F80
1FC07F80
0FFFFF00
07FFFE00
01FFF800
003FC000
ENDCHAR
STARTCHAR 00F4
ENCODING 244
SWIDTH 612 0
DWIDTH 34 0
BBX 28 44 3 0
BITMAP
001FC000
003FE000
003FE000
007DF000
00F8F800
01F07C00
01E03C00
03C01E00
07800F00
00000000
00000000
00000000
00000000
00000000
003FC000
01FFF800
07FFFC00
0FFFFF00
1FE07F80
1F801F80
3E0007C0
7E0007E0
7C0003E0
7C0003E0
F80003F0
F80001F0
F80001F0
F80001F0
F80001F0
F80001F0
F80001F0
F80001F0
F80001F0
F80003F0
7C0003E0
7C0003E0
7E0007E0
3E000FC0
1F801F80
1FC07F80
0FFFFF00
07FFFE00
01FFF800
003FC000
ENDCHAR
STARTCHAR 00F5
ENCODING 245
SWIDTH 612 0
DWIDTH 34 0
BBX 28 41 3 0
BITMAP
00F80E00
03FE0E00
03FF1E00
078FFC00
0707FC00
0701F000
00000000
00000000
00000000
00000000
00000000
003FC000
01FFF800
07FFFC00
0FFFFF00
1FE07F80
1F801F80
3E0007C0
7E0007E0
7C0003E0
7C0003E0
F80003F0
F80001F0
F80001F0
F80001F0
F80001F0
F80001F0
F80001F0
F80001F0
F80001F0
F80003F0
7C0003E0
7C0003E0
7E0007E0
3E000FC0
1F801F80
1FC07F80
0FFFFF00
07FFFE00
01FFF800
003FC000
ENDCHAR
STARTCHAR 00F6
ENCODING 246
SWIDTH 612 0
DWIDTH 34 0
BBX 28 40 3 0
BITMAP
03E07C00
03E07C00
03E07C00
03E07C00
03E07C00
00000000
00000000
00000000
00000000
00000000
003FC000
01FFF800
07FFFC00
0FFFFF00
1FE07F80
1F801F80
3E0007C0
7E0007E0
7C0003E0
7C0003E0
F80003F0
F80001F0
F80001F0
F80001F0
F80001F0
F80001F0
F80001F0
F80001F0
F80001F0
F80003F0
7C0003E0
7C0003E0
7E0007E0
3E000FC0
1F801F80
1FC07F80
0FFFFF00
07FFFE00
01FFF800
003FC000
ENDCHAR
STARTCHAR 00F7
ENCODING 247
SWIDTH 810 0
DWIDTH 45 0
BBX 33 32 6 0
BITMAP
0007F00000
0007F00000
0007F00000
0007F00000
0007F00000
0007F00000
0007F00000
0000000000
0000000000
0000000000
0000000000
0000000000
0000000000
0000000000
FFFFFFFF80
FFFFFFFF80
FFFFFFFF80
FFFFFFFF80
0000000000
0000000000
0000000000
0000000000
0000000000
0000000000
0000000000
0007F00000
0007F00000
0007F00000
0007F00000
0007F00000
0007F00000
0007F00000
ENDCHAR
STARTCHAR 00F8
ENCODING 248
SWIDTH 612 0
DWIDTH 34 0
BBX 28 30 3 0
BITMAP
007F83F0
01FFE7E0
07FFFFC0
0FFFFF80
1FC1FF80
3F007F80
3E007FC0
7C00FFE0
7C00FFE0
7C01FBE0
F803F3E0
F807F1F0
F807E1F0
F80FC1F0
F81F81F0
F81F81F0
F83F01F0
F87E01F0
F8FE01F0
FCFC01F0
7DF803E0
7FF003E0
7FF003E0
3FE007C0
3FE00FC0
1FF83F80
1FFFFF00
3FFFFE00
7E7FFC00
FE0FE000
ENDCHAR
STARTCHAR 00F9
ENCODING 249
SWIDTH 630 0
DWIDTH 35 0
BBX 25 44 5 0
BITMAP
0FE00000
07E00000
03F00000
01F80000
00FC0000
007C0000
003E0000
001F0000
000F8000
00000000
00000000
00000000
00000000
00000000
F8000F80
F8000F80
F8000F80
F8000F80
F8000F80
F8000F80
F8000F80
F8000F80
F8000F80
F8000F80
F8000F80
F8000F80
F8000F80
F8000F80
F8000F80
F8000F80
F8000F80
F8000F80
F8000F80
F8000F80
F8001F80
F8003F80
F8007F80
F800FF80
7C01FF80
7E07EF80
7FFFCF80
3FFF8F80
1FFE0F80
03F80F80
ENDCHAR
STARTCHAR 00FA
ENCODING 250
SWIDTH 630 0
DWIDTH 35 0
BBX 25 44 5 0
BITMAP
0001FC00
0001F800
0003F000
0007E000
000FC000
000F8000
001F0000
003E0000
007C0000
00000000
00000000
00000000
00000000
00000000
F8000F80
F8000F80
F8000F80
F8000F80
F8000F80
F8000F80
F8000F80
F8000F80
F8000F80
F8000F80
F8000F80
F8000F80
F8000F80
F8000F80
F8000F80
F8000F80
F8000F80
F8000F80
F8000F80
F8000F80
F8001F80
F8003F80
F8007F80
F800FF80
7C01FF80
7E07EF80
7FFFCF80
3FFF8F80
1FFE0F80
03F80F80
ENDCHAR
STARTCHAR 00FB
ENCODING 251
SWIDTH 630 0
DWIDTH 35 0
BBX 25 44 5 0
BITMAP
007F0000
00FF8000
00FF8000
01F7C000
03E3E000
07C1F000
0780F000
0F007800
1E003C00
00000000
00000000
00000000
00000000
00000000
F8000F80
F8000F80
F8000F80
F8000F80
F8000F80
F8000F80
F8000F80
F8000F80
F8000F80
F8000F80
F8000F80
F8000F80
F8000F80
F8000F80
F8000F80
F8000F80
F8000F80
F8000F80
F8000F80
F8000F80
F8001F80
F8003F80
F8007F80
F800FF80
7C01FF80
7E07EF80
7FFFCF80
3FFF8F80
1FFE0F80
03F80F80
ENDCHAR
STARTCHAR 00FC
ENCODING 252
SWIDTH 630 0
DWIDTH 35 0
BBX 25 40 5 0
BITMAP
07C0F800
07C0F800
07C0F800
07C0F800
07C0F800
00000000
00000000
00000000
00000000
00000000
F8000F80
F8000F80
F8000F80
F8000F80
F8000F80
F8000F80
F8000F80
F8000F80
F8000F80
F8000F80
F8000F80
F8000F80
F8000F80
F8000F80
F8000F80
F8000F80
F8000F80
F8000F80
F8000F80
F8000F80
F8001F80
F8003F80
F8007F80
F800FF80
7C01FF80
7E07EF80
7FFFCF80
3FFF8F80
1FFE0F80
03F80F80
ENDCHAR
STARTCHAR 00FD
ENCODING 253
SWIDTH 522 0
DWIDTH 29 0
BBX 29 55 0 -11
BITMAP
00007F00
00007E00
0000FC00
0001F800
0003F000
0003E000
0007C000
000F8000
001F0000
00000000
00000000
00000000
00000000
00000000
F80000F8
FC0001F8
7C0001F0
7C0003F0
3E0003E0
3E0003E0
3F0007E0
1F0007C0
1F000FC0
0F800F80
0F800F80
0FC01F80
07C01F00
07C03F00
03E03E00
03E07E00
03E07E00
01F07C00
01F0FC00
01F8F800
00F9F800
00F9F000
007DF000
007FF000
007FE000
003FE000
003FC000
001FC000
001FC000
001F8000
001F8000
001F0000
003F0000
003F0000
003E0000
007E0000
007C0000
00FC0000
00FC0000
01F80000
01F80000
ENDCHAR
STARTCHAR 00FE
ENCODING 254
SWIDTH 630 0
DWIDTH 35 0
BBX 27 55 5 -11
BITMAP
F8000000
F8000000
F8000000
F8000000
F8000000
F8000000
F8000000
F8000000
F8000000
F8000000
F8000000
F8000000
F8000000
F8000000
F80FE000
F87FF800
F8FFFE00
F9FFFF00
FBF07F00
FF801F80
FF000FC0
FE0007C0
FC0007C0
F80007E0
F80003E0
F80003E0
F80003E0
F80003E0
F80003E0
F80003E0
F80003E0
F80003E0
F80003E0
F80007C0
F80007C0
F80007C0
F8000F80
FE000F80
FF001F00
FFC07F00
FFFFFE00
F9FFFC00
F8FFF000
F83FC000
F8000000
F8000000
F8000000
F8000000
F8000000
F8000000
F8000000
F8000000
F8000000
F8000000
F8000000
ENDCHAR
STARTCHAR 00FF
ENCODING 255
SWIDTH 522 0
DWIDTH 29 0
BBX 29 51 0 -11
BITMAP
01F03E00
01F03E00
01F03E00
01F03E00
01F03E00
00000000
00000000
00000000
00000000
00000000
F80000F8
FC0001F8
7C0001F0
7C0003F0
3E0003E0
3E0003E0
3F0007E0
1F0007C0
1F000FC0
0F800F80
0F800F80
0FC01F80
07C01F00
07C03F00
03E03E00
03E07E00
03E07E00
01F07C00
01F0FC00
01F8F800
00F9F800
00F9F000
007DF000
007FF000
007FE000
003FE000
003FC000
001FC000
001FC000
001F8000
001F8000
001F0000
003F0000
003F0000
003E0000
007E0000
007C0000
00FC0000
00FC0000
01F80000
01F80000
ENDCHAR
STARTCHAR 0100
ENCODING 256
SWIDTH 702 0
DWIDTH 39 0
BBX 38 48 0 0
BITMAP
003FFFF000
003FFFF000
003FFFF000
003FFFF000
0000000000
0000000000
0000000000
0000780000
0000780000
0000FC0000
0000FC0000
0000FE0000
0001FE0000
0001FE0000
0003FF0000
0003DF0000
0007DF8000
00078F8000
00078FC000
000F07C000
000F07C000
001F07E000
001E03E000
003E03F000
003C01F000
003C01F800
007800F800
007800F800
00F800FC00
00F0007C00
01F0007E00
01E0003E00
01FFFFFE00
03FFFFFF00
03FFFFFF00
07FFFFFF80
0780000F80
0F80000FC0
0F000007C0
0F000007C0
1E000003E0
1E000003E0
3E000003F0
3C000001F0
7C000001F8
78000000F8
78000000F8
F0000000FC
ENDCHAR
STARTCHAR 0101
ENCODING 257
SWIDTH 558 0
DWIDTH 31 0
BBX 27 39 3 0
BITMAP
0FFFFC00
0FFFFC00
0FFFFC00
0FFFFC00
00000000
00000000
00000000
00000000
00000000
007F8000
03FFF000
0FFFF800
1FFFFC00
1F81FC00
1C007E00
10003E00
00003E00
00003E00
00003E00
00003E00
00003E00
001FFE00
01FFFE00
0FFFFE00
1FE03E00
3F003E00
7E003E00
7C003E00
F8003E00
F8003E00
F8003E00
F8003E00
FC007E00
FC00FE00
7F07FF00
7FFFDFE0
3FFF1FE0
0FFE0FE0
03F007C0
ENDCHAR
STARTCHAR 0102
ENCODING 258
SWIDTH 702 0
DWIDTH 39 0
BBX 38 53 0 0
BITMAP
0038007000
0038007000
003C00F000
001E01E000
001F03E000
000FFFC000
0007FF8000
0003FF0000
0000FC0000
0000000000
0000000000
0000000000
0000780000
0000780000
0000FC0000
0000FC0000
0000FE0000
0001FE0000
0001FE0000
0003FF0000
0003DF0000
0007DF8000
00078F8000
00078FC000
000F07C000
000F07C000
001F07E000
001E03E000
003E03F000
003C01F000
003C01F800
007800F800
007800F800
00F800FC00
00F0007C00
01F0007E00
01E0003E00
01FFFFFE00
03FFFFFF00
03FFFFFF00
07FFFFFF80
0780000F80
0F80000FC0
0F000007C0
0F000007C0
1E000003E0
1E000003E0
3E000003F0
3C000001F0
7C000001F8
78000000F8
78000000F8
F0000000FC
ENDCHAR
STARTCHAR 0103
ENCODING 259
SWIDTH 558 0
DWIDTH 31 0
BBX 27 44 3 0
BITMAP
07000E00
07000E00
07801E00
03C03C00
03E07C00
01FFF800
00FFF000
007FE000
001F8000
00000000
00000000
00000000
00000000
00000000
007F8000
03FFF000
0FFFF800
1FFFFC00
1F81FC00
1C007E00
10003E00
00003E00
00003E00
00003E00
00003E00
00003E00
001FFE00
01FFFE00
0FFFFE00
1FE03E00
3F003E00
7E003E00
7C003E00
F8003E00
F8003E00
F8003E00
F8003E00
FC007E00
FC00FE00
7F07FF00
7FFFDFE0
3FFF1FE0
0FFE0FE0
03F007C0
ENDCHAR
STARTCHAR 0104
ENCODING 260
SWIDTH 702 0
DWIDTH 39 0
BBX 38 51 0 -10
BITMAP
0000780000
0000780000
0000FC0000
0000FC0000
0000FE0000
0001FE0000
0001FE0000
0003FF0000
0003DF0000
0007DF8000
00078F8000
00078FC000
000F07C000
000F07C000
001F07E000
001E03E000
003E03F000
003C01F000
003C01F800
007800F800
007800F800
00F800FC00
00F0007C00
01F0007E00
01E0003E00
01FFFFFE00
03FFFFFF00
03FFFFFF00
07FFFFFF80
0780000F80
0F80000FC0
0F000007C0
0F000007C0
1E000003E0
1E000003E0
3E000003F0
3C000001F0
7C000001F8
78000000F8
78000000F8
F0000000FC
00000000E0
00000003C0
0000000780
0000000700
0000000F00
0000000F00
0000000F80
0000000FF8
00000007F8
00000003F0
ENDCHAR
STARTCHAR 0105
ENCODING 261
SWIDTH 558 0
DWIDTH 31 0
BBX 27 40 3 -10
BITMAP
007F8000
03FFF000
0FFFF800
1FFFFC00
1F81FC00
1C007E00
10003E00
00003E00
00003E00
00003E00
00003E00
00003E00
001FFE00
01FFFE00
0FFFFE00
1FE03E00
3F003E00
7E003E00
7C003E00
F8003E00
F8003E00
F8003E00
F8003E00
FC007E00
FC00FE00
7F07FF00
7FFFDFE0
3FFF1FE0
0FFE0FE0
03F007C0
00000700
00001E00
00003C00
00003800
00007800
00007800
00007C00
00007FC0
00003FC0
00001F80
ENDCHAR
STARTCHAR 0106
ENCODING 262
SWIDTH 702 0
DWIDTH 39 0
BBX 33 54 3 -1
BITMAP
000007F000
000007E000
00000FC000
00001F8000
00003F0000
00003E0000
00007C0000
0000F80000
0001F00000
0000000000
0000000000
0001FF8000
001FFFF800
007FFFFF00
00FFFFFF80
03FE00FF80
07F8000F80
0FE0000180
0FC0000000
1F80000000
1F00000000
3F00000000
3E00000000
7E00000000
7C00000000
7C00000000
7C00000000
F800000000
F800000000
F800000000
F800000000
F800000000
F800000000
F800000000
F800000000
F800000000
F800000000
F800000000
FC00000000
7C00000000
7C00000000
7E00000000
3E00000000
3F00000000
3F00000000
1F80000000
0FC0000080
0FE0000380
07F8000F80
03FF00FF80
01FFFFFF00
007FFFFC00
001FFFF000
0001FF8000
ENDCHAR
STARTCHAR 0107
ENCODING 263
SWIDTH 522 0
DWIDTH 29 0
BBX 23 44 3 0
BITMAP
0001FC
0001F8
0003F0
0007E0
000FC0
000F80
001F00
003E00
007C00
000000
000000
000000
000000
000000
003FF0
01FFFE
03FFFE
0FFFFE
1FF00E
1FC000
3F0000
7E0000
7E0000
7C0000
FC0000
F80000
F80000
F80000
F80000
F80000
F80000
F80000
F80000
7C0000
7C0000
7E0000
3E0000
3F0000
1F8002
0FF01E
07FFFE
03FFFE
00FFFC
003FC0
ENDCHAR
STARTCHAR 0108
ENCODING 264
SWIDTH 702 0
DWIDTH 39 0
BBX 33 54 3 -1
BITMAP
0000FE0000
0001FF0000
0001FF0000
0003EF8000
0007C7C000
000F83E000
000F01E000
001E00F000
003C007800
0000000000
0000000000
0001FF8000
001FFFF800
007FFFFF00
00FFFFFF80
03FE00FF80
07F8000F80
0FE0000180
0FC0000000
1F80000000
1F00000000
3F00000000
3E00000000
7E00000000
7C00000000
7C00000000
7C00000000
F800000000
F800000000
F800000000
F800000000
F800000000
F800000000
F800000000
F800000000
F800000000
F800000000
F800000000
FC00000000
7C00000000
7C00000000
7E00000000
3E00000000
3F00000000
3F00000000
1F80000000
0FC0000080
0FE0000380
07F8000F80
03FF00FF80
01FFFFFF00
007FFFFC00
001FFFF000
0001FF8000
ENDCHAR
STARTCHAR 0109
ENCODING 265
SWIDTH 522 0
DWIDTH 29 0
BBX 23 44 3 0
BITMAP
003F80
007FC0
007FC0
00FBE0
01F1F0
03E0F8
03C078
07803C
0F001E
000000
000000
000000
000000
000000
003FF0
01FFFE
03FFFE
0FFFFE
1FF00E
1FC000
3F0000
7E0000
7E0000
7C0000
FC0000
F80000
F80000
F80000
F80000
F80000
F80000
F80000
F80000
7C0000
7C0000
7E0000
3E0000
3F0000
1F8002
0FF01E
07FFFE
03FFFE
00FFFC
003FC0
ENDCHAR
STARTCHAR 010A
ENCODING 266
SWIDTH 702 0
DWIDTH 39 0
BBX 33 50 3 -1
BITMAP
00007C0000
00007C0000
00007C0000
00007C0000
00007C0000
0000000000
0000000000
0001FF8000
001FFFF800
007FFFFF00
00FFFFFF80
03FE00FF80
07F8000F80
0FE0000180
0FC0000000
1F80000000
1F00000000
3F00000000
3E00000000
7E00000000
7C00000000
7C00000000
7C00000000
F800000000
F800000000
F800000000
F800000000
F800000000
F800000000
F800000000
F800000000
F800000000
F800000000
F800000000
FC00000000
7C00000000
7C00000000
7E00000000
3E00000000
3F00000000
3F00000000
1F80000000
0FC0000080
0FE0000380
07F8000F80
03FF00FF80
01FFFFFF00
007FFFFC00
001FFFF000
0001FF8000
ENDCHAR
STARTCHAR 010B
ENCODING 267
SWIDTH 522 0
DWIDTH 29 0
BBX 23 40 3 0
BITMAP
000F80
000F80
000F80
000F80
000F80
000000
000000
000000
000000
000000
003FF0
01FFFE
03FFFE
0FFFFE
1FF00E
1FC000
3F0000
7E0000
7E0000
7C0000
FC0000
F80000
F80000
F80000
F80000
F80000
F80000
F80000
F80000
7C0000
7C0000
7E0000
3E0000
3F0000
1F8002
0FF01E
07FFFE
03FFFE
00FFFC
003FC0
ENDCHAR
STARTCHAR 010C
ENCODING 268
SWIDTH 702 0
DWIDTH 39 0
BBX 33 54 3 -1
BITMAP
003C007800
001E00F000
000F01E000
000F83E000
0007C7C000
0003EF8000
0001FF0000
0001FF0000
0000FE0000
0000000000
0000000000
0001FF8000
001FFFF800
007FFFFF00
00FFFFFF80
03FE00FF80
07F8000F80
0FE0000180
0FC0000000
1F80000000
1F00000000
3F00000000
3E00000000
7E00000000
7C00000000
7C00000000
7C00000000
F800000000
F800000000
F800000000
F800000000
F800000000
F800000000
F800000000
F800000000
F800000000
F800000000
F800000000
FC00000000
7C00000000
7C00000000
7E00000000
3E00000000
3F00000000
3F00000000
1F80000000
0FC0000080
0FE0000380
07F8000F80
03FF00FF80
01FFFFFF00
007FFFFC00
001FFFF000
0001FF8000
ENDCHAR
STARTCHAR 010D
ENCODING 269
SWIDTH 522 0
DWIDTH 29 0
BBX 24 44 3 0
BITMAP
07800F
03C01E
01E03C
01F07C
00F8F8
007DF0
003FE0
003FE0
001FC0
000000
000000
000000
000000
000000
003FF0
01FFFE
03FFFE
0FFFFE
1FF00E
1FC000
3F0000
7E0000
7E0000
7C0000
FC0000
F80000
F80000
F80000
F80000
F80000
F80000
F80000
F80000
7C0000
7C0000
7E0000
3E0000
3F0000
1F8002
0FF01E
07FFFE
03FFFE
00FFFC
003FC0
ENDCHAR
STARTCHAR 010E
ENCODING 270
SWIDTH 756 0
DWIDTH 42 0
BBX 34 53 5 0
BITMAP
03C0078000
01E00F0000
00F01E0000
00F83E0000
007C7C0000
003EF80000
001FF00000
001FF00000
000FE00000
0000000000
0000000000
0000000000
FFFFF00000
FFFFFF0000
FFFFFFC000
FFFFFFE000
F8003FF000
F80007F800
F80001FC00
F80000FE00
F800007E00
F800003F00
F800001F00
F800001F80
F800000F80
F800000F80
F800000FC0
F8000007C0
F8000007C0
F8000007C0
F8000007C0
F8000007C0
F8000007C0
F8000007C0
F8000007C0
F8000007C0
F8000007C0
F800000F80
F800000F80
F800000F80
F800000F80
F800001F00
F800001F00
F800003E00
F800007E00
F80000FC00
F80001F800
F80007F800
F8003FE000
FFFFFFC000
FFFFFF8000
FFFFFC0000
FFFFE00000
ENDCHAR
STARTCHAR 010F
ENCODING 271
SWIDTH 720 0
DWIDTH 40 0
BBX 37 44 3 0
BITMAP
000003E0F8
000003E0F8
000003E0F8
000003E0F8
000003E0F8
000003E038
000003E038
000003E038
000003E030
000003E070
000003E0E0
000003E0C0
000003E000
000003E000
007F83E000
01FFE3E000
07FFF3E000
0FFFFFE000
1FC0FFE000
1F001FE000
3E000FE000
3E0003E000
7C0003E000
7C0003E000
7C0003E000
F80003E000
F80003E000
F80003E000
F80003E000
F80003E000
F80003E000
F80003E000
F80003E000
F80003E000
FC0003E000
7C0003E000
7C0007E000
7E001FE000
3F003FE000
1FC0FBE000
1FFFFBE000
0FFFE3E000
03FFC3E000
00FF03E000
ENDCHAR
STARTCHAR 0110
ENCODING 272
SWIDTH 756 0
DWIDTH 42 0
BBX 40 41 -1 0
BITMAP
03FFFFC000
03FFFFFC00
03FFFFFF00
03FFFFFF80
03E000FFC0
03E0001FE0
03E00007F0
03E00003F8
03E00001F8
03E00000FC
03E000007C
03E000007E
03E000003E
03E000003E
03E000003F
03E000001F
03E000001F
03E000001F
FFFFF0001F
FFFFF0001F
FFFFF0001F
FFFFF0001F
03E000001F
03E000001F
03E000001F
03E000003E
03E000003E
03E000003E
03E000003E
03E000007C
03E000007C
03E00000F8
03E00001F8
03E00003F0
03E00007E0
03E0001FE0
03E000FF80
03FFFFFF00
03FFFFFE00
03FFFFF000
03FFFF8000
ENDCHAR
STARTCHAR 0111
ENCODING 273
SWIDTH 630 0
DWIDTH 35 0
BBX 32 44 3 0
BITMAP
000003E0
000003E0
000003E0
000003E0
000003E0
000003E0
0007FFFF
0007FFFF
0007FFFF
000003E0
000003E0
000003E0
000003E0
000003E0
007F83E0
01FFE3E0
07FFF3E0
0FFFFFE0
1FC07FE0
1F001FE0
3E0007E0
7E0003E0
7C0003E0
7C0003E0
7C0003E0
F80003E0
F80003E0
F80003E0
F80003E0
F80003E0
F80003E0
F80003E0
F80003E0
F80003E0
FC0003E0
7C0003E0
7C000FE0
7E001FE0
3F003FE0
1FC1FBE0
1FFFFBE0
0FFFE3E0
03FFC3E0
00FF03E0
ENDCHAR
STARTCHAR 0112
ENCODING 274
SWIDTH 540 0
DWIDTH 30 0
BBX 24 48 5 0
BITMAP
0FFFFC
0FFFFC
0FFFFC
0FFFFC
000000
000000
000000
FFFFFE
FFFFFE
FFFFFE
FFFFFE
F80000
F80000
F80000
F80000
F80000
F80000
F80000
F80000
F80000
F80000
F80000
F80000
F80000
F80000
FFFFF0
FFFFF0
FFFFF0
FFFFF0
F80000
F80000
F80000
F80000
F80000
F80000
F80000
F80000
F80000
F80000
F80000
F80000
F80000
F80000
F80000
FFFFFF
FFFFFF
FFFFFF
FFFFFF
ENDCHAR
STARTCHAR 0113
ENCODING 275
SWIDTH 558 0
DWIDTH 31 0
BBX 24 39 3 0
BITMAP
0FFFFC
0FFFFC
0FFFFC
0FFFFC
000000
000000
000000
000000
000000
007F00
01FFE0
07FFF0
0FFFF8
1FC1FC
1F007C
3E003E
7C003E
7C001E
7C001F
F8001F
F8001F
FFFFFF
FFFFFF
FFFFFF
FFFFFF
F80000
F80000
F80000
7C0000
7C0000
7E0000
3E0000
3F0000
1FC001
0FF01F
07FFFF
03FFFF
00FFFE
001FE0
ENDCHAR
STARTCHAR 0114
ENCODING 276
SWIDTH 540 0
DWIDTH 30 0
BBX 24 53 5 0
BITMAP
1C0038
1C0038
1E0078
0F00F0
0F81F0
07FFE0
03FFC0
01FF80
007E00
000000
000000
000000
FFFFFE
FFFFFE
FFFFFE
FFFFFE
F80000
F80000
F80000
F80000
F80000
F80000
F80000
F80000
F80000
F80000
F80000
F80000
F80000
F80000
FFFFF0
FFFFF0
FFFFF0
FFFFF0
F80000
F80000
F80000
F80000
F80000
F80000
F80000
F80000
F80000
F80000
F80000
F80000
F80000
F80000
F80000
FFFFFF
FFFFFF
FFFFFF
FFFFFF
ENDCHAR
STARTCHAR 0115
ENCODING 277
SWIDTH 558 0
DWIDTH 31 0
BBX 24 44 3 0
BITMAP
0E001C
0E001C
0F003C
078078
07C0F8
03FFF0
01FFE0
00FFC0
003F00
000000
000000
000000
000000
000000
007F00
01FFE0
07FFF0
0FFFF8
1FC1FC
1F007C
3E003E
7C003E
7C001E
7C001F
F8001F
F8001F
FFFFFF
FFFFFF
FFFFFF
FFFFFF
F80000
F80000
F80000
7C0000
7C0000
7E0000
3E0000
3F0000
1FC001
0FF01F
07FFFF
03FFFF
00FFFE
001FE0
ENDCHAR
STARTCHAR 0116
ENCODING 278
SWIDTH 540 0
DWIDTH 30 0
BBX 24 49 5 0
BITMAP
003E00
003E00
003E00
003E00
003E00
000000
000000
000000
FFFFFE
FFFFFE
FFFFFE
FFFFFE
F80000
F80000
F80000
F80000
F80000
F80000
F80000
F80000
F80000
F80000
F80000
F80000
F80000
F80000
FFFFF0
FFFFF0
FFFFF0
FFFFF0
F80000
F80000
F80000
F80000
F80000
F80000
F80000
F80000
F80000
F80000
F80000
F80000
F80000
F80000
F80000
FFFFFF
FFFFFF
FFFFFF
FFFFFF
ENDCHAR
STARTCHAR 0117
ENCODING 279
SWIDTH 558 0
DWIDTH 31 0
BBX 24 40 3 0
BITMAP
003E00
003E00
003E00
003E00
003E00
000000
000000
000000
000000
000000
007F00
01FFE0
07FFF0
0FFFF8
1FC1FC
1F007C
3E003E
7C003E
7C001E
7C001F
F8001F
F8001F
FFFFFF
FFFFFF
FFFFFF
FFFFFF
F80000
F80000
F80000
7C0000
7C0000
7E0000
3E0000
3F0000
1FC001
0FF01F
07FFFF
03FFFF
00FFFE
001FE0
ENDCHAR
STARTCHAR 0118
ENCODING 280
SWIDTH 540 0
DWIDTH 30 0
BBX 24 51 5 -10
BITMAP
FFFFFE
FFFFFE
FFFFFE
FFFFFE
F80000
F80000
F80000
F80000
F80000
F80000
F80000
F80000
F80000
F80000
F80000
F80000
F80000
F80000
FFFFF0
FFFFF0
FFFFF0
FFFFF0
F80000
F80000
F80000
F80000
F80000
F80000
F80000
F80000
F80000
F80000
F80000
F80000
F80000
F80000
F80000
FFFFFF
FFFFFF
FFFFFF
FFFFFF
000038
0000F0
0001E0
0001C0
0003C0
0003C0
0003E0
0003FE
0001FE
0000FC
ENDCHAR
STARTCHAR 0119
ENCODING 281
SWIDTH 558 0
DWIDTH 31 0
BBX 24 40 3 -10
BITMAP
007F00
01FFE0
07FFF0
0FFFF8
1FC1FC
1F007C
3E003E
7C003E
7C001E
7C001F
F8001F
F8001F
FFFFFF
FFFFFF
FFFFFF
FFFFFF
F80000
F80000
F80000
7C0000
7C0000
7E0000
3E0000
3F0000
1FC001
0FF01F
07FFFF
03FFFF
00FFFE
001FE0
0000E0
0003C0
000780
000700
000F00
000F00
000F80
000FF8
0007F8
0003F0
ENDCHAR
STARTCHAR 011A
ENCODING 282
SWIDTH 540 0
DWIDTH 30 0
BBX 24 53 5 0
BITMAP
1E003C
0F0078
0780F0
07C1F0
03E3E0
01F7C0
00FF80
00FF80
007F00
000000
000000
000000
FFFFFE
FFFFFE
FFFFFE
FFFFFE
F80000
F80000
F80000
F80000
F80000
F80000
F80000
F80000
F80000
F80000
F80000
F80000
F80000
F80000
FFFFF0
FFFFF0
FFFFF0
FFFFF0
F80000
F80000
F80000
F80000
F80000
F80000
F80000
F80000
F80000
F80000
F80000
F80000
F80000
F80000
F80000
FFFFFF
FFFFFF
FFFFFF
FFFFFF
ENDCHAR
STARTCHAR 011B
ENCODING 283
SWIDTH 558 0
DWIDTH 31 0
BBX 24 44 3 0
BITMAP
1E003C
0F0078
0780F0
07C1F0
03E3E0
01F7C0
00FF80
00FF80
007F00
000000
000000
000000
000000
000000
007F00
01FFE0
07FFF0
0FFFF8
1FC1FC
1F007C
3E003E
7C003E
7C001E
7C001F
F8001F
F8001F
FFFFFF
FFFFFF
FFFFFF
FFFFFF
F80000
F80000
F80000
7C0000
7C0000
7E0000
3E0000
3F0000
1FC001
0FF01F
07FFFF
03FFFF
00FFFE
001FE0
ENDCHAR
STARTCHAR 011C
ENCODING 284
SWIDTH 720 0
DWIDTH 40 0
BBX 32 54 3 -1
BITMAP
0000FE00
0001FF00
0001FF00
0003EF80
0007C7C0
000F83E0
000F01E0
001E00F0
003C0078
00000000
00000000
0003FF00
001FFFF0
007FFFFE
01FFFFFF
03FE01FF
07F0001F
0FE00001
0FC00000
1F800000
3F000000
3E000000
3E000000
7C000000
7C000000
7C000000
FC000000
F8000000
F8000000
F8000000
F8000000
F8000000
F8000000
F8000000
F8000000
F800001F
F800001F
F800001F
FC00001F
7C00001F
7C00001F
7E00001F
3E00001F
3F00001F
3F00001F
1F80001F
1FC0001F
0FE0001F
07F8001F
03FF007F
01FFFFFF
007FFFFF
001FFFFC
0003FF80
ENDCHAR
STARTCHAR 011D
ENCODING 285
SWIDTH 630 0
DWIDTH 35 0
BBX 27 55 3 -11
BITMAP
001FC000
003FE000
003FE000
007DF000
00F8F800
01F07C00
01E03C00
03C01E00
07800F00
00000000
00000000
00000000
00000000
00000000
003F83E0
01FFE3E0
07FFF3E0
0FFFFBE0
1FE07FE0
1F801FE0
3F0007E0
7E0003E0
7C0003E0
7C0003E0
FC0003E0
F80003E0
F80003E0
F80003E0
F80003E0
F80003E0
F80003E0
F80003E0
F80003E0
F80003E0
7C0003E0
7C0007E0
7E001FE0
3F003FE0
1FC0FBE0
1FFFFBE0
0FFFF3E0
03FFC3E0
00FF03E0
000003E0
000003C0
000007C0
000007C0
000007C0
00000F80
10001F80
3F00FF00
3FFFFE00
3FFFFC00
1FFFF000
01FF8000
ENDCHAR
STARTCHAR 011E
ENCODING 286
SWIDTH 720 0
DWIDTH 40 0
BBX 32 54 3 -1
BITMAP
00380070
00380070
003C00F0
001E01E0
001F03E0
000FFFC0
0007FF80
0003FF00
0000FC00
00000000
00000000
0003FF00
001FFFF0
007FFFFE
01FFFFFF
03FE01FF
07F0001F
0FE00001
0FC00000
1F800000
3F000000
3E000000
3E000000
7C000000
7C000000
7C000000
FC000000
F8000000
F8000000
F8000000
F8000000
F8000000
F8000000
F8000000
F8000000
F800001F
F800001F
F800001F
FC00001F
7C00001F
7C00001F
7E00001F
3E00001F
3F00001F
3F00001F
1F80001F
1FC0001F
0FE0001F
07F8001F
03FF007F
01FFFFFF
007FFFFF
001FFFFC
0003FF80
ENDCHAR
STARTCHAR 011F
ENCODING 287
SWIDTH 630 0
DWIDTH 35 0
BBX 27 55 3 -11
BITMAP
07000E00
07000E00
07801E00
03C03C00
03E07C00
01FFF800
00FFF000
007FE000
001F8000
00000000
00000000
00000000
00000000
00000000
003F83E0
01FFE3E0
07FFF3E0
0FFFFBE0
1FE07FE0
1F801FE0
3F0007E0
7E0003E0
7C0003E0
7C0003E0
FC0003E0
F80003E0
F80003E0
F80003E0
F80003E0
F80003E0
F80003E0
F80003E0
F80003E0
F80003E0
7C0003E0
7C0007E0
7E001FE0
3F003FE0
1FC0FBE0
1FFFFBE0
0FFFF3E0
03FFC3E0
00FF03E0
000003E0
000003C0
000007C0
000007C0
000007C0
00000F80
10001F80
3F00FF00
3FFFFE00
3FFFFC00
1FFFF000
01FF8000
ENDCHAR
STARTCHAR 0120
ENCODING 288
SWIDTH 720 0
DWIDTH 40 0
BBX 32 50 3 -1
BITMAP
00007C00
00007C00
00007C00
00007C00
00007C00
00000000
00000000
0003FF00
001FFFF0
007FFFFE
01FFFFFF
03FE01FF
07F0001F
0FE00001
0FC00000
1F800000
3F000000
3E000000
3E000000
7C000000
7C000000
7C000000
FC000000
F8000000
F8000000
F8000000
F8000000
F8000000
F8000000
F8000000
F8000000
F800001F
F800001F
F800001F
FC00001F
7C00001F
7C00001F
7E00001F
3E00001F
3F00001F
3F00001F
1F80001F
1FC0001F
0FE0001F
07F8001F
03FF007F
01FFFFFF
007FFFFF
001FFFFC
0003FF80
ENDCHAR
STARTCHAR 0121
ENCODING 289
SWIDTH 630 0
DWIDTH 35 0
BBX 27 51 3 -11
BITMAP
000F8000
000F8000
000F8000
000F8000
000F8000
00000000
00000000
00000000
00000000
00000000
003F83E0
01FFE3E0
07FFF3E0
0FFFFBE0
1FE07FE0
1F801FE0
3F0007E0
7E0003E0
7C0003E0
7C0003E0
FC0003E0
F80003E0
F80003E0
F80003E0
F80003E0
F80003E0
F80003E0
F80003E0
F80003E0
F80003E0
7C0003E0
7C0007E0
7E001FE0
3F003FE0
1FC0FBE0
1FFFFBE0
0FFFF3E0
03FFC3E0
00FF03E0
000003E0
000003C0
000007C0
000007C0
000007C0
00000F80
10001F80
3F00FF00
3FFFFE00
3FFFFC00
1FFFF000
01FF8000
ENDCHAR
STARTCHAR 0122
ENCODING 290
SWIDTH 720 0
DWIDTH 40 0
BBX 32 59 3 -17
BITMAP
0003FF00
001FFFF0
007FFFFE
01FFFFFF
03FE01FF
07F0001F
0FE00001
0FC00000
1F800000
3F000000
3E000000
3E000000
7C000000
7C000000
7C000000
FC000000
F8000000
F8000000
F8000000
F8000000
F8000000
F8000000
F8000000
F8000000
F800001F
F800001F
F800001F
FC00001F
7C00001F
7C00001F
7E00001F
3E00001F
3F00001F
3F00001F
1F80001F
1FC0001F
0FE0001F
07F8001F
03FF007F
01FFFFFF
007FFFFF
001FFFFC
0003FF80
00000000
00000000
00000000
00000000
00007C00
00007C00
00007C00
00007C00
00007C00
00001C00
00001C00
00001C00
00001800
00003800
00007000
00006000
ENDCHAR
STARTCHAR 0123
ENCODING 291
SWIDTH 630 0
DWIDTH 35 0
BBX 27 58 3 -11
BITMAP
00030000
00070000
000E0000
000C0000
001C0000
001C0000
001C0000
001F0000
001F0000
001F0000
001F0000
001F0000
00000000
00000000
00000000
00000000
00000000
003F83E0
01FFE3E0
07FFF3E0
0FFFFBE0
1FE07FE0
1F801FE0
3F0007E0
7E0003E0
7C0003E0
7C0003E0
FC0003E0
F80003E0
F80003E0
F80003E0
F80003E0
F80003E0
F80003E0
F80003E0
F80003E0
F80003E0
7C0003E0
7C0007E0
7E001FE0
3F003FE0
1FC0FBE0
1FFFFBE0
0FFFF3E0
03FFC3E0
00FF03E0
000003E0
000003C0
000007C0
000007C0
000007C0
00000F80
10001F80
3F00FF00
3FFFFE00
3FFFFC00
1FFFF000
01FF8000
ENDCHAR
STARTCHAR 0124
ENCODING 292
SWIDTH 738 0
DWIDTH 41 0
BBX 31 53 5 0
BITMAP
000FE000
001FF000
001FF000
003EF800
007C7C00
00F83E00
00F01E00
01E00F00
03C00780
00000000
00000000
00000000
F800003E
F800003E
F800003E
F800003E
F800003E
F800003E
F800003E
F800003E
F800003E
F800003E
F800003E
F800003E
F800003E
F800003E
F800003E
F800003E
F800003E
FFFFFFFE
FFFFFFFE
FFFFFFFE
FFFFFFFE
F800003E
F800003E
F800003E
F800003E
F800003E
F800003E
F800003E
F800003E
F800003E
F800003E
F800003E
F800003E
F800003E
F800003E
F800003E
F800003E
F800003E
F800003E
F800003E
F800003E
ENDCHAR
STARTCHAR 0125
ENCODING 293
SWIDTH 630 0
DWIDTH 35 0
BBX 25 55 5 0
BITMAP
007F0000
00FF8000
00FF8000
01F7C000
03E3E000
07C1F000
0780F000
0F007800
1E003C00
00000000
00000000
F8000000
F8000000
F8000000
F8000000
F8000000
F8000000
F8000000
F8000000
F8000000
F8000000
F8000000
F8000000
F8000000
F8000000
F80FE000
F83FF800
F8FFFE00
F9FFFE00
FBF03F00
FFC01F00
FF801F80
FF000F80
FE000F80
FC000F80
F8000F80
F8000F80
F8000F80
F8000F80
F8000F80
F8000F80
F8000F80
F8000F80
F8000F80
F8000F80
F8000F80
F8000F80
F8000F80
F8000F80
F8000F80
F8000F80
F8000F80
F8000F80
F8000F80
F8000F80
ENDCHAR
STARTCHAR 0126
ENCODING 294
SWIDTH 792 0
DWIDTH 44 0
BBX 40 41 2 0
BITMAP
07C00003E0
07C00003E0
07C00003E0
07C00003E0
07C00003E0
07C00003E0
07C00003E0
FFFFFFFFFF
FFFFFFFFFF
FFFFFFFFFF
07C00003E0
07C00003E0
07C00003E0
07C00003E0
07C00003E0
07C00003E0
07C00003E0
07FFFFFFE0
07FFFFFFE0
07FFFFFFE0
07FFFFFFE0
07C00003E0
07C00003E0
07C00003E0
07C00003E0
07C00003E0
07C00003E0
07C00003E0
07C00003E0
07C00003E0
07C00003E0
07C00003E0
07C00003E0
07C00003E0
07C00003E0
07C00003E0
07C00003E0
07C00003E0
07C00003E0
07C00003E0
07C00003E0
ENDCHAR
STARTCHAR 0127
ENCODING 295
SWIDTH 630 0
DWIDTH 35 0
BBX 30 44 0 0
BITMAP
07C00000
07C00000
07C00000
07C00000
07C00000
07C00000
FFFFE000
FFFFE000
FFFFE000
07C00000
07C00000
07C00000
07C00000
07C00000
07C07F00
07C1FFC0
07C7FFF0
07CFFFF0
07DF81F8
07FE00F8
07FC00FC
07F8007C
07F0007C
07E0007C
07C0007C
07C0007C
07C0007C
07C0007C
07C0007C
07C0007C
07C0007C
07C0007C
07C0007C
07C0007C
07C0007C
07C0007C
07C0007C
07C0007C
07C0007C
07C0007C
07C0007C
07C0007C
07C0007C
07C0007C
ENDCHAR
STARTCHAR 0128
ENCODING 296
SWIDTH 288 0
DWIDTH 16 0
BBX 18 50 -1 0
BITMAP
1F01C0
7FC1C0
7FE3C0
F1FF80
E0FF80
E03E00
000000
000000
000000
03E000
03E000
03E000
03E000
03E000
03E000
03E000
03E000
03E000
03E000
03E000
03E000
03E000
03E000
03E000
03E000
03E000
03E000
03E000
03E000
03E000
03E000
03E000
03E000
03E000
03E000
03E000
03E000
03E000
03E000
03E000
03E000
03E000
03E000
03E000
03E000
03E000
03E000
03E000
03E000
03E000
ENDCHAR
STARTCHAR 0129
ENCODING 297
SWIDTH 288 0
DWIDTH 16 0
BBX 18 41 -1 0
BITMAP
1F01C0
7FC1C0
7FE3C0
F1FF80
E0FF80
E03E00
000000
000000
000000
000000
000000
03E000
03E000
03E000
03E000
03E000
03E000
03E000
03E000
03E000
03E000
03E000
03E000
03E000
03E000
03E000
03E000
03E000
03E000
03E000
03E000
03E000
03E000
03E000
03E000
03E000
03E000
03E000
03E000
03E000
03E000
ENDCHAR
STARTCHAR 012A
ENCODING 298
SWIDTH 288 0
DWIDTH 16 0
BBX 18 48 -1 0
BITMAP
FFFFC0
FFFFC0
FFFFC0
FFFFC0
000000
000000
000000
03E000
03E000
03E000
03E000
03E000
03E000
03E000
03E000
03E000
03E000
03E000
03E000
03E000
03E000
03E000
03E000
03E000
03E000
03E000
03E000
03E000
03E000
03E000
03E000
03E000
03E000
03E000
03E000
03E000
03E000
03E000
03E000
03E000
03E000
03E000
03E000
03E000
03E000
03E000
03E000
03E000
ENDCHAR
STARTCHAR 012B
ENCODING 299
SWIDTH 288 0
DWIDTH 16 0
BBX 18 39 -1 0
BITMAP
FFFFC0
FFFFC0
FFFFC0
FFFFC0
000000
000000
000000
000000
000000
03E000
03E000
03E000
03E000
03E000
03E000
03E000
03E000
03E000
03E000
03E000
03E000
03E000
03E000
03E000
03E000
03E000
03E000
03E000
03E000
03E000
03E000
03E000
03E000
03E000
03E000
03E000
03E000
03E000
03E000
ENDCHAR
STARTCHAR 012C
ENCODING 300
SWIDTH 288 0
DWIDTH 16 0
BBX 18 53 -1 0
BITMAP
E001C0
E001C0
F003C0
780780
7C0F80
3FFF00
1FFE00
0FFC00
03F000
000000
000000
000000
03E000
03E000
03E000
03E000
03E000
03E000
03E000
03E000
03E000
03E000
03E000
03E000
03E000
03E000
03E000
03E000
03E000
03E000
03E000
03E000
03E000
03E000
03E000
03E000
03E000
03E000
03E000
03E000
03E000
03E000
03E000
03E000
03E000
03E000
03E000
03E000
03E000
03E000
03E000
03E000
03E000
ENDCHAR
STARTCHAR 012D
ENCODING 301
SWIDTH 288 0
DWIDTH 16 0
BBX 18 44 -1 0
BITMAP
E001C0
E001C0
F003C0
780780
7C0F80
3FFF00
1FFE00
0FFC00
03F000
000000
000000
000000
000000
000000
03E000
03E000
03E000
03E000
03E000
03E000
03E000
03E000
03E000
03E000
03E000
03E000
03E000
03E000
03E000
03E000
03E000
03E000
03E000
03E000
03E000
03E000
03E000
03E000
03E000
03E000
03E000
03E000
03E000
03E000
ENDCHAR
STARTCHAR 012E
ENCODING 302
SWIDTH 288 0
DWIDTH 16 0
BBX 9 51 3 -10
BITMAP
3E00
3E00
3E00
3E00
3E00
3E00
3E00
3E00
3E00
3E00
3E00
3E00
3E00
3E00
3E00
3E00
3E00
3E00
3E00
3E00
3E00
3E00
3E00
3E00
3E00
3E00
3E00
3E00
3E00
3E00
3E00
3E00
3E00
3E00
3E00
3E00
3E00
3E00
3E00
3E00
3E00
0E00
3C00
7800
7000
F000
F000
F800
FF80
7F80
3F00
ENDCHAR
STARTCHAR 012F
ENCODING 303
SWIDTH 288 0
DWIDTH 16 0
BBX 9 51 3 -10
BITMAP
3E00
3E00
3E00
3E00
3E00
0000
0000
0000
0000
0000
0000
3E00
3E00
3E00
3E00
3E00
3E00
3E00
3E00
3E00
3E00
3E00
3E00
3E00
3E00
3E00
3E00
3E00
3E00
3E00
3E00
3E00
3E00
3E00
3E00
3E00
3E00
3E00
3E00
3E00
3E00
0E00
3C00
7800
7000
F000
F000
F800
FF80
7F80
3F00
ENDCHAR
STARTCHAR 0130
ENCODING 304
SWIDTH 288 0
DWIDTH 16 0
BBX 5 49 5 0
BITMAP
F8
F8
F8
F8
F8
00
00
00
F8
F8
F8
F8
F8
F8
F8
F8
F8
F8
F8
F8
F8
F8
F8
F8
F8
F8
F8
F8
F8
F8
F8
F8
F8
F8
F8
F8
F8
F8
F8
F8
F8
F8
F8
F8
F8
F8
F8
F8
F8
ENDCHAR
STARTCHAR 0131
ENCODING 305
SWIDTH 288 0
DWIDTH 16 0
BBX 5 30 5 0
BITMAP
F8
F8
F8
F8
F8
F8
F8
F8
F8
F8
F8
F8
F8
F8
F8
F8
F8
F8
F8
F8
F8
F8
F8
F8
F8
F8
F8
F8
F8
F8
ENDCHAR
STARTCHAR 0132
ENCODING 306
SWIDTH 594 0
DWIDTH 33 0
BBX 23 49 5 -8
BITMAP
F8003E
F8003E
F8003E
F8003E
F8003E
F8003E
F8003E
F8003E
F8003E
F8003E
F8003E
F8003E
F8003E
F8003E
F8003E
F8003E
F8003E
F8003E
F8003E
F8003E
F8003E
F8003E
F8003E
F8003E
F8003E
F8003E
F8003E
F8003E
F8003E
F8003E
F8003E
F8003E
F8003E
F8003E
F8003E
F8003E
F8003E
F8003E
F8003E
F8003E
F8003E
00007C
00007C
0000F8
0301F8
03FFF0
03FFE0
03FFC0
00FE00
ENDCHAR
STARTCHAR 0133
ENCODING 307
SWIDTH 576 0
DWIDTH 32 0
BBX 21 52 5 -11
BITMAP
F800F8
F800F8
F800F8
F800F8
F800F8
000000
000000
000000
000000
000000
000000
F800F8
F800F8
F800F8
F800F8
F800F8
F800F8
F800F8
F800F8
F800F8
F800F8
F800F8
F800F8
F800F8
F800F8
F800F8
F800F8
F800F8
F800F8
F800F8
F800F8
F800F8
F800F8
F800F8
F800F8
F800F8
F800F8
F800F8
F800F8
F800F8
F800F8
0000F8
0000F8
0000F8
0000F8
0001F0
0201F0
0383F0
03FFE0
03FFC0
01FF80
007E00
ENDCHAR
STARTCHAR 0134
ENCODING 308
SWIDTH 306 0
DWIDTH 17 0
BBX 24 61 -5 -8
BITMAP
001FC0
003FE0
003FE0
007DF0
00F8F8
01F07C
01E03C
03C01E
07800F
000000
000000
000000
000F80
000F80
000F80
000F80
000F80
000F80
000F80
000F80
000F80
000F80
000F80
000F80
000F80
000F80
000F80
000F80
000F80
000F80
000F80
000F80
000F80
000F80
000F80
000F80
000F80
000F80
000F80
000F80
000F80
000F80
000F80
000F80
000F80
000F80
000F80
000F80
000F80
000F80
000F80
000F80
000F80
001F00
001F00
003E00
C07E00
FFFC00
FFF800
FFF000
3F8000
ENDCHAR
STARTCHAR 0135
ENCODING 309
SWIDTH 306 0
DWIDTH 17 0
BBX 22 55 -3 -11
BITMAP
007F00
00FF80
00FF80
01F7C0
03E3E0
07C1F0
0780F0
0F0078
1E003C
000000
000000
000000
000000
000000
003E00
003E00
003E00
003E00
003E00
003E00
003E00
003E00
003E00
003E00
003E00
003E00
003E00
003E00
003E00
003E00
003E00
003E00
003E00
003E00
003E00
003E00
003E00
003E00
003E00
003E00
003E00
003E00
003E00
003E00
003E00
003E00
003E00
003E00
007C00
807C00
E0FC00
FFF800
FFF000
7FE000
1F8000
ENDCHAR
STARTCHAR 0136
ENCODING 310
SWIDTH 666 0
DWIDTH 37 0
BBX 31 58 5 -17
BITMAP
F80001F0
F80003E0
F80007C0
F8000F80
F8001F00
F8003E00
F8007C00
F800F800
F800F800
F801F000
F803E000
F807C000
F80F8000
F81F0000
F83E0000
F87C0000
F8F80000
F9F00000
F9E00000
FBE00000
FFE00000
FBF00000
F9F80000
F8FC0000
F87E0000
F83F0000
F81F8000
F80FC000
F807E000
F803F000
F801F800
F800FC00
F8007E00
F8003F00
F8001F80
F8000FC0
F80007E0
F80007F0
F80003F8
F80001FC
F80000FE
00000000
00000000
00000000
00000000
00000000
001F0000
001F0000
001F0000
001F0000
001F0000
00070000
00070000
00070000
00060000
000E0000
001C0000
00180000
ENDCHAR
STARTCHAR 0137
ENCODING 311
SWIDTH 594 0
DWIDTH 33 0
BBX 27 61 5 -17
BITMAP
F8000000
F8000000
F8000000
F8000000
F8000000
F8000000
F8000000
F8000000
F8000000
F8000000
F8000000
F8000000
F8000000
F8000000
F8003F80
F8007F00
F800FE00
F801FC00
F803F800
F803F000
F807E000
F80FC000
F81F8000
F83F0000
F87E0000
F8FC0000
F9FC0000
FBF80000
FFF00000
FBF00000
F9F80000
F8FC0000
F87F0000
F83F8000
F81FC000
F80FE000
F807F000
F803F800
F801FC00
F800FE00
F8007F00
F8003F80
F8001FC0
F8000FE0
00000000
00000000
00000000
00000000
00000000
003E0000
003E0000
003E0000
003E0000
003E0000
000E0000
000E0000
000E0000
000C0000
001C0000
00380000
00300000
ENDCHAR
STARTCHAR 0138
ENCODING 312
SWIDTH 594 0
DWIDTH 33 0
BBX 27 30 5 0
BITMAP
F8003F80
F8007F00
F800FE00
F801FC00
F803F800
F803F000
F807E000
F80FC000
F81F8000
F83F0000
F87E0000
F8FC0000
F9FC0000
FBF80000
FFF00000
FBF00000
F9F80000
F8FC0000
F87F0000
F83F8000
F81FC000
F80FE000
F807F000
F803F800
F801FC00
F800FE00
F8007F00
F8003F80
F8001FC0
F8000FE0
ENDCHAR
STARTCHAR 0139
ENCODING 313
SWIDTH 540 0
DWIDTH 30 0
BBX 24 53 5 0
BITMAP
03F800
03F000
07E000
0FC000
1F8000
1F0000
3E0000
7C0000
F80000
000000
000000
000000
F80000
F80000
F80000
F80000
F80000
F80000
F80000
F80000
F80000
F80000
F80000
F80000
F80000
F80000
F80000
F80000
F80000
F80000
F80000
F80000
F80000
F80000
F80000
F80000
F80000
F80000
F80000
F80000
F80000
F80000
F80000
F80000
F80000
F80000
F80000
F80000
F80000
FFFFFF
FFFFFF
FFFFFF
FFFFFF
ENDCHAR
STARTCHAR 013A
ENCODING 314
SWIDTH 288 0
DWIDTH 16 0
BBX 13 55 4 0
BITMAP
03F8
03F0
07E0
0FC0
1F80
1F00
3E00
7C00
F800
0000
0000
7C00
7C00
7C00
7C00
7C00
7C00
7C00
7C00
7C00
7C00
7C00
7C00
7C00
7C00
7C00
7C00
7C00
7C00
7C00
7C00
7C00
7C00
7C00
7C00
7C00
7C00
7C00
7C00
7C00
7C00
7C00
7C00
7C00
7C00
7C00
7C00
7C00
7C00
7C00
7C00
7C00
7C00
7C00
7C00
ENDCHAR
STARTCHAR 013B
ENCODING 315
SWIDTH 540 0
DWIDTH 30 0
BBX 24 58 5 -17
BITMAP
F80000
F80000
F80000
F80000
F80000
F80000
F80000
F80000
F80000
F80000
F80000
F80000
F80000
F80000
F80000
F80000
F80000
F80000
F80000
F80000
F80000
F80000
F80000
F80000
F80000
F80000
F80000
F80000
F80000
F80000
F80000
F80000
F80000
F80000
F80000
F80000
F80000
FFFFFF
FFFFFF
FFFFFF
FFFFFF
000000
000000
000000
000000
000000
007C00
007C00
007C00
007C00
007C00
001C00
001C00
001C00
001800
003800
007000
006000
ENDCHAR
STARTCHAR 013C
ENCODING 316
SWIDTH 288 0
DWIDTH 16 0
BBX 5 61 5 -17
BITMAP
F8
F8
F8
F8
F8
F8
F8
F8
F8
F8
F8
F8
F8
F8
F8
F8
F8
F8
F8
F8
F8
F8
F8
F8
F8
F8
F8
F8
F8
F8
F8
F8
F8
F8
F8
F8
F8
F8
F8
F8
F8
F8
F8
F8
00
00
00
00
00
F8
F8
F8
F8
F8
38
38
38
30
70
E0
C0
ENDCHAR
STARTCHAR 013D
ENCODING 317
SWIDTH 540 0
DWIDTH 30 0
BBX 24 41 5 0
BITMAP
F807C0
F807C0
F807C0
F807C0
F807C0
F801C0
F801C0
F801C0
F801C0
F80380
F80780
F80700
F80000
F80000
F80000
F80000
F80000
F80000
F80000
F80000
F80000
F80000
F80000
F80000
F80000
F80000
F80000
F80000
F80000
F80000
F80000
F80000
F80000
F80000
F80000
F80000
F80000
FFFFFF
FFFFFF
FFFFFF
FFFFFF
ENDCHAR
STARTCHAR 013E
ENCODING 318
SWIDTH 378 0
DWIDTH 21 0
BBX 15 44 5 0
BITMAP
F83E
F83E
F83E
F83E
F83E
F80E
F80E
F80E
F80E
F81C
F83C
F838
F800
F800
F800
F800
F800
F800
F800
F800
F800
F800
F800
F800
F800
F800
F800
F800
F800
F800
F800
F800
F800
F800
F800
F800
F800
F800
F800
F800
F800
F800
F800
F800
ENDCHAR
STARTCHAR 013F
ENCODING 319
SWIDTH 540 0
DWIDTH 30 0
BBX 24 41 5 0
BITMAP
F80000
F80000
F80000
F80000
F80000
F80000
F80000
F80000
F80000
F80000
F80000
F80000
F80000
F80000
F80000
F80000
F80000
F80000
F80000
F800F8
F800F8
F800F8
F800F8
F800F8
F80000
F80000
F80000
F80000
F80000
F80000
F80000
F80000
F80000
F80000
F80000
F80000
F80000
FFFFFF
FFFFFF
FFFFFF
FFFFFF
ENDCHAR
STARTCHAR 0140
ENCODING 320
SWIDTH 396 0
DWIDTH 22 0
BBX 17 44 5 0
BITMAP
F80000
F80000
F80000
F80000
F80000
F80000
F80000
F80000
F80000
F80000
F80000
F80000
F80000
F80000
F80000
F80000
F80000
F80000
F80000
F80F80
F80F80
F80F80
F80F80
F80F80
F80000
F80000
F80000
F80000
F80000
F80000
F80000
F80000
F80000
F80000
F80000
F80000
F80000
F80000
F80000
F80000
F80000
F80000
F80000
F80000
ENDCHAR
STARTCHAR 0141
ENCODING 321
SWIDTH 558 0
DWIDTH 31 0
BBX 29 41 1 0
BITMAP
07C00000
07C00000
07C00000
07C00000
07C00000
07C00000
07C00000
07C00000
07C00000
07C00000
07C08000
07C18000
07C78000
07DF8000
07FF8000
07FE0000
07FC0000
07F00000
1FE00000
3FC00000
FFC00000
FFC00000
F7C00000
C7C00000
87C00000
07C00000
07C00000
07C00000
07C00000
07C00000
07C00000
07C00000
07C00000
07C00000
07C00000
07C00000
07C00000
07FFFFF8
07FFFFF8
07FFFFF8
07FFFFF8
ENDCHAR
STARTCHAR 0142
ENCODING 322
SWIDTH 324 0
DWIDTH 18 0
BBX 17 44 1 0
BITMAP
03E000
03E000
03E000
03E000
03E000
03E000
03E000
03E000
03E000
03E000
03E000
03E000
03E000
03E080
03E380
03E780
03FF80
03FF80
03FE00
07F800
0FF000
3FE000
FFE000
FFE000
F3E000
E3E000
83E000
03E000
03E000
03E000
03E000
03E000
03E000
03E000
03E000
03E000
03E000
03E000
03E000
03E000
03E000
03E000
03E000
03E000
ENDCHAR
STARTCHAR 0143
ENCODING 323
SWIDTH 738 0
DWIDTH 41 0
BBX 31 53 5 0
BITMAP
00003F80
00003F00
00007E00
0000FC00
0001F800
0001F000
0003E000
0007C000
000F8000
00000000
00000000
00000000
F800001E
FC00001E
FC00001E
FE00001E
FF00001E
FF00001E
FF80001E
FFC0001E
F7C0001E
F7E0001E
F3F0001E
F1F0001E
F1F8001E
F0FC001E
F07C001E
F07E001E
F03F001E
F01F001E
F01F801E
F00FC01E
F007C01E
F007E01E
F003F01E
F001F01E
F001F81E
F000FC1E
F0007C1E
F0007E1E
F0003F1E
F0001F1E
F0001F9E
F0000FDE
F00007DE
F00007FE
F00003FE
F00001FE
F00001FE
F00000FE
F000007E
F000007E
F000003E
ENDCHAR
STARTCHAR 0144
ENCODING 324
SWIDTH 630 0
DWIDTH 35 0
BBX 25 44 5 0
BITMAP
0003F800
0003F000
0007E000
000FC000
001F8000
001F0000
003E0000
007C0000
00F80000
00000000
00000000
00000000
00000000
00000000
F80FE000
F83FF800
F8FFFE00
F9FFFE00
FBF03F00
FFC01F00
FF801F80
FF000F80
FE000F80
FC000F80
F8000F80
F8000F80
F8000F80
F8000F80
F8000F80
F8000F80
F8000F80
F8000F80
F8000F80
F8000F80
F8000F80
F8000F80
F8000F80
F8000F80
F8000F80
F8000F80
F8000F80
F8000F80
F8000F80
F8000F80
ENDCHAR
STARTCHAR 0145
ENCODING 325
SWIDTH 738 0
DWIDTH 41 0
BBX 31 58 5 -17
BITMAP
F800001E
FC00001E
FC00001E
FE00001E
FF00001E
FF00001E
FF80001E
FFC0001E
F7C0001E
F7E0001E
F3F0001E
F1F0001E
F1F8001E
F0FC001E
F07C001E
F07E001E
F03F001E
F01F001E
F01F801E
F00FC01E
F007C01E
F007E01E
F003F01E
F001F01E
F001F81E
F000FC1E
F0007C1E
F0007E1E
F0003F1E
F0001F1E
F0001F9E
F0000FDE
F00007DE
F00007FE
F00003FE
F00001FE
F00001FE
F00000FE
F000007E
F000007E
F000003E
00000000
00000000
00000000
00000000
00000000
0007C000
0007C000
0007C000
0007C000
0007C000
0001C000
0001C000
0001C000
00018000
00038000
00070000
00060000
ENDCHAR
STARTCHAR 0146
ENCODING 326
SWIDTH 630 0
DWIDTH 35 0
BBX 25 47 5 -17
BITMAP
F80FE000
F83FF800
F8FFFE00
F9FFFE00
FBF03F00
FFC01F00
FF801F80
FF000F80
FE000F80
FC000F80
F8000F80
F8000F80
F8000F80
F8000F80
F8000F80
F8000F80
F8000F80
F8000F80
F8000F80
F8000F80
F8000F80
F8000F80
F8000F80
F8000F80
F8000F80
F8000F80
F8000F80
F8000F80
F8000F80
F8000F80
00000000
00000000
00000000
00000000
00000000
003E0000
003E0000
003E0000
003E0000
003E0000
000E0000
000E0000
000E0000
000C0000
001C0000
00380000
00300000
ENDCHAR
STARTCHAR 0147
ENCODING 327
SWIDTH 738 0
DWIDTH 41 0
BBX 31 53 5 0
BITMAP
03C00780
01E00F00
00F01E00
00F83E00
007C7C00
003EF800
001FF000
001FF000
000FE000
00000000
00000000
00000000
F800001E
FC00001E
FC00001E
FE00001E
FF00001E
FF00001E
FF80001E
FFC0001E
F7C0001E
F7E0001E
F3F0001E
F1F0001E
F1F8001E
F0FC001E
F07C001E
F07E001E
F03F001E
F01F001E
F01F801E
F00FC01E
F007C01E
F007E01E
F003F01E
F001F01E
F001F81E
F000FC1E
F0007C1E
F0007E1E
F0003F1E
F0001F1E
F0001F9E
F0000FDE
F00007DE
F00007FE
F00003FE
F00001FE
F00001FE
F00000FE
F000007E
F000007E
F000003E
ENDCHAR
STARTCHAR 0148
ENCODING 328
SWIDTH 630 0
DWIDTH 35 0
BBX 25 44 5 0
BITMAP
1E003C00
0F007800
0780F000
07C1F000
03E3E000
01F7C000
00FF8000
00FF8000
007F0000
00000000
00000000
00000000
00000000
00000000
F80FE000
F83FF800
F8FFFE00
F9FFFE00
FBF03F00
FFC01F00
FF801F80
FF000F80
FE000F80
FC000F80
F8000F80
F8000F80
F8000F80
F8000F80
F8000F80
F8000F80
F8000F80
F8000F80
F8000F80
F8000F80
F8000F80
F8000F80
F8000F80
F8000F80
F8000F80
F8000F80
F8000F80
F8000F80
F8000F80
F8000F80
ENDCHAR
STARTCHAR 0149
ENCODING 329
SWIDTH 702 0
DWIDTH 39 0
BBX 34 44 0 0
BITMAP
F800000000
F800000000
F800000000
F800000000
F800000000
3800000000
3800000000
3800000000
3800000000
7000000000
F000000000
E000000000
0000000000
0000000000
007C07F000
007C1FFC00
007C7FFF00
007CFFFF00
007DF81F80
007FE00F80
007FC00FC0
007F8007C0
007F0007C0
007E0007C0
007C0007C0
007C0007C0
007C0007C0
007C0007C0
007C0007C0
007C0007C0
007C0007C0
007C0007C0
007C0007C0
007C0007C0
007C0007C0
007C0007C0
007C0007C0
007C0007C0
007C0007C0
007C0007C0
007C0007C0
007C0007C0
007C0007C0
007C0007C0
ENDCHAR
STARTCHAR 014A
ENCODING 330
SWIDTH 738 0
DWIDTH 41 0
BBX 31 52 5 -11
BITMAP
F800001E
FC00001E
FC00001E
FE00001E
FF00001E
FF00001E
FF80001E
FFC0001E
F7C0001E
F3E0001E
F3F0001E
F1F0001E
F1F8001E
F0FC001E
F07C001E
F07E001E
F03F001E
F01F001E
F01F801E
F00FC01E
F007C01E
F007E01E
F003F01E
F001F01E
F001F81E
F000FC1E
F0007C1E
F0007E1E
F0003F1E
F0001F1E
F0001F9E
F0000FDE
F00007DE
F00007FE
F00003FE
F00001FE
F00001FE
F00000FE
F000007E
F000007E
F000003E
0000001E
0000001E
0000001E
0000001E
0000003E
0000003E
0000207C
00003FFC
00003FF8
00003FF0
00001F80
ENDCHAR
STARTCHAR 014B
ENCODING 331
SWIDTH 630 0
DWIDTH 35 0
BBX 25 41 5 -11
BITMAP
F80FE000
F83FF800
F8FFFE00
F9FFFE00
FBF03F00
FFC01F00
FF801F80
FF000F80
FE000F80
FC000F80
F8000F80
F8000F80
F8000F80
F8000F80
F8000F80
F8000F80
F8000F80
F8000F80
F8000F80
F8000F80
F8000F80
F8000F80
F8000F80
F8000F80
F8000F80
F8000F80
F8000F80
F8000F80
F8000F80
F8000F80
00000F80
00000F80
00000F80
00000F80
00001F80
00001F80
00083F00
000FFF00
000FFE00
000FFC00
0007F000
ENDCHAR
STARTCHAR 014C
ENCODING 332
SWIDTH 792 0
DWIDTH 44 0
BBX 38 49 3 -1
BITMAP
003FFFF000
003FFFF000
003FFFF000
003FFFF000
0000000000
0000000000
0003FF0000
001FFFE000
007FFFF800
00FFFFFC00
01FE01FE00
07F0007F00
07E0001F80
0FC0000FC0
1F800007E0
1F000003E0
3E000001F0
3E000001F0
7C000000F8
7C000000F8
7C000000F8
7C000000F8
F80000007C
F80000007C
F80000007C
F80000007C
F80000007C
F80000007C
F80000007C
F80000007C
F80000007C
F80000007C
F80000007C
7C000000F8
7C000000F8
7C000000F8
7C000001F8
3E000001F0
3E000001F0
1F000003E0
1F800007E0
0FC0000FC0
07E0001F80
07F0003F80
03FE01FF00
00FFFFFC00
007FFFF800
001FFFE000
0003FF0000
ENDCHAR
STARTCHAR 014D
ENCODING 333
SWIDTH 612 0
DWIDTH 34 0
BBX 28 39 3 0
BITMAP
07FFFE00
07FFFE00
07FFFE00
07FFFE00
00000000
00000000
00000000
00000000
00000000
003FC000
01FFF800
07FFFC00
0FFFFF00
1FE07F80
1F801F80
3E0007C0
7E0007E0
7C0003E0
7C0003E0
F80003F0
F80001F0
F80001F0
F80001F0
F80001F0
F80001F0
F80001F0
F80001F0
F80001F0
F80003F0
7C0003E0
7C0003E0
7E0007E0
3E000FC0
1F801F80
1FC07F80
0FFFFF00
07FFFE00
01FFF800
003FC000
ENDCHAR
STARTCHAR 014E
ENCODING 334
SWIDTH 792 0
DWIDTH 44 0
BBX 38 54 3 -1
BITMAP
0038007000
0038007000
003C00F000
001E01E000
001F03E000
000FFFC000
0007FF8000
0003FF0000
0000FC0000
0000000000
0000000000
0003FF0000
001FFFE000
007FFFF800
00FFFFFC00
01FE01FE00
07F0007F00
07E0001F80
0FC0000FC0
1F800007E0
1F000003E0
3E000001F0
3E000001F0
7C000000F8
7C000000F8
7C000000F8
7C000000F8
F80000007C
F80000007C
F80000007C
F80000007C
F80000007C
F80000007C
F80000007C
F80000007C
F80000007C
F80000007C
F80000007C
7C000000F8
7C000000F8
7C000000F8
7C000001F8
3E000001F0
3E000001F0
1F000003E0
1F800007E0
0FC0000FC0
07E0001F80
07F0003F80
03FE01FF00
00FFFFFC00
007FFFF800
001FFFE000
0003FF0000
ENDCHAR
STARTCHAR 014F
ENCODING 335
SWIDTH 612 0
DWIDTH 34 0
BBX 28 44 3 0
BITMAP
07000E00
07000E00
07801E00
03C03C00
03E07C00
01FFF800
00FFF000
007FE000
001F8000
00000000
00000000
00000000
00000000
00000000
003FC000
01FFF800
07FFFC00
0FFFFF00
1FE07F80
1F801F80
3E0007C0
7E0007E0
7C0003E0
7C0003E0
F80003F0
F80001F0
F80001F0
F80001F0
F80001F0
F80001F0
F80001F0
F80001F0
F80001F0
F80003F0
7C0003E0
7C0003E0
7E0007E0
3E000FC0
1F801F80
1FC07F80
0FFFFF00
07FFFE00
01FFF800
003FC000
ENDCHAR
STARTCHAR 0150
ENCODING 336
SWIDTH 792 0
DWIDTH 44 0
BBX 38 54 3 -1
BITMAP
00000F83E0
00001F07C0
00003E0F80
00007C1F00
0000F83E00
0000F03C00
0001E07800
0003C0F000
000781E000
0000000000
0000000000
0003FF0000
001FFFE000
007FFFF800
00FFFFFC00
01FE01FE00
07F0007F00
07E0001F80
0FC0000FC0
1F800007E0
1F000003E0
3E000001F0
3E000001F0
7C000000F8
7C000000F8
7C000000F8
7C000000F8
F80000007C
F80000007C
F80000007C
F80000007C
F80000007C
F80000007C
F80000007C
F80000007C
F80000007C
F80000007C
F80000007C
7C000000F8
7C000000F8
7C000000F8
7C000001F8
3E000001F0
3E000001F0
1F000003E0
1F800007E0
0FC0000FC0
07E0001F80
07F0003F80
03FE01FF00
00FFFFFC00
007FFFF800
001FFFE000
0003FF0000
ENDCHAR
STARTCHAR 0151
ENCODING 337
SWIDTH 612 0
DWIDTH 34 0
BBX 30 44 3 0
BITMAP
0001F07C
0003E0F8
0007C1F0
000F83E0
001F07C0
001E0780
003C0F00
00781E00
00F03C00
00000000
00000000
00000000
00000000
00000000
003FC000
01FFF800
07FFFC00
0FFFFF00
1FE07F80
1F801F80
3E0007C0
7E0007E0
7C0003E0
7C0003E0
F80003F0
F80001F0
F80001F0
F80001F0
F80001F0
F80001F0
F80001F0
F80001F0
F80001F0
F80003F0
7C0003E0
7C0003E0
7E0007E0
3E000FC0
1F801F80
1FC07F80
0FFFFF00
07FFFE00
01FFF800
003FC000
ENDCHAR
STARTCHAR 0152
ENCODING 338
SWIDTH 1008 0
DWIDTH 56 0
BBX 52 43 3 -1
BITMAP
0003FE00000000
001FFFCFFFFFE0
007FFFFFFFFFE0
00FFFFFFFFFFE0
03FE03FFFFFFE0
07F000FF800000
07E0007F800000
0FC0003F800000
1F80001F800000
1F00001F800000
3E00001F800000
3E00000F800000
7C00000F800000
7C00000F800000
7C00000F800000
7C00000F800000
F800000F800000
F800000F800000
F800000F800000
F800000FFFFF00
F800000FFFFF00
F800000FFFFF00
F800000FFFFF00
F800000F800000
F800000F800000
F800000F800000
F800000F800000
7C00000F800000
7C00000F800000
7C00000F800000
7C00000F800000
3E00001F800000
3E00001F800000
1F00001F800000
1F80003F800000
0FC0003F800000
07E0007F800000
07F000FF800000
03FE03FFFFFFF0
00FFFFFFFFFFF0
007FFFFFFFFFF0
001FFFCFFFFFF0
0003FE00000000
ENDCHAR
STARTCHAR 0153
ENCODING 339
SWIDTH 936 0
DWIDTH 52 0
BBX 45 30 3 0
BITMAP
003FC003F800
01FFF00FFF00
03FFFC1FFF80
0FFFFE3FFFC0
1FE07F7E07E0
1F801FFC03E0
3F000FF801F0
3E000FF001F0
7C0007F000F0
7C0007F000F0
FC0003E000F8
F80003E000F8
F80003FFFFF8
F80003FFFFF8
F80003FFFFF8
F80003FFFFF8
F80003E00000
F80003E00000
F80003E00000
FC0003F00000
7C0007F00000
7C0007F00000
3E000FF80000
3F000FFC0000
1F801FFE0008
1FE07F7F8078
0FFFFE3FFFF8
03FFFC1FFFF8
01FFF007FFF0
003FC000FF00
ENDCHAR
STARTCHAR 0154
ENCODING 340
SWIDTH 630 0
DWIDTH 35 0
BBX 29 53 5 0
BITMAP
0003F800
0003F000
0007E000
000FC000
001F8000
001F0000
003E0000
007C0000
00F80000
00000000
00000000
00000000
FFFF0000
FFFFE000
FFFFF800
FFFFFC00
F803FE00
F800FE00
F8003F00
F8003F00
F8001F00
F8001F00
F8001F00
F8001F00
F8001F00
F8003E00
F8003E00
F8007E00
F800FC00
F801F800
F80FF000
FFFFE000
FFFF8000
FFFF0000
FFFF0000
F80F8000
F80FC000
F807C000
F803E000
F803F000
F801F000
F800F800
F800FC00
F8007C00
F8003E00
F8003F00
F8001F80
F8000F80
F8000FC0
F80007E0
F80003E0
F80003F0
F80001F8
ENDCHAR
STARTCHAR 0155
ENCODING 341
SWIDTH 414 0
DWIDTH 23 0
BBX 17 44 5 0
BITMAP
003F80
003F00
007E00
00FC00
01F800
01F000
03E000
07C000
0F8000
000000
000000
000000
000000
000000
F80F80
F87F80
F8FF80
F9FF80
FBE000
FF8000
FF0000
FE0000
FC0000
F80000
F80000
F80000
F80000
F80000
F80000
F80000
F80000
F80000
F80000
F80000
F80000
F80000
F80000
F80000
F80000
F80000
F80000
F80000
F80000
F80000
ENDCHAR
STARTCHAR 0156
ENCODING 342
SWIDTH 630 0
DWIDTH 35 0
BBX 29 58 5 -17
BITMAP
FFFF0000
FFFFE000
FFFFF800
FFFFFC00
F803FE00
F800FE00
F8003F00
F8003F00
F8001F00
F8001F00
F8001F00
F8001F00
F8001F00
F8003E00
F8003E00
F8007E00
F800FC00
F801F800
F80FF000
FFFFE000
FFFF8000
FFFF0000
FFFF0000
F80F8000
F80FC000
F807C000
F803E000
F803F000
F801F000
F800F800
F800FC00
F8007C00
F8003E00
F8003F00
F8001F80
F8000F80
F8000FC0
F80007E0
F80003E0
F80003F0
F80001F8
00000000
00000000
00000000
00000000
00000000
001F0000
001F0000
001F0000
001F0000
001F0000
00070000
00070000
00070000
00060000
000E0000
001C0000
00180000
ENDCHAR
STARTCHAR 0157
ENCODING 343
SWIDTH 414 0
DWIDTH 23 0
BBX 17 47 5 -17
BITMAP
F80F80
F87F80
F8FF80
F9FF80
FBE000
FF8000
FF0000
FE0000
FC0000
F80000
F80000
F80000
F80000
F80000
F80000
F80000
F80000
F80000
F80000
F80000
F80000
F80000
F80000
F80000
F80000
F80000
F80000
F80000
F80000
F80000
000000
000000
000000
000000
000000
7C0000
7C0000
7C0000
7C0000
7C0000
1C0000
1C0000
1C0000
180000
380000
700000
600000
ENDCHAR
STARTCHAR 0158
ENCODING 344
SWIDTH 630 0
DWIDTH 35 0
BBX 29 53 5 0
BITMAP
3C007800
1E00F000
0F01E000
0F83E000
07C7C000
03EF8000
01FF0000
01FF0000
00FE0000
00000000
00000000
00000000
FFFF0000
FFFFE000
FFFFF800
FFFFFC00
F803FE00
F800FE00
F8003F00
F8003F00
F8001F00
F8001F00
F8001F00
F8001F00
F8001F00
F8003E00
F8003E00
F8007E00
F800FC00
F801F800
F80FF000
FFFFE000
FFFF8000
FFFF0000
FFFF0000
F80F8000
F80FC000
F807C000
F803E000
F803F000
F801F000
F800F800
F800FC00
F8007C00
F8003E00
F8003F00
F8001F80
F8000F80
F8000FC0
F80007E0
F80003E0
F80003F0
F80001F8
ENDCHAR
STARTCHAR 0159
ENCODING 345
SWIDTH 414 0
DWIDTH 23 0
BBX 19 44 4 0
BITMAP
F001E0
7803C0
3C0780
3E0F80
1F1F00
0FBE00
07FC00
07FC00
03F800
000000
000000
000000
000000
000000
7C07C0
7C3FC0
7C7FC0
7CFFC0
7DF000
7FC000
7F8000
7F0000
7E0000
7C0000
7C0000
7C0000
7C0000
7C0000
7C0000
7C0000
7C0000
7C0000
7C0000
7C0000
7C0000
7C0000
7C0000
7C0000
7C0000
7C0000
7C0000
7C0000
7C0000
7C0000
ENDCHAR
STARTCHAR 015A
ENCODING 346
SWIDTH 540 0
DWIDTH 30 0
BBX 24 54 3 -1
BITMAP
0001FC
0001F8
0003F0
0007E0
000FC0
000F80
001F00
003E00
007C00
000000
000000
00FF00
03FFE0
0FFFF8
1FFFFC
3F81FC
7E003C
7C0004
FC0000
F80000
F80000
F80000
F80000
FC0000
FC0000
7E0000
7F8000
3FC000
1FF000
0FFC00
07FE00
03FF80
00FFC0
007FF0
001FF8
0007FC
0001FC
0000FE
00007E
00003F
00003F
00001F
00001F
00001F
00001F
00001F
00003E
80007E
F000FC
FE01F8
FFFFF8
7FFFE0
1FFFC0
01FE00
ENDCHAR
STARTCHAR 015B
ENCODING 347
SWIDTH 522 0
DWIDTH 29 0
BBX 21 44 4 0
BITMAP
000FE0
000FC0
001F80
003F00
007E00
007C00
00F800
01F000
03E000
000000
000000
000000
000000
000000
01FF00
0FFFE0
1FFFE0
3FFFE0
7E00E0
FC0000
F80000
F80000
F80000
FC0000
FE0000
7F8000
3FF000
1FFC00
0FFF00
03FFC0
007FE0
001FF0
0003F0
0001F8
0000F8
0000F8
0000F8
8000F8
E001F0
FC07F0
FFFFE0
7FFFC0
1FFF00
03FC00
ENDCHAR
STARTCHAR 015C
ENCODING 348
SWIDTH 540 0
DWIDTH 30 0
BBX 24 54 3 -1
BITMAP
007F00
00FF80
00FF80
01F7C0
03E3E0
07C1F0
0780F0
0F0078
1E003C
000000
000000
00FF00
03FFE0
0FFFF8
1FFFFC
3F81FC
7E003C
7C0004
FC0000
F80000
F80000
F80000
F80000
FC0000
FC0000
7E0000
7F8000
3FC000
1FF000
0FFC00
07FE00
03FF80
00FFC0
007FF0
001FF8
0007FC
0001FC
0000FE
00007E
00003F
00003F
00001F
00001F
00001F
00001F
00001F
00003E
80007E
F000FC
FE01F8
FFFFF8
7FFFE0
1FFFC0
01FE00
ENDCHAR
STARTCHAR 015D
ENCODING 349
SWIDTH 522 0
DWIDTH 29 0
BBX 21 44 4 0
BITMAP
01FC00
03FE00
03FE00
07DF00
0F8F80
1F07C0
1E03C0
3C01E0
7800F0
000000
000000
000000
000000
000000
01FF00
0FFFE0
1FFFE0
3FFFE0
7E00E0
FC0000
F80000
F80000
F80000
FC0000
FE0000
7F8000
3FF000
1FFC00
0FFF00
03FFC0
007FE0
001FF0
0003F0
0001F8
0000F8
0000F8
0000F8
8000F8
E001F0
FC07F0
FFFFE0
7FFFC0
1FFF00
03FC00
ENDCHAR
STARTCHAR 015E
ENCODING 350
SWIDTH 540 0
DWIDTH 30 0
BBX 24 54 3 -12
BITMAP
00FF00
03FFE0
0FFFF8
1FFFFC
3F81FC
7E003C
7C0004
FC0000
F80000
F80000
F80000
F80000
FC0000
FC0000
7E0000
7F8000
3FC000
1FF000
0FFC00
07FE00
03FF80
00FFC0
007FF0
001FF8
0007FC
0001FC
0000FE
00007E
00003F
00003F
00001F
00001F
00001F
00001F
00001F
00003E
80007E
F000FC
FE01F8
FFFFF8
7FFFE0
1FFFC0
01FE00
003000
007000
007C00
00FF00
001F00
000780
000780
000780
010F00
01FF00
00FC00
ENDCHAR
STARTCHAR 015F
ENCODING 351
SWIDTH 522 0
DWIDTH 29 0
BBX 21 42 4 -12
BITMAP
01FF00
0FFFE0
1FFFE0
3FFFE0
7E00E0
FC0000
F80000
F80000
F80000
FC0000
FE0000
7F8000
3FF000
1FFC00
0FFF00
03FFC0
007FE0
001FF0
0003F0
0001F8
0000F8
0000F8
0000F8
8000F8
E001F0
FC07F0
FFFFE0
7FFFC0
1FFF00
03FC00
007000
006000
00E000
00F800
01FE00
003E00
000F00
000F00
000F00
021E00
03FE00
01F800
ENDCHAR
STARTCHAR 0160
ENCODING 352
SWIDTH 540 0
DWIDTH 30 0
BBX 24 54 3 -1
BITMAP
1E003C
0F0078
0780F0
07C1F0
03E3E0
01F7C0
00FF80
00FF80
007F00
000000
000000
00FF00
03FFE0
0FFFF8
1FFFFC
3F81FC
7E003C
7C0004
FC0000
F80000
F80000
F80000
F80000
FC0000
FC0000
7E0000
7F8000
3FC000
1FF000
0FFC00
07FE00
03FF80
00FFC0
007FF0
001FF8
0007FC
0001FC
0000FE
00007E
00003F
00003F
00001F
00001F
00001F
00001F
00001F
00003E
80007E
F000FC
FE01F8
FFFFF8
7FFFE0
1FFFC0
01FE00
ENDCHAR
STARTCHAR 0161
ENCODING 353
SWIDTH 522 0
DWIDTH 29 0
BBX 21 44 4 0
BITMAP
7800F0
3C01E0
1E03C0
1F07C0
0F8F80
07DF00
03FE00
03FE00
01FC00
000000
000000
000000
000000
000000
01FF00
0FFFE0
1FFFE0
3FFFE0
7E00E0
FC0000
F80000
F80000
F80000
FC0000
FE0000
7F8000
3FF000
1FFC00
0FFF00
03FFC0
007FE0
001FF0
0003F0
0001F8
0000F8
0000F8
0000F8
8000F8
E001F0
FC07F0
FFFFE0
7FFFC0
1FFF00
03FC00
ENDCHAR
STARTCHAR 0162
ENCODING 354
SWIDTH 630 0
DWIDTH 35 0
BBX 33 53 1 -12
BITMAP
FFFFFFFF80
FFFFFFFF80
FFFFFFFF80
FFFFFFFF80
0003E00000
0003E00000
0003E00000
0003E00000
0003E00000
0003E00000
0003E00000
0003E00000
0003E00000
0003E00000
0003E00000
0003E00000
0003E00000
0003E00000
0003E00000
0003E00000
0003E00000
0003E00000
0003E00000
0003E00000
0003E00000
0003E00000
0003E00000
0003E00000
0003E00000
0003E00000
0003E00000
0003E00000
0003E00000
0003E00000
0003E00000
0003E00000
0003E00000
0003E00000
0003E00000
0003E00000
0003E00000
0001C00000
0001800000
0003800000
0003E00000
0007F80000
0000F80000
00003C0000
00003C0000
00003C0000
0008780000
000FF80000
0007E00000
ENDCHAR
STARTCHAR 0163
ENCODING 355
SWIDTH 378 0
DWIDTH 21 0
BBX 18 48 1 -12
BITMAP
0F8000
0F8000
0F8000
0F8000
0F8000
0F8000
FFFFC0
FFFFC0
FFFFC0
FFFFC0
0F8000
0F8000
0F8000
0F8000
0F8000
0F8000
0F8000
0F8000
0F8000
0F8000
0F8000
0F8000
0F8000
0F8000
0F8000
0F8000
0F8000
0F8000
0F8000
0FC000
0FC000
07F000
07FFC0
03FFC0
00FFC0
003FC0
001C00
001800
003800
003E00
007F80
000F80
0003C0
0003C0
0003C0
008780
00FF80
007E00
ENDCHAR
STARTCHAR 0164
ENCODING 356
SWIDTH 630 0
DWIDTH 35 0
BBX 33 53 1 0
BITMAP
01E003C000
00F0078000
00780F0000
007C1F0000
003E3E0000
001F7C0000
000FF80000
000FF80000
0007F00000
0000000000
0000000000
0000000000
FFFFFFFF80
FFFFFFFF80
FFFFFFFF80
FFFFFFFF80
0003E00000
0003E00000
0003E00000
0003E00000
0003E00000
0003E00000
0003E00000
0003E00000
0003E00000
0003E00000
0003E00000
0003E00000
0003E00000
0003E00000
0003E00000
0003E00000
0003E00000
0003E00000
0003E00000
0003E00000
0003E00000
0003E00000
0003E00000
0003E00000
0003E00000
0003E00000
0003E00000
0003E00000
0003E00000
0003E00000
0003E00000
0003E00000
0003E00000
0003E00000
0003E00000
0003E00000
0003E00000
ENDCHAR
STARTCHAR 0165
ENCODING 357
SWIDTH 378 0
DWIDTH 21 0
BBX 19 47 1 0
BITMAP
0003E0
0003E0
0003E0
0003E0
0003E0
0000E0
0000E0
0000E0
0000E0
0001C0
0003C0
0F8380
0F8000
0F8000
0F8000
0F8000
0F8000
FFFFC0
FFFFC0
FFFFC0
FFFFC0
0F8000
0F8000
0F8000
0F8000
0F8000
0F8000
0F8000
0F8000
0F8000
0F8000
0F8000
0F8000
0F8000
0F8000
0F8000
0F8000
0F8000
0F8000
0F8000
0FC000
0FC000
07F000
07FFC0
03FFC0
00FFC0
003FC0
ENDCHAR
STARTCHAR 0166
ENCODING 358
SWIDTH 630 0
DWIDTH 35 0
BBX 33 41 1 0
BITMAP
FFFFFFFF80
FFFFFFFF80
FFFFFFFF80
FFFFFFFF80
0003E00000
0003E00000
0003E00000
0003E00000
0003E00000
0003E00000
0003E00000
0003E00000
0003E00000
0003E00000
0003E00000
0003E00000
0003E00000
03FFFFE000
03FFFFE000
03FFFFE000
03FFFFE000
0003E00000
0003E00000
0003E00000
0003E00000
0003E00000
0003E00000
0003E00000
0003E00000
0003E00000
0003E00000
0003E00000
0003E00000
0003E00000
0003E00000
0003E00000
0003E00000
0003E00000
0003E00000
0003E00000
0003E00000
ENDCHAR
STARTCHAR 0167
ENCODING 359
SWIDTH 378 0
DWIDTH 21 0
BBX 18 36 1 0
BITMAP
0F8000
0F8000
0F8000
0F8000
0F8000
0F8000
FFFFC0
FFFFC0
FFFFC0
FFFFC0
0F8000
0F8000
0F8000
0F8000
0F8000
0F8000
0F8000
FFFFC0
FFFFC0
FFFFC0
0F8000
0F8000
0F8000
0F8000
0F8000
0F8000
0F8000
0F8000
0F8000
0FC000
0FC000
07F000
07FFC0
03FFC0
00FFC0
003FC0
ENDCHAR
STARTCHAR 0168
ENCODING 360
SWIDTH 702 0
DWIDTH 39 0
BBX 29 51 5 -1
BITMAP
007C0700
01FF0700
01FF8F00
03C7FE00
0383FE00
0380F800
00000000
00000000
00000000
F8000078
F8000078
F8000078
F8000078
F8000078
F8000078
F8000078
F8000078
F8000078
F8000078
F8000078
F8000078
F8000078
F8000078
F8000078
F8000078
F8000078
F8000078
F8000078
F8000078
F8000078
F8000078
F8000078
F8000078
F8000078
F8000078
F8000078
F8000078
F8000078
F8000078
F8000078
7C0000F8
7C0000F0
7C0000F0
7E0001F0
3F0001E0
3F8003E0
1FE01FC0
0FFFFF80
07FFFF00
01FFFE00
003FF000
ENDCHAR
STARTCHAR 0169
ENCODING 361
SWIDTH 630 0
DWIDTH 35 0
BBX 25 41 5 0
BITMAP
01F01C00
07FC1C00
07FE3C00
0F1FF800
0E0FF800
0E03E000
00000000
00000000
00000000
00000000
00000000
F8000F80
F8000F80
F8000F80
F8000F80
F8000F80
F8000F80
F8000F80
F8000F80
F8000F80
F8000F80
F8000F80
F8000F80
F8000F80
F8000F80
F8000F80
F8000F80
F8000F80
F8000F80
F8000F80
F8000F80
F8001F80
F8003F80
F8007F80
F800FF80
7C01FF80
7E07EF80
7FFFCF80
3FFF8F80
1FFE0F80
03F80F80
ENDCHAR
STARTCHAR 016A
ENCODING 362
SWIDTH 702 0
DWIDTH 39 0
BBX 29 49 5 -1
BITMAP
03FFFF00
03FFFF00
03FFFF00
03FFFF00
00000000
00000000
00000000
F8000078
F8000078
F8000078
F8000078
F8000078
F8000078
F8000078
F8000078
F8000078
F8000078
F8000078
F8000078
F8000078
F8000078
F8000078
F8000078
F8000078
F8000078
F8000078
F8000078
F8000078
F8000078
F8000078
F8000078
F8000078
F8000078
F8000078
F8000078
F8000078
F8000078
F8000078
7C0000F8
7C0000F0
7C0000F0
7E0001F0
3F0001E0
3F8003E0
1FE01FC0
0FFFFF80
07FFFF00
01FFFE00
003FF000
ENDCHAR
STARTCHAR 016B
ENCODING 363
SWIDTH 630 0
DWIDTH 35 0
BBX 25 39 5 0
BITMAP
0FFFFC00
0FFFFC00
0FFFFC00
0FFFFC00
00000000
00000000
00000000
00000000
00000000
F8000F80
F8000F80
F8000F80
F8000F80
F8000F80
F8000F80
F8000F80
F8000F80
F8000F80
F8000F80
F8000F80
F8000F80
F8000F80
F8000F80
F8000F80
F8000F80
F8000F80
F8000F80
F8000F80
F8000F80
F8001F80
F8003F80
F8007F80
F800FF80
7C01FF80
7E07EF80
7FFFCF80
3FFF8F80
1FFE0F80
03F80F80
ENDCHAR
STARTCHAR 016C
ENCODING 364
SWIDTH 702 0
DWIDTH 39 0
BBX 29 54 5 -1
BITMAP
03800700
03800700
03C00F00
01E01E00
01F03E00
00FFFC00
007FF800
003FF000
000FC000
00000000
00000000
00000000
F8000078
F8000078
F8000078
F8000078
F8000078
F8000078
F8000078
F8000078
F8000078
F8000078
F8000078
F8000078
F8000078
F8000078
F8000078
F8000078
F8000078
F8000078
F8000078
F8000078
F8000078
F8000078
F8000078
F8000078
F8000078
F8000078
F8000078
F8000078
F8000078
F8000078
F8000078
7C0000F8
7C0000F0
7C0000F0
7E0001F0
3F0001E0
3F8003E0
1FE01FC0
0FFFFF80
07FFFF00
01FFFE00
003FF000
ENDCHAR
STARTCHAR 016D
ENCODING 365
SWIDTH 630 0
DWIDTH 35 0
BBX 25 44 5 0
BITMAP
0E001C00
0E001C00
0F003C00
07807800
07C0F800
03FFF000
01FFE000
00FFC000
003F0000
00000000
00000000
00000000
00000000
00000000
F8000F80
F8000F80
F8000F80
F8000F80
F8000F80
F8000F80
F8000F80
F8000F80
F8000F80
F8000F80
F8000F80
F8000F80
F8000F80
F8000F80
F8000F80
F8000F80
F8000F80
F8000F80
F8000F80
F8000F80
F8001F80
F8003F80
F8007F80
F800FF80
7C01FF80
7E07EF80
7FFFCF80
3FFF8F80
1FFE0F80
03F80F80
ENDCHAR
STARTCHAR 016E
ENCODING 366
SWIDTH 702 0
DWIDTH 39 0
BBX 29 56 5 -1
BITMAP
00078000
001FE000
00387000
00703000
00601800
00601800
00601800
00601800
00703000
00387000
001FE000
000F8000
00000000
00000000
F8000078
F8000078
F8000078
F8000078
F8000078
F8000078
F8000078
F8000078
F8000078
F8000078
F8000078
F8000078
F8000078
F8000078
F8000078
F8000078
F8000078
F8000078
F8000078
F8000078
F8000078
F8000078
F8000078
F8000078
F8000078
F8000078
F8000078
F8000078
F8000078
F8000078
F8000078
7C0000F8
7C0000F0
7C0000F0
7E0001F0
3F0001E0
3F8003E0
1FE01FC0
0FFFFF80
07FFFF00
01FFFE00
003FF000
ENDCHAR
STARTCHAR 016F
ENCODING 367
SWIDTH 630 0
DWIDTH 35 0
BBX 25 47 5 0
BITMAP
001E0000
007F8000
00E1C000
01C0C000
01806000
01806000
01806000
01806000
01C0C000
00E1C000
007F8000
003E0000
00000000
00000000
00000000
00000000
00000000
F8000F80
F8000F80
F8000F80
F8000F80
F8000F80
F8000F80
F8000F80
F8000F80
F8000F80
F8000F80
F8000F80
F8000F80
F8000F80
F8000F80
F8000F80
F8000F80
F8000F80
F8000F80
F8000F80
F8000F80
F8001F80
F8003F80
F8007F80
F800FF80
7C01FF80
7E07EF80
7FFFCF80
3FFF8F80
1FFE0F80
03F80F80
ENDCHAR
STARTCHAR 0170
ENCODING 368
SWIDTH 702 0
DWIDTH 39 0
BBX 30 54 5 -1
BITMAP
0001F07C
0003E0F8
0007C1F0
000F83E0
001F07C0
001E0780
003C0F00
00781E00
00F03C00
00000000
00000000
00000000
F8000078
F8000078
F8000078
F8000078
F8000078
F8000078
F8000078
F8000078
F8000078
F8000078
F8000078
F8000078
F8000078
F8000078
F8000078
F8000078
F8000078
F8000078
F8000078
F8000078
F8000078
F8000078
F8000078
F8000078
F8000078
F8000078
F8000078
F8000078
F8000078
F8000078
F8000078
7C0000F8
7C0000F0
7C0000F0
7E0001F0
3F0001E0
3F8003E0
1FE01FC0
0FFFFF80
07FFFF00
01FFFE00
003FF000
ENDCHAR
STARTCHAR 0171
ENCODING 369
SWIDTH 630 0
DWIDTH 35 0
BBX 28 44 5 0
BITMAP
0007C1F0
000F83E0
001F07C0
003E0F80
007C1F00
00781E00
00F03C00
01E07800
03C0F000
00000000
00000000
00000000
00000000
00000000
F8000F80
F8000F80
F8000F80
F8000F80
F8000F80
F8000F80
F8000F80
F8000F80
F8000F80
F8000F80
F8000F80
F8000F80
F8000F80
F8000F80
F8000F80
F8000F80
F8000F80
F8000F80
F8000F80
F8000F80
F8001F80
F8003F80
F8007F80
F800FF80
7C01FF80
7E07EF80
7FFFCF80
3FFF8F80
1FFE0F80
03F80F80
ENDCHAR
STARTCHAR 0172
ENCODING 370
SWIDTH 702 0
DWIDTH 39 0
BBX 29 51 5 -10
BITMAP
F8000078
F8000078
F8000078
F8000078
F8000078
F8000078
F8000078
F8000078
F8000078
F8000078
F8000078
F8000078
F8000078
F8000078
F8000078
F8000078
F8000078
F8000078
F8000078
F8000078
F8000078
F8000078
F8000078
F8000078
F8000078
F8000078
F8000078
F8000078
F8000078
F8000078
F8000078
7C0000F8
7C0000F0
7C0000F0
7E0001F0
3F0001E0
3F8003E0
1FE01FC0
0FFFFF80
07FFFF00
01FFFE00
003FF800
0000F000
0001E000
0001C000
0003C000
0003C000
0003E000
0003FE00
0001FE00
0000FC00
ENDCHAR
STARTCHAR 0173
ENCODING 371
SWIDTH 630 0
DWIDTH 35 0
BBX 25 40 5 -10
BITMAP
F8000F80
F8000F80
F8000F80
F8000F80
F8000F80
F8000F80
F8000F80
F8000F80
F8000F80
F8000F80
F8000F80
F8000F80
F8000F80
F8000F80
F8000F80
F8000F80
F8000F80
F8000F80
F8000F80
F8000F80
F8001F80
F8003F80
F8007F80
F800FF80
7C01FF80
7E07EF80
7FFFCF80
3FFF8F80
1FFE0F80
03F80F80
00001C00
00007800
0000F000
0000E000
0001E000
0001E000
0001F000
0001FF00
0000FF00
00007E00
ENDCHAR
STARTCHAR 0174
ENCODING 372
SWIDTH 864 0
DWIDTH 48 0
BBX 48 53 0 0
BITMAP
000007F00000
00000FF80000
00000FF80000
00001F7C0000
00003E3E0000
00007C1F0000
0000780F0000
0000F0078000
0001E003C000
000000000000
000000000000
000000000000
F80007E0001F
FC0007E0001F
7C0007E0003E
7C0007E0003E
7C000FF0003E
7E000FF0007E
3E000FF0007C
3E000FF0007C
3E001FF8007C
3F001EF800FC
1F001EF800F8
1F001EF800F8
1F003EFC00F8
1F803C7C01F0
0F803C7C01F0
0F803C7C01F0
0F807C7E01F0
07C0783E03E0
07C0783E03E0
07C0783E03E0
07C0F83F03E0
03E0F01F07C0
03E0F01F07C0
03E0F01F07C0
03E1F01F8FC0
01F1E00F8F80
01F1E00F8F80
01F1E00F8F80
01F3E00FDF80
00FBC007DF00
00FBC007DF00
00FBC007DF00
00FFC007FE00
007F8003FE00
007F8003FE00
007F8003FE00
007F8003FC00
003F0001FC00
003F0001FC00
003F0001FC00
003F0001F800
ENDCHAR
STARTCHAR 0175
ENCODING 373
SWIDTH 774 0
DWIDTH 43 0
BBX 43 45 0 -1
BITMAP
00001FC00000
00003FE00000
00003FE00000
00007DF00000
0000F8F80000
0001F07C0000
0001E03C0000
0003C01E0000
0007800F0000
000000000000
000000000000
000000000000
000000000000
000000000000
F8003F8003E0
FC003F8007E0
7C003FC007C0
7C007FC007C0
7C007FC007C0
7E007FC00F80
3E007FC00F80
3E00FBE00F80
3E00FBE01F00
3F00FBE01F00
1F01F3E01F00
1F01F1F03F00
1F01F1F03E00
0F81F1F03E00
0F83E1F07E00
0F83E0F07C00
0F83E0F87C00
07C7C0F87C00
07C7C0F8F800
07C7C0F8F800
07E7C07CF800
03EF807DF000
03EF807DF000
03EF807DF000
03FF003FF000
01FF003FE000
01FF003FE000
01FF003FE000
01FE003FC000
00FE001FC000
00FE001FC000
ENDCHAR
STARTCHAR 0176
ENCODING 374
SWIDTH 630 0
DWIDTH 35 0
BBX 33 53 0 0
BITMAP
0003F80000
0007FC0000
0007FC0000
000FBE0000
001F1F0000
003E0F8000
003C078000
007803C000
00F001E000
0000000000
0000000000
0000000000
FC00000F80
7E00001F00
3E00001E00
3F00003E00
1F00003C00
1F80007C00
0FC000F800
07C000F000
07E001F000
03F003E000
01F003E000
01F807C000
00F8078000
00FC0F8000
007E1F0000
003E1E0000
003F3E0000
001FBC0000
000FFC0000
000FF80000
0007F00000
0007F00000
0003E00000
0003E00000
0003E00000
0003E00000
0003E00000
0003E00000
0003E00000
0003E00000
0003E00000
0003E00000
0003E00000
0003E00000
0003E00000
0003E00000
0003E00000
0003E00000
0003E00000
0003E00000
0003E00000
ENDCHAR
STARTCHAR 0177
ENCODING 375
SWIDTH 522 0
DWIDTH 29 0
BBX 29 55 0 -11
BITMAP
000FE000
001FF000
001FF000
003EF800
007C7C00
00F83E00
00F01E00
01E00F00
03C00780
00000000
00000000
00000000
00000000
00000000
F80000F8
FC0001F8
7C0001F0
7C0003F0
3E0003E0
3E0003E0
3F0007E0
1F0007C0
1F000FC0
0F800F80
0F800F80
0FC01F80
07C01F00
07C03F00
03E03E00
03E07E00
03E07E00
01F07C00
01F0FC00
01F8F800
00F9F800
00F9F000
007DF000
007FF000
007FE000
003FE000
003FC000
001FC000
001FC000
001F8000
001F8000
001F0000
003F0000
003F0000
003E0000
007E0000
007C0000
00FC0000
00FC0000
01F80000
01F80000
ENDCHAR
STARTCHAR 0178
ENCODING 376
SWIDTH 630 0
DWIDTH 35 0
BBX 33 49 0 0
BITMAP
007C0F8000
007C0F8000
007C0F8000
007C0F8000
007C0F8000
0000000000
0000000000
0000000000
FC00000F80
7E00001F00
3E00001E00
3F00003E00
1F00003C00
1F80007C00
0FC000F800
07C000F000
07E001F000
03F003E000
01F003E000
01F807C000
00F8078000
00FC0F8000
007E1F0000
003E1E0000
003F3E0000
001FBC0000
000FFC0000
000FF80000
0007F00000
0007F00000
0003E00000
0003E00000
0003E00000
0003E00000
0003E00000
0003E00000
0003E00000
0003E00000
0003E00000
0003E00000
0003E00000
0003E00000
0003E00000
0003E00000
0003E00000
0003E00000
0003E00000
0003E00000
0003E00000
ENDCHAR
STARTCHAR 0179
ENCODING 377
SWIDTH 612 0
DWIDTH 34 0
BBX 28 53 3 0
BITMAP
0000FE00
0000FC00
0001F800
0003F000
0007E000
0007C000
000F8000
001F0000
003E0000
00000000
00000000
00000000
7FFFFFF0
7FFFFFF0
7FFFFFF0
7FFFFFF0
000003F0
000007E0
000007C0
00000FC0
00001F80
00003F00
00003F00
00007E00
0000FC00
0000FC00
0001F800
0003F000
0003F000
0007E000
000FC000
000FC000
001F8000
003F0000
003F0000
007E0000
00FC0000
00FC0000
01F80000
03F00000
03F00000
07E00000
0FC00000
0F800000
1F800000
3F000000
3E000000
7E000000
FC000000
FFFFFFF0
FFFFFFF0
FFFFFFF0
FFFFFFF0
ENDCHAR
STARTCHAR 017A
ENCODING 378
SWIDTH 576 0
DWIDTH 32 0
BBX 26 44 3 0
BITMAP
0003F800
0003F000
0007E000
000FC000
001F8000
001F0000
003E0000
007C0000
00F80000
00000000
00000000
00000000
00000000
00000000
7FFFFFC0
7FFFFFC0
7FFFFFC0
7FFFFFC0
00001FC0
00003F80
00007F00
00007E00
0000FC00
0001F800
0003F000
0007E000
000FC000
001FC000
003F8000
007F0000
00FE0000
00FC0000
01F80000
03F00000
07E00000
0FC00000
1F800000
3F800000
7F000000
FE000000
FFFFFFC0
FFFFFFC0
FFFFFFC0
FFFFFFC0
ENDCHAR
STARTCHAR 017B
ENCODING 379
SWIDTH 612 0
DWIDTH 34 0
BBX 28 49 3 0
BITMAP
000F8000
000F8000
000F8000
000F8000
000F8000
00000000
00000000
00000000
7FFFFFF0
7FFFFFF0
7FFFFFF0
7FFFFFF0
000003F0
000007E0
000007C0
00000FC0
00001F80
00003F00
00003F00
00007E00
0000FC00
0000FC00
0001F800
0003F000
0003F000
0007E000
000FC000
000FC000
001F8000
003F0000
003F0000
007E0000
00FC0000
00FC0000
01F80000
03F00000
03F00000
07E00000
0FC00000
0F800000
1F800000
3F000000
3E000000
7E000000
FC000000
FFFFFFF0
FFFFFFF0
FFFFFFF0
FFFFFFF0
ENDCHAR
STARTCHAR 017C
ENCODING 380
SWIDTH 576 0
DWIDTH 32 0
BBX 26 40 3 0
BITMAP
001F0000
001F0000
001F0000
001F0000
001F0000
00000000
00000000
00000000
00000000
00000000
7FFFFFC0
7FFFFFC0
7FFFFFC0
7FFFFFC0
00001FC0
00003F80
00007F00
00007E00
0000FC00
0001F800
0003F000
0007E000
000FC000
001FC000
003F8000
007F0000
00FE0000
00FC0000
01F80000
03F00000
07E00000
0FC00000
1F800000
3F800000
7F000000
FE000000
FFFFFFC0
FFFFFFC0
FFFFFFC0
FFFFFFC0
ENDCHAR
STARTCHAR 017D
ENCODING 381
SWIDTH 612 0
DWIDTH 34 0
BBX 28 53 3 0
BITMAP
03C00780
01E00F00
00F01E00
00F83E00
007C7C00
003EF800
001FF000
001FF000
000FE000
00000000
00000000
00000000
7FFFFFF0
7FFFFFF0
7FFFFFF0
7FFFFFF0
000003F0
000007E0
000007C0
00000FC0
00001F80
00003F00
00003F00
00007E00
0000FC00
0000FC00
0001F800
0003F000
0003F000
0007E000
000FC000
000FC000
001F8000
003F0000
003F0000
007E0000
00FC0000
00FC0000
01F80000
03F00000
03F00000
07E00000
0FC00000
0F800000
1F800000
3F000000
3E000000
7E000000
FC000000
FFFFFFF0
FFFFFFF0
FFFFFFF0
FFFFFFF0
ENDCHAR
STARTCHAR 017E
ENCODING 382
SWIDTH 576 0
DWIDTH 32 0
BBX 26 44 3 0
BITMAP
0F001E00
07803C00
03C07800
03E0F800
01F1F000
00FBE000
007FC000
007FC000
003F8000
00000000
00000000
00000000
00000000
00000000
7FFFFFC0
7FFFFFC0
7FFFFFC0
7FFFFFC0
00001FC0
00003F80
00007F00
00007E00
0000FC00
0001F800
0003F000
0007E000
000FC000
001FC000
003F8000
007F0000
00FE0000
00FC0000
01F80000
03F00000
07E00000
0FC00000
1F800000
3F800000
7F000000
FE000000
FFFFFFC0
FFFFFFC0
FFFFFFC0
FFFFFFC0
ENDCHAR
STARTCHAR 017F
ENCODING 383
SWIDTH 324 0
DWIDTH 18 0
BBX 20 44 2 0
BITMAP
003FC0
00FFF0
01FFF0
03FFF0
07E030
07C000
0F8000
0F8000
0F8000
0F8000
0F8000
0F8000
0F8000
0F8000
FF8000
FF8000
FF8000
FF8000
0F8000
0F8000
0F8000
0F8000
0F8000
0F8000
0F8000
0F8000
0F8000
0F8000
0F8000
0F8000
0F8000
0F8000
0F8000
0F8000
0F8000
0F8000
0F8000
0F8000
0F8000
0F8000
0F8000
0F8000
0F8000
0F8000
ENDCHAR
STARTCHAR 0192
ENCODING 402
SWIDTH 630 0
DWIDTH 35 0
BBX 27 50 6 -8
BITMAP
00007F80
0001FFE0
0007FFE0
000FFFC0
001FC0C0
003F0000
003E0000
007C0000
007C0000
00F80000
00F80000
00F80000
01F80000
01F00000
01F00000
01F00000
01F00000
03F00000
FFFFF000
FFFFF000
FFFFF000
FFFFF000
07E00000
07C00000
07C00000
07C00000
07C00000
0FC00000
0F800000
0F800000
0F800000
0F800000
1F800000
1F000000
1F000000
1F000000
1F000000
3F000000
3E000000
3E000000
3E000000
3E000000
7E000000
7C000000
7C000000
7C000000
7C000000
FC000000
F8000000
F8000000
ENDCHAR
STARTCHAR 01FA
ENCODING 506
SWIDTH 702 0
DWIDTH 39 0
BBX 38 64 0 0
BITMAP
000007F000
000007E000
00000FC000
00001F8000
00003F0000
00003E0000
00007C0000
0000F80000
0001F00000
0000000000
0000000000
0000780000
0001FE0000
0003870000
0007030000
0006018000
0006018000
0006018000
0006018000
0007030000
0003870000
0001FE0000
0000F80000
0000780000
0000780000
0000FC0000
0000FC0000
0000FE0000
0001FE0000
0001FE0000
0003FF0000
0003DF0000
0007DF8000
00078F8000
00078FC000
000F07C000
000F07C000
001F07E000
001E03E000
003E03F000
003C01F000
003C01F800
007800F800
007800F800
00F800FC00
00F0007C00
01F0007E00
01E0003E00
01FFFFFE00
03FFFFFF00
03FFFFFF00
07FFFFFF80
0780000F80
0F80000FC0
0F000007C0
0F000007C0
1E000003E0
1E000003E0
3E000003F0
3C000001F0
7C000001F8
78000000F8
78000000F8
F0000000FC
ENDCHAR
STARTCHAR 01FB
ENCODING 507
SWIDTH 558 0
DWIDTH 31 0
BBX 27 57 3 0
BITMAP
0003F800
0003F000
0007E000
000FC000
001F8000
001F0000
003E0000
007C0000
00F80000
00000000
00000000
001E0000
007F8000
00E1C000
01C0C000
01806000
01806000
01806000
01806000
01C0C000
00E1C000
007F8000
003E0000
00000000
00000000
00000000
00000000
007F8000
03FFF000
0FFFF800
1FFFFC00
1F81FC00
1C007E00
10003E00
00003E00
00003E00
00003E00
00003E00
00003E00
001FFE00
01FFFE00
0FFFFE00
1FE03E00
3F003E00
7E003E00
7C003E00
F8003E00
F8003E00
F8003E00
F8003E00
FC007E00
FC00FE00
7F07FF00
7FFFDFE0
3FFF1FE0
0FFE0FE0
03F007C0
ENDCHAR
STARTCHAR 01FC
ENCODING 508
SWIDTH 918 0
DWIDTH 51 0
BBX 49 53 1 0
BITMAP
000000007F0000
000000007E0000
00000000FC0000
00000001F80000
00000003F00000
00000003E00000
00000007C00000
0000000F800000
0000001F000000
00000000000000
00000000000000
00000000000000
000000FFFFFF00
000001FFFFFF00
000001FFFFFF00
000003FFFFFF00
000003FC000000
000007FC000000
00000FFC000000
00000F7C000000
00001F7C000000
00001E7C000000
00003E7C000000
00007C7C000000
0000787C000000
0000F87C000000
0000F07C000000
0001F07C000000
0003E07C000000
0003C07C000000
0007C07FFFF800
0007807FFFF800
000F807FFFF800
001F007FFFF800
001E007C000000
003E007C000000
003C007C000000
007C007C000000
00FFFFFC000000
00FFFFFC000000
01FFFFFC000000
01FFFFFC000000
03E0007C000000
07C0007C000000
0780007C000000
0F80007C000000
0F00007C000000
1F00007C000000
3E00007C000000
3C00007FFFFF80
7C00007FFFFF80
7800007FFFFF80
F800007FFFFF80
ENDCHAR
STARTCHAR 01FD
ENCODING 509
SWIDTH 864 0
DWIDTH 48 0
BBX 41 44 3 0
BITMAP
000001FC0000
000001F80000
000003F00000
000007E00000
00000FC00000
00000F800000
00001F000000
00003E000000
00007C000000
000000000000
000000000000
000000000000
000000000000
000000000000
007F003F8000
03FFE1FFE000
0FFFF3FFF800
1FFFFFFFFC00
1F01FFC0FE00
1C00FF803E00
10007F001F00
00007E001F00
00007E000F00
00007C000F00
00007C000F80
00007C000F80
003FFFFFFF80
03FFFFFFFF80
0FFFFFFFFF80
1FE07C000000
3F007C000000
7E007C000000
7C007C000000
F8007E000000
F8007E000000
F8007F000000
F8007F000000
FC00FF800000
FC01FFC00080
7F07CFF80F80
7FFF87FFFF80
3FFF03FFFF80
1FFC00FFFF00
07F0001FF000
ENDCHAR
STARTCHAR 01FE
ENCODING 510
SWIDTH 792 0
DWIDTH 44 0
BBX 38 54 3 -1
BITMAP
000007F000
000007E000
00000FC000
00001F8000
00003F0000
00003E0000
00007C0000
0000F80000
0001F00000
0000000000
0000000000
0003FF00FC
001FFFE1F8
007FFFFBF0
00FFFFFFF0
01FE01FFE0
07F0003FC0
07E0001F80
0FC0001FC0
1F80003FE0
1F00007FE0
3E0000FDF0
3E0001FDF0
7C0001F9F8
7C0003F0F8
7C0007E0F8
7C000FE0F8
F8000FC07C
F8001F807C
F8003F007C
F8007F007C
F8007E007C
F800FC007C
F801F8007C
F803F8007C
F803F0007C
F807E0007C
F80FC0007C
7C1FC000F8
7C1F8000F8
7C3F0000F8
7E7E0001F8
3EFE0001F0
3EFC0001F0
1FF80003E0
1FF00007E0
0FF0000FC0
07E0001F80
0FF0003F00
1FFE01FF00
3FFFFFFC00
3F7FFFF800
7E1FFFE000
FC03FF0000
ENDCHAR
STARTCHAR 01FF
ENCODING 511
SWIDTH 612 0
DWIDTH 34 0
BBX 28 44 3 0
BITMAP
0000FE00
0000FC00
0001F800
0003F000
0007E000
0007C000
000F8000
001F0000
003E0000
00000000
00000000
00000000
00000000
00000000
007F83F0
01FFE7E0
07FFFFC0
0FFFFF80
1FC1FF80
3F007F80
3E007FC0
7C00FFE0
7C00FFE0
7C01FBE0
F803F3E0
F807F1F0
F807E1F0
F80FC1F0
F81F81F0
F81F81F0
F83F01F0
F87E01F0
F8FE01F0
FCFC01F0
7DF803E0
7FF003E0
7FF003E0
3FE007C0
3FE00FC0
1FF83F80
1FFFFF00
3FFFFE00
7E7FFC00
FE0FE000
ENDCHAR
STARTCHAR 0218
ENCODING 536
SWIDTH 540 0
DWIDTH 30 0
BBX 24 59 3 -17
BITMAP
00FF00
03FFE0
0FFFF8
1FFFFC
3F81FC
7E003C
7C0004
FC0000
F80000
F80000
F80000
F80000
FC0000
FC0000
7E0000
7F8000
3FC000
1FF000
0FFC00
07FE00
03FF80
00FFC0
007FF0
001FF8
0007FC
0001FC
0000FE
00007E
00003F
00003F
00001F
00001F
00001F
00001F
00001F
00003E
80007E
F000FC
FE01F8
FFFFF8
7FFFE0
1FFFC0
01FE00
000000
000000
000000
000000
003E00
003E00
003E00
003E00
003E00
000E00
000E00
000E00
000C00
001C00
003800
003000
ENDCHAR
STARTCHAR 0219
ENCODING 537
SWIDTH 522 0
DWIDTH 29 0
BBX 21 47 4 -17
BITMAP
01FF00
0FFFE0
1FFFE0
3FFFE0
7E00E0
FC0000
F80000
F80000
F80000
FC0000
FE0000
7F8000
3FF000
1FFC00
0FFF00
03FFC0
007FE0
001FF0
0003F0
0001F8
0000F8
0000F8
0000F8
8000F8
E001F0
FC07F0
FFFFE0
7FFFC0
1FFF00
03FC00
000000
000000
000000
000000
000000
00F800
00F800
00F800
00F800
00F800
003800
003800
003800
003000
007000
00E000
00C000
ENDCHAR
STARTCHAR 021A
ENCODING 538
SWIDTH 630 0
DWIDTH 35 0
BBX 33 58 1 -17
BITMAP
FFFFFFFF80
FFFFFFFF80
FFFFFFFF80
FFFFFFFF80
0003E00000
0003E00000
0003E00000
0003E00000
0003E00000
0003E00000
0003E00000
0003E00000
0003E00000
0003E00000
0003E00000
0003E00000
0003E00000
0003E00000
0003E00000
0003E00000
0003E00000
0003E00000
0003E00000
0003E00000
0003E00000
0003E00000
0003E00000
0003E00000
0003E00000
0003E00000
0003E00000
0003E00000
0003E00000
0003E00000
0003E00000
0003E00000
0003E00000
0003E00000
0003E00000
0003E00000
0003E00000
0000000000
0000000000
0000000000
0000000000
0000000000
0003E00000
0003E00000
0003E00000
0003E00000
0003E00000
0000E00000
0000E00000
0000E00000
0000C00000
0001C00000
0003800000
0003000000
ENDCHAR
STARTCHAR 021B
ENCODING 539
SWIDTH 378 0
DWIDTH 21 0
BBX 18 53 1 -17
BITMAP
0F8000
0F8000
0F8000
0F8000
0F8000
0F8000
FFFFC0
FFFFC0
FFFFC0
FFFFC0
0F8000
0F8000
0F8000
0F8000
0F8000
0F8000
0F8000
0F8000
0F8000
0F8000
0F8000
0F8000
0F8000
0F8000
0F8000
0F8000
0F8000
0F8000
0F8000
0FC000
0FC000
07F000
07FFC0
03FFC0
00FFC0
003FC0
000000
000000
000000
000000
000000
00F800
00F800
00F800
00F800
00F800
003800
003800
003800
003000
007000
00E000
00C000
ENDCHAR
STARTCHAR 0250
ENCODING 592
SWIDTH 558 0
DWIDTH 31 0
BBX 27 30 1 0
BITMAP
7C01F800
FE0FFE00
FE3FFF80
FF7FFFC0
1FFC1FC0
0FE007E0
0FC007E0
0F8003E0
0F8003E0
0F8003E0
0F8003E0
0F8007C0
0F800FC0
0F801F80
0F80FF00
0FFFFE00
0FFFF800
0FFF8000
0F800000
0F800000
0F800000
0F800000
0F800000
0F800100
0FC00700
07E03F00
07FFFF00
03FFFE00
01FFF800
003FC000
ENDCHAR
STARTCHAR 0251
ENCODING 593
SWIDTH 630 0
DWIDTH 35 0
BBX 27 30 3 0
BITMAP
0007FFE0
003FFFE0
00FFFFE0
01FC07E0
03E003E0
07C003E0
0F8003E0
1F0003E0
3E0003E0
3E0003E0
3C0003E0
7C0003E0
7C0003E0
780003E0
F80003E0
F80003E0
F80007E0
F8000FE0
F8000FE0
F8001FE0
F8003FE0
FC007BE0
FC00FBE0
7E01F3E0
7F07E3E0
3FFFE3E0
3FFFC3E0
1FFF03E0
0FFE03E0
03F003E0
ENDCHAR
STARTCHAR 0252
ENCODING 594
SWIDTH 630 0
DWIDTH 35 0
BBX 27 30 5 0
BITMAP
F801F800
F80FFE00
F81FFF00
F87FFF80
F8FFFF80
F8FC1FC0
F9F00FC0
FBE007E0
FBC007E0
FF8003E0
FF0003E0
FE0003E0
FE0003E0
FC0003E0
F80003E0
F80003E0
F80003C0
F80007C0
F80007C0
F8000780
F8000F80
F8000F80
F8001F00
F8003E00
F8007C00
F800FC00
FC07F800
FFFFE000
FFFF8000
FFFE0000
ENDCHAR
STARTCHAR 0253
ENCODING 595
SWIDTH 630 0
DWIDTH 35 0
BBX 27 44 5 0
BITMAP
007F8000
01FFF000
07FFF800
0FFFF800
1FC07800
1F000800
3E000000
7E000000
7C000000
7C000000
7C000000
F8000000
F8000000
F8000000
F80FE000
F87FF800
F8FFFE00
F9FFFF00
FBF07F00
FF801F80
FF000FC0
FC0007C0
F80007C0
F80007E0
F80003E0
F80003E0
F80003E0
F80003E0
F80003E0
F80003E0
F80003E0
F80003E0
F80003E0
F80007C0
F80007C0
F80007C0
F8000F80
FE000F80
FF001F00
FFC07F00
FFFFFE00
F9FFFC00
F8FFF000
F03FC000
ENDCHAR
STARTCHAR 0254
ENCODING 596
SWIDTH 504 0
DWIDTH 28 0
BBX 22 30 3 0
BITMAP
07F000
7FFE00
FFFF00
FFFF80
F01FC0
8007E0
0003F0
0001F0
0001F8
0000F8
0000F8
00007C
00007C
00007C
00007C
00007C
00007C
00007C
00007C
0000FC
0000F8
0001F8
0001F8
0003F0
0007E0
E01FE0
FFFFC0
FFFF80
FFFE00
3FF000
ENDCHAR
STARTCHAR 0255
ENCODING 597
SWIDTH 558 0
DWIDTH 31 0
BBX 26 35 3 -5
BITMAP
001FF000
01FFFC00
03FFFC00
0FFFFC00
1FE00C00
1F800000
3F000000
7E000000
7C000000
7C000000
FC000000
F8000000
F8000000
F8000000
F8000000
F8000000
F800FC00
F807FF00
FC0FFF80
7C3FFF80
7E7F07C0
3FFC03C0
3FF803C0
1FF003C0
1FE007C0
0FF81F80
07FFFF00
0FFFFE00
0F7FFC00
0F0FE000
1F000000
1E000000
1E000000
1E000000
1E000000
ENDCHAR
STARTCHAR 0256
ENCODING 598
SWIDTH 648 0
DWIDTH 36 0
BBX 34 55 3 -11
BITMAP
000003E000
000003E000
000003E000
000003E000
000003E000
000003E000
000003E000
000003E000
000003E000
000003E000
000003E000
000003E000
000003E000
000003E000
007F83E000
01FFE3E000
07FFF3E000
0FFFFFE000
1FC0FFE000
1F001FE000
3E000FE000
3E0003E000
7C0003E000
7C0003E000
7C0003E000
F80003E000
F80003E000
F80003E000
F80003E000
F80003E000
F80003E000
F80003E000
F80003E000
F80003E000
FC0003E000
7C0003E000
7C0007E000
7E001FE000
3F003FE000
1FC0FBE000
1FFFFBE000
0FFFE3E000
03FFC3E000
00FF03E000
000003E000
000003E000
000003E000
000003E000
000003E000
000003F000
000001F840
000001FFC0
000000FFC0
0000007FC0
0000001FC0
ENDCHAR
STARTCHAR 0257
ENCODING 599
SWIDTH 648 0
DWIDTH 36 0
BBX 34 44 3 0
BITMAP
0000001FC0
0000007FC0
000000FFC0
000001FFC0
000001F840
000003F000
000003E000
000003E000
000003E000
000003E000
000003E000
000003E000
000003E000
000003E000
007F83E000
01FFE3E000
07FFF3E000
0FFFFFE000
1FC0FFE000
1F001FE000
3E000FE000
3E0003E000
7C0003E000
7C0003E000
7C0003E000
F80003E000
F80003E000
F80003E000
F80003E000
F80003E000
F80003E000
F80003E000
F80003E000
F80003E000
FC0003E000
7C0003E000
7C0007E000
7E001FE000
3F003FE000
1FC0FBE000
1FFFFBE000
0FFFE3E000
03FFC3E000
00FF03E000
ENDCHAR
STARTCHAR 0258
ENCODING 600
SWIDTH 558 0
DWIDTH 31 0
BBX 24 30 4 0
BITMAP
00FE00
07FF80
0FFFE0
1FFFF0
3F83F8
3E00F8
7C007C
7C003E
78003E
F8003E
F8001F
F8001F
FFFFFF
FFFFFF
FFFFFF
FFFFFF
00001F
00001F
00003F
00003E
00003E
00007E
00007C
0000FC
8003F8
F80FF0
FFFFE0
FFFFC0
7FFF00
07F800
ENDCHAR
STARTCHAR 0259
ENCODING 601
SWIDTH 558 0
DWIDTH 31 0
BBX 24 30 4 0
BITMAP
07F800
7FFF00
FFFFC0
FFFFE0
F80FF0
8003F8
0000FC
00007C
00007E
00003E
00003E
00003F
00001F
00001F
FFFFFF
FFFFFF
FFFFFF
FFFFFF
F8001F
F8001F
F8003E
78003E
7C003E
7C007C
3E00F8
3F83F8
1FFFF0
0FFFE0
07FF80
00FE00
ENDCHAR
STARTCHAR 025A
ENCODING 602
SWIDTH 792 0
DWIDTH 44 0
BBX 40 30 4 0
BITMAP
07F8000000
7FFF000000
FFFFC00000
FFFFE00000
F80FF00000
8003F80000
0000FC0000
00007C00C0
00007E07C0
00003E7FC0
00003FFFC0
00007FFFC0
0007FFFBC0
003FFF83C0
03FFFF03C0
3FFFDF03C0
FFFC1F03C0
FFC01F03E0
FC001F03E1
F8001F01FF
F8003E01FF
78003E00FF
7C003E003E
7C007C0000
3E00F80000
3F83F80000
1FFFF00000
0FFFE00000
07FF800000
00FE000000
ENDCHAR
STARTCHAR 025B
ENCODING 603
SWIDTH 486 0
DWIDTH 27 0
BBX 21 30 3 0
BITMAP
00FFC0
07FFF0
0FFFF0
1FFFF0
3F8030
3F0000
3E0000
3E0000
3E0000
1F0000
1F8000
07F000
03FFC0
01FFC0
07FFC0
1FFFC0
3FC000
7E0000
7C0000
F80000
F80000
F80000
F80000
FC0000
7E0008
7F8078
3FFFF8
0FFFF8
07FFF0
00FF80
ENDCHAR
STARTCHAR 025C
ENCODING 604
SWIDTH 486 0
DWIDTH 27 0
BBX 21 30 3 0
BITMAP
1FF800
7FFF00
7FFF80
7FFFC0
600FE0
0007E0
0003E0
0003E0
0003E0
0007C0
000FC0
007F00
1FFE00
1FFC00
1FFF00
1FFFC0
001FE0
0003F0
0001F0
0000F8
0000F8
0000F8
0000F8
0001F8
8003F0
F00FF0
FFFFE0
FFFF80
7FFF00
0FF800
ENDCHAR
STARTCHAR 025D
ENCODING 605
SWIDTH 666 0
DWIDTH 37 0
BBX 34 30 3 0
BITMAP
1FF8003000
7FFF03F000
7FFF9FF000
7FFFFFF000
600FFFF000
0007FEF000
0003F0F000
0003E0F000
0003E0F000
0007C0F000
000FC0F800
007F80F840
1FFE007FC0
1FFC007FC0
1FFF003FC0
1FFFC00F80
001FE00000
0003F00000
0001F00000
0000F80000
0000F80000
0000F80000
0000F80000
0001F80000
8003F00000
F00FF00000
FFFFE00000
FFFF800000
7FFF000000
0FF8000000
ENDCHAR
STARTCHAR 025E
ENCODING 606
SWIDTH 594 0
DWIDTH 33 0
BBX 27 30 3 0
BITMAP
001FF000
00FFFE00
03FFFF80
07FFFFC0
0FF01FC0
1F8007E0
3F0003E0
3E0003E0
7E0003E0
7C0003C0
7C0007C0
F8003F80
F81FFF00
F81FFC00
F81FFE00
F81FFF80
F8003FC0
F8000FC0
F80007E0
F80003E0
7C0003E0
7C0003E0
7E0003E0
3F0007E0
3F800FC0
1FE03FC0
0FFFFF80
07FFFE00
01FFFC00
003FE000
ENDCHAR
STARTCHAR 025F
ENCODING 607
SWIDTH 414 0
DWIDTH 23 0
BBX 22 41 -1 -11
BITMAP
003E00
003E00
003E00
003E00
003E00
003E00
003E00
003E00
003E00
003E00
003E00
003E00
003E00
003E00
003E00
003E00
003E00
003E00
003E00
003E00
003E00
003E00
0FFFFC
0FFFFC
0FFFFC
0FFFFC
003E00
003E00
003E00
003E00
003E00
003E00
003E00
003E00
003E00
807C00
E0FC00
FFF800
FFF800
7FE000
1F8000
ENDCHAR
STARTCHAR 0260
ENCODING 608
SWIDTH 648 0
DWIDTH 36 0
BBX 34 55 3 -11
BITMAP
0000001FC0
0000007FC0
000000FFC0
000001FFC0
000001F840
000003F000
000003E000
000003E000
000003E000
000003E000
000003E000
000003E000
000003E000
000003E000
003F83E000
01FFE3E000
07FFF3E000
0FFFFBE000
1FE07FE000
1F801FE000
3F0007E000
7E0003E000
7C0003E000
7C0003E000
FC0003E000
F80003E000
F80003E000
F80003E000
F80003E000
F80003E000
F80003E000
F80003E000
F80003E000
F80003E000
7C0003E000
7C0007E000
7E001FE000
3F003FE000
1FC0FBE000
1FFFFBE000
0FFFF3E000
03FFC3E000
00FF03E000
000003E000
000003C000
000007C000
000007C000
000007C000
00000F8000
10001F8000
3F00FF0000
3FFFFE0000
3FFFFC0000
1FFFF00000
01FF800000
ENDCHAR
STARTCHAR 0261
ENCODING 609
SWIDTH 630 0
DWIDTH 35 0
BBX 27 41 3 -11
BITMAP
0007FFE0
003FFFE0
00FFFFE0
03FC07E0
07E003E0
0FC003E0
1F0003E0
1F0003E0
3E0003E0
3C0003E0
7C0003E0
7C0003E0
780003E0
F80003E0
F80003E0
F80007E0
F80007E0
F8000FE0
F8001FE0
F8001FE0
FC003FE0
FC007BE0
7E01FBE0
7F07F3E0
3FFFE3E0
3FFFC3E0
1FFF03E0
0FFE03E0
03F003E0
000003E0
000003C0
000007C0
000007C0
00000FC0
00000F80
10003F80
3F00FF00
3FFFFE00
3FFFFC00
1FFFF000
01FF8000
ENDCHAR
STARTCHAR 0262
ENCODING 610
SWIDTH 594 0
DWIDTH 33 0
BBX 26 30 3 0
BITMAP
001FFE00
00FFFFC0
03FFFFC0
07FFFFC0
0FF003C0
1F800000
3F000000
3E000000
7C000000
7C000000
FC000000
F8000000
F8000000
F8000000
F8000000
F8000000
F8000000
F80007C0
F80007C0
FC0007C0
7C0007C0
7E0007C0
7E0007C0
3F0007C0
1FC007C0
1FF007C0
07FFFFC0
03FFFFC0
00FFFFC0
001FF800
ENDCHAR
STARTCHAR 0263
ENCODING 611
SWIDTH 540 0
DWIDTH 30 0
BBX 29 41 0 -11
BITMAP
380000F8
3C0000F8
7F0000F8
FF0000F8
7F8000F0
1FC001F0
0FC001F0
07E003E0
07E003E0
03F007C0
03F007C0
01F80F80
01F80F80
00F81F00
00FC1E00
007C3E00
007E7C00
003E7800
003FF800
001FF000
001FF000
000FE000
000FC000
000FE000
001FF000
003FF000
003FF800
007CFC00
0078FC00
00F87C00
00F87E00
01F03E00
01F03E00
01F03E00
01F03E00
01F03E00
01F87C00
00FFFC00
007FF800
003FF000
000FC000
ENDCHAR
STARTCHAR 0264
ENCODING 612
SWIDTH 594 0
DWIDTH 33 0
BBX 30 30 2 0
BITMAP
3E0000F0
7F8003FC
FFC007FC
FFE00FFC
C7F01F8C
81F83E00
00FC7C00
007C7800
003EF800
003EF000
001FF000
001FE000
000FE000
0007C000
000FE000
001FF000
003FF000
007FF800
007CFC00
00F87C00
00F87E00
01F03E00
01F03E00
01F03E00
01F03E00
01F87E00
00FFFC00
00FFF800
007FF000
001FC000
ENDCHAR
STARTCHAR 0265
ENCODING 613
SWIDTH 630 0
DWIDTH 35 0
BBX 25 41 5 -11
BITMAP
F8000F80
F8000F80
F8000F80
F8000F80
F8000F80
F8000F80
F8000F80
F8000F80
F8000F80
F8000F80
F8000F80
F8000F80
F8000F80
F8000F80
F8000F80
F8000F80
F8000F80
F8000F80
F8000F80
F8000F80
F8001F80
F8003F80
F8007F80
F800FF80
7C01FF80
7E07EF80
7FFFCF80
3FFF8F80
1FFE0F80
03F80F80
00000F80
00000F80
00000F80
00000F80
00000F80
00000F80
00000F80
00000F80
00000F80
00000F80
00000F80
ENDCHAR
STARTCHAR 0266
ENCODING 614
SWIDTH 630 0
DWIDTH 35 0
BBX 25 44 5 0
BITMAP
003FC000
01FFF800
07FFFC00
0FFFFC00
1FE03C00
1F800400
3F000000
3E000000
7C000000
7C000000
7C000000
FC000000
F8000000
F8000000
F80FE000
F83FF800
F8FFFE00
F9FFFE00
FBF03F00
FFC01F00
FF801F80
FF000F80
FE000F80
FC000F80
F8000F80
F8000F80
F8000F80
F8000F80
F8000F80
F8000F80
F8000F80
F8000F80
F8000F80
F8000F80
F8000F80
F8000F80
F8000F80
F8000F80
F8000F80
F8000F80
F8000F80
F8000F80
F8000F80
F8000F80
ENDCHAR
STARTCHAR 0267
ENCODING 615
SWIDTH 630 0
DWIDTH 35 0
BBX 25 55 5 -11
BITMAP
003FC000
01FFF800
07FFFC00
0FFFFC00
1FE03C00
1F800400
3F000000
3E000000
7C000000
7C000000
7C000000
FC000000
F8000000
F8000000
F80FE000
F83FF800
F8FFFE00
F9FFFE00
FBF03F00
FFC01F00
FF801F80
FF000F80
FE000F80
FC000F80
F8000F80
F8000F80
F8000F80
F8000F80
F8000F80
F8000F80
F8000F80
F8000F80
F8000F80
F8000F80
F8000F80
F8000F80
F8000F80
F8000F80
F8000F80
F8000F80
F8000F80
F8000F80
F8000F80
F8000F80
00000F80
00000F80
00000F80
00000F80
00001F80
00001F80
00083F00
000FFF00
000FFE00
000FFC00
000FF000
ENDCHAR
STARTCHAR 0268
ENCODING 616
SWIDTH 396 0
DWIDTH 22 0
BBX 19 41 1 0
BITMAP
01F000
01F000
01F000
01F000
01F000
000000
000000
000000
000000
000000
000000
01F000
01F000
01F000
01F000
01F000
01F000
01F000
01F000
01F000
01F000
01F000
FFFFE0
FFFFE0
FFFFE0
FFFFE0
01F000
01F000
01F000
01F000
01F000
01F000
01F000
01F000
01F000
01F000
01F000
01F000
01F000
01F000
01F000
ENDCHAR
STARTCHAR 0269
ENCODING 617
SWIDTH 378 0
DWIDTH 21 0
BBX 14 30 5 0
BITMAP
F800
F800
F800
F800
F800
F800
F800
F800
F800
F800
F800
F800
F800
F800
F800
F800
F800
F800
F800
F800
F800
F800
F800
FC00
7C00
7E04
7FFC
3FFC
1FFC
07F0
ENDCHAR
STARTCHAR 026A
ENCODING 618
SWIDTH 414 0
DWIDTH 23 0
BBX 15 30 4 0
BITMAP
FFFE
FFFE
FFFE
FFFE
07C0
07C0
07C0
07C0
07C0
07C0
07C0
07C0
07C0
07C0
07C0
07C0
07C0
07C0
07C0
07C0
07C0
07C0
07C0
07C0
07C0
07C0
FFFE
FFFE
FFFE
FFFE
ENDCHAR
STARTCHAR 026B
ENCODING 619
SWIDTH 504 0
DWIDTH 28 0
BBX 25 44 1 0
BITMAP
003E0000
003E0000
003E0000
003E0000
003E0000
003E0000
003E0000
003E0000
003E0000
003E0000
003E0000
003E0000
003E0000
003E0000
003E0000
003E0780
003E0780
0FFE0780
3FFE0780
7FFF0F00
7FFFFF00
787FFF00
F83FFE00
F03FF800
F03E0000
F03E0000
003E0000
003E0000
003E0000
003E0000
003E0000
003E0000
003E0000
003E0000
003E0000
003E0000
003E0000
003E0000
003E0000
003E0000
003E0000
003E0000
003E0000
003E0000
ENDCHAR
STARTCHAR 026C
ENCODING 620
SWIDTH 486 0
DWIDTH 27 0
BBX 25 44 1 0
BITMAP
000F8000
000F8000
000F8000
000F8000
000F8000
000F8000
000F8000
000F8000
000F8000
000F8000
000F8000
000F8000
07EF8000
1FFF8000
3FFF8000
7FFF8000
7C1F8000
F80F8000
F00F8000
F00F8000
F00F8000
F00F8000
F80F8080
7C0F8380
7F8F9F80
3FFFFF80
1FFFFF00
07FFFC00
00FFE000
000F8000
000F8000
000F8000
000F8000
000F8000
000F8000
000F8000
000F8000
000F8000
000F8000
000F8000
000F8000
000F8000
000F8000
000F8000
ENDCHAR
STARTCHAR 026D
ENCODING 621
SWIDTH 306 0
DWIDTH 17 0
BBX 12 55 5 -11
BITMAP
F800
F800
F800
F800
F800
F800
F800
F800
F800
F800
F800
F800
F800
F800
F800
F800
F800
F800
F800
F800
F800
F800
F800
F800
F800
F800
F800
F800
F800
F800
F800
F800
F800
F800
F800
F800
F800
F800
F800
F800
F800
F800
F800
F800
F800
F800
F800
F800
F800
FC00
7E10
7FF0
3FF0
1FF0
07E0
ENDCHAR
STARTCHAR 026E
ENCODING 622
SWIDTH 666 0
DWIDTH 37 0
BBX 29 55 5 -11
BITMAP
F8000000
F8000000
F8000000
F8000000
F8000000
F8000000
F8000000
F8000000
F8000000
F8000000
F8000000
F8000000
F8000000
F8000000
FFFFFFF0
FFFFFFF0
FFFFFFF0
FFFFFFF0
F80007F0
F8000FE0
F8001FC0
F8001F80
F8003F00
F8007E00
F800FE00
F801FC00
F803F800
F803F000
F807E000
F80FC000
F81F8000
F81FF000
F81FFE00
F81FFF80
F81FFFC0
F8007FE0
F8000FE0
F80007F0
F80003F0
F80001F8
F80000F8
F80000F8
F80000F8
F80000F8
000000F8
000000F8
000001F0
000001F0
000003E0
00000FE0
03803FC0
03FFFF80
03FFFE00
03FFFC00
00FFC000
ENDCHAR
STARTCHAR 026F
ENCODING 623
SWIDTH 936 0
DWIDTH 52 0
BBX 41 30 5 0
BITMAP
F8003E000F80
F8003E000F80
F8003E000F80
F8003E000F80
F8003E000F80
F8003E000F80
F8003E000F80
F8003E000F80
F8003E000F80
F8003E000F80
F8003E000F80
F8003E000F80
F8003E000F80
F8003E000F80
F8003E000F80
F8003E000F80
F8003E000F80
F8003E000F80
F8003E000F80
F8003E000F80
F8003E000F80
F8007E001F80
F800FE003F80
F801FE007F80
FC07FF01FF80
7E0F9F83EF80
7FFF1FFFCF80
3FFE0FFF8F80
1FFC07FF0F80
07E001F80F80
ENDCHAR
STARTCHAR 0270
ENCODING 624
SWIDTH 936 0
DWIDTH 52 0
BBX 41 41 5 -11
BITMAP
F8003E000F80
F8003E000F80
F8003E000F80
F8003E000F80
F8003E000F80
F8003E000F80
F8003E000F80
F8003E000F80
F8003E000F80
F8003E000F80
F8003E000F80
F8003E000F80
F8003E000F80
F8003E000F80
F8003E000F80
F8003E000F80
F8003E000F80
F8003E000F80
F8003E000F80
F8003E000F80
F8003E000F80
F8007E001F80
F800FE003F80
F801FE007F80
FC07FF01FF80
7E0F9F83EF80
7FFF1FFFCF80
3FFE0FFF8F80
1FFC07FF0F80
07E001F80F80
000000000F80
000000000F80
000000000F80
000000000F80
000000000F80
000000000F80
000000000F80
000000000F80
000000000F80
000000000F80
000000000F80
ENDCHAR
STARTCHAR 0271
ENCODING 625
SWIDTH 936 0
DWIDTH 52 0
BBX 41 41 5 -11
BITMAP
F80FC003F000
F87FF01FFC00
F8FFF83FFE00
F9FFFC7FFF00
FBE0FCF83F00
FFC07FF01F80
FF003FC00F80
FE003F800F80
FC003F000F80
F8003E000F80
F8003E000F80
F8003E000F80
F8003E000F80
F8003E000F80
F8003E000F80
F8003E000F80
F8003E000F80
F8003E000F80
F8003E000F80
F8003E000F80
F8003E000F80
F8003E000F80
F8003E000F80
F8003E000F80
F8003E000F80
F8003E000F80
F8003E000F80
F8003E000F80
F8003E000F80
F8003E000F80
000000000F80
000000000F80
000000000F80
000000000F80
000000001F80
000000001F80
000000083F00
0000000FFF00
0000000FFE00
0000000FFC00
0000000FF000
ENDCHAR
STARTCHAR 0272
ENCODING 626
SWIDTH 630 0
DWIDTH 35 0
BBX 31 41 -1 -11
BITMAP
01F01FC0
01F07FF0
01F1FFF8
01F3FFFC
01F7E0FC
01FF807C
01FF003E
01FC003E
01FC003E
01F8003E
01F0003E
01F0003E
01F0003E
01F0003E
01F0003E
01F0003E
01F0003E
01F0003E
01F0003E
01F0003E
01F0003E
01F0003E
01F0003E
01F0003E
01F0003E
01F0003E
01F0003E
01F0003E
01F0003E
01F0003E
01F00000
01F00000
01F00000
01F00000
01F00000
03F00000
87E00000
FFE00000
FFC00000
FF800000
FE000000
ENDCHAR
STARTCHAR 0273
ENCODING 627
SWIDTH 648 0
DWIDTH 36 0
BBX 32 41 5 -11
BITMAP
F80FE000
F83FF800
F8FFFE00
F9FFFE00
FBF03F00
FFC01F00
FF801F80
FF000F80
FE000F80
FC000F80
F8000F80
F8000F80
F8000F80
F8000F80
F8000F80
F8000F80
F8000F80
F8000F80
F8000F80
F8000F80
F8000F80
F8000F80
F8000F80
F8000F80
F8000F80
F8000F80
F8000F80
F8000F80
F8000F80
F8000F80
00000F80
00000F80
00000F80
00000F80
00000F80
00000FC0
000007E1
000007FF
000003FF
000001FF
0000007F
ENDCHAR
STARTCHAR 0274
ENCODING 628
SWIDTH 630 0
DWIDTH 35 0
BBX 25 30 5 0
BITMAP
F8000F80
FC000F80
FE000F80
FE000F80
FF000F80
FF800F80
FF800F80
FFC00F80
FFE00F80
FBF00F80
FBF00F80
F9F80F80
F8FC0F80
F87C0F80
F87E0F80
F83F0F80
F81F0F80
F81F8F80
F80FCF80
F807EF80
F807EF80
F803FF80
F801FF80
F801FF80
F800FF80
F8007F80
F8003F80
F8003F80
F8001F80
F8000F80
ENDCHAR
STARTCHAR 0275
ENCODING 629
SWIDTH 612 0
DWIDTH 34 0
BBX 28 30 3 0
BITMAP
003FC000
01FFF800
07FFFC00
0FFFFF00
1FE07F80
1F801F80
3F000FC0
7E0007E0
7C0003E0
7C0003E0
F80003F0
F80001F0
F80001F0
FFFFFFF0
FFFFFFF0
FFFFFFF0
FFFFFFF0
F80001F0
F80001F0
F80001F0
7C0003E0
7C0003E0
7E0007E0
3E0007C0
1F801F80
1FE07F80
0FFFFF00
07FFFE00
01FFF800
003FC000
ENDCHAR
STARTCHAR 0276
ENCODING 630
SWIDTH 810 0
DWIDTH 45 0
BBX 40 30 3 0
BITMAP
003FC7FFFE
00FFFFFFFE
03FFFFFFFE
07FFFFFFFE
0FE07FC000
1F801FC000
3F000FC000
3E000FC000
7C0007C000
7C0007C000
7C0007C000
F80007C000
F80007FFF8
F80007FFF8
F80007FFF8
F80007FFF8
F80007C000
F80007C000
F80007C000
7C0007C000
7C0007C000
7C0007C000
3E000FC000
3F000FC000
1F801FC000
0FE07FC000
07FFFFFFFF
03FFFFFFFF
00FFFFFFFF
003FC7FFFF
ENDCHAR
STARTCHAR 0277
ENCODING 631
SWIDTH 810 0
DWIDTH 45 0
BBX 37 30 3 0
BITMAP
0007FE0000
003FFFE000
00FFFFF800
03FFFFFE00
07FC01FF00
0FE0003F80
1FC0001FC0
1F80000FC0
3F000007E0
7E000003E0
7E007003F0
7C00F001F0
FC00F801F0
F800F800F8
F800F800F8
F800F800F8
F800F800F8
F800F800F8
F800F800F8
F800F000F8
F8007000F8
FC007001F0
7C00F801F0
7E00F803F0
3E01FC03E0
3F87FF0FE0
1FFFDFFFC0
0FFF8FFF80
07FF07FF00
01F801FC00
ENDCHAR
STARTCHAR 0278
ENCODING 632
SWIDTH 774 0
DWIDTH 43 0
BBX 37 55 3 -11
BITMAP
0000F80000
0000F80000
0000F80000
0000F80000
0000F80000
0000F80000
0000F80000
0000F80000
0000F80000
0000F80000
0000F80000
0000F80000
0000F80000
0000F80000
0000F80000
001FFFC000
00FFFFF800
03FFFFFE00
07FFFFFF00
0FF8F8FF80
1FC0F81FC0
3F00F807E0
7E00F803F0
7C00F801F0
7C00F801F0
F800F801F8
F800F800F8
F800F800F8
F800F800F8
F800F800F8
F800F800F8
F800F800F8
FC00F801F8
7C00F801F0
7E00F803F0
7E00F803F0
3F00F807E0
1FC0F81FC0
0FF0F87F80
07FFFFFF00
03FFFFFE00
00FFFFF800
001FFFC000
0000F80000
0000F80000
0000F80000
0000F80000
0000F80000
0000F80000
0000F80000
0000F80000
0000F80000
0000F80000
0000F80000
0000F80000
ENDCHAR
STARTCHAR 0279
ENCODING 633
SWIDTH 414 0
DWIDTH 23 0
BBX 17 30 1 0
BITMAP
000F80
000F80
000F80
000F80
000F80
000F80
000F80
000F80
000F80
000F80
000F80
000F80
000F80
000F80
000F80
000F80
000F80
000F80
000F80
000F80
000F80
001F80
003F80
007F80
00FF80
03EF80
FFEF80
FFCF80
FF0F80
FC0F80
ENDCHAR
STARTCHAR 027A
ENCODING 634
SWIDTH 414 0
DWIDTH 23 0
BBX 17 44 1 0
BITMAP
000F80
000F80
000F80
000F80
000F80
000F80
000F80
000F80
000F80
000F80
000F80
000F80
000F80
000F80
000F80
000F80
000F80
000F80
000F80
000F80
000F80
000F80
000F80
000F80
000F80
000F80
000F80
000F80
000F80
000F80
000F80
000F80
000F80
000F80
000F80
001F80
003F80
007F80
00FF80
03EF80
FFEF80
FFCF80
FF0F80
FC0F80
ENDCHAR
STARTCHAR 027B
ENCODING 635
SWIDTH 432 0
DWIDTH 24 0
BBX 24 41 1 -11
BITMAP
000F80
000F80
000F80
000F80
000F80
000F80
000F80
000F80
000F80
000F80
000F80
000F80
000F80
000F80
000F80
000F80
000F80
000F80
000F80
000F80
000F80
001F80
003F80
007F80
00FF80
03EF80
FFCF80
FF8F80
FF0F80
FC0F80
000F80
000F80
000F80
000F80
000F80
000FC0
0007E1
0007FF
0003FF
0001FF
00007E
ENDCHAR
STARTCHAR 027C
ENCODING 636
SWIDTH 414 0
DWIDTH 23 0
BBX 17 41 5 -11
BITMAP
F80F80
F87F80
F8FF80
F9FF80
FBE000
FF8000
FF0000
FE0000
FC0000
F80000
F80000
F80000
F80000
F80000
F80000
F80000
F80000
F80000
F80000
F80000
F80000
F80000
F80000
F80000
F80000
F80000
F80000
F80000
F80000
F80000
F80000
F80000
F80000
F80000
F80000
F80000
F80000
F80000
F80000
F80000
F80000
ENDCHAR
STARTCHAR 027D
ENCODING 637
SWIDTH 414 0
DWIDTH 23 0
BBX 17 41 5 -11
BITMAP
F80F80
F87F80
F8FF80
F9FF80
FBE000
FF8000
FF0000
FE0000
FC0000
F80000
F80000
F80000
F80000
F80000
F80000
F80000
F80000
F80000
F80000
F80000
F80000
F80000
F80000
F80000
F80000
F80000
F80000
F80000
F80000
F80000
F80000
F80000
F80000
F80000
FC0000
FC0000
7E0800
7FF800
3FF800
1FF800
07F000
ENDCHAR
STARTCHAR 027E
ENCODING 638
SWIDTH 414 0
DWIDTH 23 0
BBX 17 30 5 0
BITMAP
01FE00
07FF80
0FFF80
1FFF80
3F0180
7E0000
7C0000
7C0000
780000
F80000
F80000
F80000
F80000
F80000
F80000
F80000
F80000
F80000
F80000
F80000
F80000
F80000
F80000
F80000
F80000
F80000
F80000
F80000
F80000
F80000
ENDCHAR
STARTCHAR 027F
ENCODING 639
SWIDTH 414 0
DWIDTH 23 0
BBX 17 30 1 0
BITMAP
3FC000
FFF000
FFF800
FFFC00
C07E00
003E00
001F00
001F00
000F00
000F80
000F80
000F80
000F80
000F80
000F80
000F80
000F80
000F80
000F80
000F80
000F80
000F80
000F80
000F80
000F80
000F80
000F80
000F80
000F80
000F80
ENDCHAR
STARTCHAR 0280
ENCODING 640
SWIDTH 558 0
DWIDTH 31 0
BBX 25 30 5 0
BITMAP
FFFF0000
FFFFC000
FFFFE000
FFFFF000
F807F000
F801F800
F800F800
F800F800
F800F800
F800F800
F800F800
F801F000
F803F000
F80FE000
FFFFC000
FFFF0000
FFFE0000
FFFF0000
F81F8000
F81F8000
F80FC000
F807E000
F803E000
F803F000
F801F800
F800FC00
F800FC00
F8007E00
F8003F00
F8001F80
ENDCHAR
STARTCHAR 0281
ENCODING 641
SWIDTH 558 0
DWIDTH 31 0
BBX 25 30 5 0
BITMAP
F8001F80
F8003F00
F8007E00
F800FC00
F800FC00
F801F800
F803F000
F803F000
F807E000
F80FC000
F81F8000
F81F8000
FFFF0000
FFFE0000
FFFF0000
FFFFC000
F80FE000
F803F000
F801F000
F800F800
F800F800
F800F800
F800F800
F800F800
F801F800
F807F800
FFFFF000
FFFFE000
FFFFC000
FFFF0000
ENDCHAR
STARTCHAR 0282
ENCODING 642
SWIDTH 522 0
DWIDTH 29 0
BBX 21 41 4 -11
BITMAP
01FF00
0FFFE0
1FFFE0
3FFFE0
7E00E0
FC0000
F80000
F80000
F80000
FC0000
FE0000
7F8000
3FF000
1FFC00
0FFF00
03FFC0
007FE0
001FF0
0007F0
0001F8
0000F8
0000F8
0000F8
8000F8
E001F0
FC07F0
FFFFE0
FFFFC0
FFFF00
F7F800
F00000
F00000
F00000
F00000
F80000
780000
7C0800
3FF800
3FF800
1FF800
07F000
ENDCHAR
STARTCHAR 0283
ENCODING 643
SWIDTH 432 0
DWIDTH 24 0
BBX 27 55 -2 -11
BITMAP
00003F80
0000FFE0
0003FFE0
0003FFE0
0007E060
000F8000
000F8000
000F8000
001F0000
001F0000
001F0000
001F0000
001F0000
001F0000
001F0000
001F0000
001F0000
001F0000
001F0000
001F0000
001F0000
001F0000
001F0000
001F0000
001F0000
001F0000
001F0000
001F0000
001F0000
001F0000
001F0000
001F0000
001F0000
001F0000
001F0000
001F0000
001F0000
001F0000
001F0000
001F0000
001F0000
001F0000
001F0000
001F0000
001F0000
001F0000
001E0000
003E0000
003E0000
007E0000
C0FC0000
FFF80000
FFF80000
FFE00000
3F800000
ENDCHAR
STARTCHAR 0284
ENCODING 644
SWIDTH 432 0
DWIDTH 24 0
BBX 22 55 -1 -11
BITMAP
0001F8
0007FC
000FFC
001FFC
001F84
003F00
003E00
003E00
003E00
003E00
003E00
003E00
003E00
003E00
003E00
003E00
003E00
003E00
003E00
003E00
003E00
003E00
003E00
003E00
003E00
003E00
003E00
003E00
003E00
003E00
003E00
003E00
003E00
003E00
003E00
003E00
0FFFF8
0FFFF8
0FFFF8
0FFFF8
003E00
003E00
003E00
003E00
003E00
003E00
003E00
003E00
003E00
807C00
E0FC00
FFF800
FFF800
7FE000
1F8000
ENDCHAR
STARTCHAR 0285
ENCODING 645
SWIDTH 486 0
DWIDTH 27 0
BBX 27 41 1 -11
BITMAP
3F800000
FFE00000
FFF80000
FFF80000
C0FC0000
003E0000
003E0000
003E0000
001F0000
001F0000
001F0000
001F0000
001F0000
001F0000
001F0000
001F0000
001F0000
001F0000
001F0000
001F0000
001F0000
001F0000
001F0000
001F0000
001F0000
001F0000
001F0000
001F0000
001F0000
001F0000
001F0000
001F0000
001F0000
000F8000
000F8000
000F8000
0007E060
0003FFE0
0003FFE0
0000FFE0
00003F80
ENDCHAR
STARTCHAR 0286
ENCODING 646
SWIDTH 540 0
DWIDTH 30 0
BBX 31 55 -1 -11
BITMAP
000007F8
00001FFE
00003FFE
00007FFE
0000FC06
0000F800
0001F000
0001F000
0001E000
0003E000
0003E000
0003E000
0003E000
0003E000
0003E000
0003E000
0003E000
0003E000
0003E000
0003E000
0003E000
0003E000
0003E000
0003E000
0003E000
0003E000
0003E000
0003E000
0003E000
0003E000
0003E000
0003E000
0003E000
0003E000
0003E000
0003E000
0003E000
007FFC00
07FFFFC0
0FFFFFF0
3FFFFFF0
3F83E3F0
7E03E030
7C03E000
F803E000
F803E000
F803E000
F807C000
F807C000
FC0FC000
7E1F8000
7FFF0000
3FFE0000
1FFC0000
07F00000
ENDCHAR
STARTCHAR 0287
ENCODING 647
SWIDTH 378 0
DWIDTH 21 0
BBX 18 36 2 -6
BITMAP
FF0000
FFC000
FFF000
FFF800
03F800
00FC00
00FC00
007C00
007C00
007C00
007C00
007C00
007C00
007C00
007C00
007C00
007C00
007C00
007C00
007C00
007C00
007C00
007C00
007C00
007C00
007C00
FFFFC0
FFFFC0
FFFFC0
FFFFC0
007C00
007C00
007C00
007C00
007C00
007C00
ENDCHAR
STARTCHAR 0288
ENCODING 648
SWIDTH 378 0
DWIDTH 21 0
BBX 17 47 1 -11
BITMAP
0F8000
0F8000
0F8000
0F8000
0F8000
0F8000
FFFF80
FFFF80
FFFF80
FFFF80
0F8000
0F8000
0F8000
0F8000
0F8000
0F8000
0F8000
0F8000
0F8000
0F8000
0F8000
0F8000
0F8000
0F8000
0F8000
0F8000
0F8000
0F8000
0F8000
0F8000
0F8000
0F8000
0F8000
0F8000
0F8000
0F8000
0F8000
0F8000
0F8000
0F8000
0FC000
0FC000
07E080
07FF80
03FF80
01FF80
007F00
ENDCHAR
STARTCHAR 0289
ENCODING 649
SWIDTH 666 0
DWIDTH 37 0
BBX 35 30 1 0
BITMAP
07C0007C00
07C0007C00
07C0007C00
07C0007C00
07C0007C00
07C0007C00
07C0007C00
07C0007C00
07C0007C00
07C0007C00
07C0007C00
FFFFFFFFE0
FFFFFFFFE0
FFFFFFFFE0
FFFFFFFFE0
07C0007C00
07C0007C00
07C0007C00
07C0007C00
07C0007C00
07C000FC00
07C001FC00
07C003FC00
07C007FC00
07E00FFC00
03F03F7C00
03FFFE7C00
01FFFC7C00
00FFF07C00
001FC07C00
ENDCHAR
STARTCHAR 028A
ENCODING 650
SWIDTH 666 0
DWIDTH 37 0
BBX 31 30 3 0
BITMAP
FFC007FE
FFC007FE
FFC007FE
FFC007FE
07C007C0
0F8003E0
0F0001E0
1F0001F0
1E0000F0
3E0000F8
3E0000F8
3C000078
7C00007C
7C00007C
7C00007C
7C00007C
7C00007C
7C00007C
7C00007C
7E0000FC
3E0000F8
3F0001F8
3F0001F8
1F8003F0
0FC007E0
07F01FC0
03FFFF80
01FFFF00
00FFFC00
001FF000
ENDCHAR
STARTCHAR 028B
ENCODING 651
SWIDTH 594 0
DWIDTH 33 0
BBX 29 30 1 0
BITMAP
F80001F0
FC0001F0
7C0001F8
7C0000F8
7E0000F8
3E0000F8
3E0000F8
3E0000F8
1F0000F8
1F0000F8
1F0000F8
1F8000F8
0F8000F0
0F8000F0
0FC001F0
07C001F0
07C001E0
07C001E0
03E003C0
03E003C0
03E00780
03F00F80
01F00F00
01F01E00
01F87C00
00F9F800
00FFF000
00FFE000
007F8000
007C0000
ENDCHAR
STARTCHAR 028C
ENCODING 652
SWIDTH 522 0
DWIDTH 29 0
BBX 29 30 0 0
BITMAP
000F8000
001FC000
001FC000
003FE000
003FE000
003FE000
007FF000
007DF000
00FDF800
00F8F800
00F8F800
01F8FC00
01F07C00
03F07E00
03E03E00
03E03E00
07E03F00
07C01F00
07C01F00
0F800F80
0F800F80
1F800FC0
1F0007C0
1F0007C0
3E0003E0
3E0003E0
7E0003F0
7C0001F0
7C0001F0
FC0001F8
ENDCHAR
STARTCHAR 028D
ENCODING 653
SWIDTH 774 0
DWIDTH 43 0
BBX 43 30 0 0
BITMAP
007F001FC000
007F001FC000
007F801FC000
00FF803FE000
00FF803FE000
00FF803FE000
01FF803FF000
01F7C07DF000
01F7C07DF000
03F7C07DF800
03E7C07CF800
03E3E0F8F800
07E3E0F8FC00
07C3E0F87C00
07C3E0F87C00
07C1F1F07C00
0F81F1F03E00
0F81F1F03E00
0F81F1F03E00
1F80FBE03F00
1F00FBE01F00
1F00FBE01F00
3F00FBE01F80
3E007FC00F80
3E007FC00F80
7E007FC00FC0
7C007FC007C0
7C007F8007C0
FC003F8007E0
F8003F8003E0
ENDCHAR
STARTCHAR 028E
ENCODING 654
SWIDTH 522 0
DWIDTH 29 0
BBX 29 41 0 0
BITMAP
0000FC00
0000FC00
0000F800
0001F800
0001F000
0003F000
0003E000
0007E000
0007E000
0007C000
000FC000
000FC000
001FC000
001FC000
001FE000
003FE000
003FF000
007FF000
007DF000
007CF800
00FCF800
00F8FC00
01F87C00
01F07C00
03F07E00
03F03E00
03E03F00
07E01F00
07C01F00
0FC01F80
0F800F80
0F800F80
1F8007C0
1F0007C0
3F0007E0
3E0003E0
3E0003E0
7E0001F0
7C0001F0
FC0001F8
F80000F8
ENDCHAR
STARTCHAR 028F
ENCODING 655
SWIDTH 486 0
DWIDTH 27 0
BBX 26 30 1 0
BITMAP
FC000FC0
7C001F80
7E001F00
3F003F00
1F007E00
1F807E00
0F80FC00
0FC1F800
07E1F800
03E3F000
03F3E000
01F7E000
01FFC000
00FF8000
00FF8000
007F0000
003E0000
003E0000
003E0000
003E0000
003E0000
003E0000
003E0000
003E0000
003E0000
003E0000
003E0000
003E0000
003E0000
003E0000
ENDCHAR
STARTCHAR 0290
ENCODING 656
SWIDTH 576 0
DWIDTH 32 0
BBX 33 41 3 -11
BITMAP
7FFFFF8000
7FFFFF8000
7FFFFF8000
7FFFFF8000
00003F8000
00007F0000
00007E0000
0000FC0000
0001F80000
0003F00000
0007E00000
000FE00000
000FC00000
001F800000
003F000000
007E000000
00FC000000
01F8000000
03F8000000
03F0000000
07E0000000
0FC0000000
1F80000000
3F00000000
7F00000000
FE00000000
FFFFFF0000
FFFFFF0000
FFFFFF0000
FFFFFF0000
00000F0000
00000F0000
00000F0000
00000F0000
00000F0000
0000078000
000007C080
000007FF80
000003FF80
000001FF80
0000007F00
ENDCHAR
STARTCHAR 0291
ENCODING 657
SWIDTH 702 0
DWIDTH 39 0
BBX 35 38 3 -8
BITMAP
7FFFFF8000
7FFFFF8000
7FFFFF8000
7FFFFF8000
00003F8000
00007F0000
00007E0000
0000FC0000
0001F80000
0003F00000
0007E00000
000FE00000
000FC00000
001F800000
003F000000
007E007E00
00FC01FF80
01F807FFC0
03F80FFFC0
03F01FC3E0
07E03F01E0
0FC07E01E0
1F80FC01E0
3F00F803E0
7F01F007C0
FE03E03FC0
FFFFFFFF80
FFFFFFFF00
FFFFFFFC00
FFFFFFC000
000F000000
001F000000
001E000000
001E000000
003E000000
003C000000
003C000000
003C000000
ENDCHAR
STARTCHAR 0292
ENCODING 658
SWIDTH 522 0
DWIDTH 29 0
BBX 24 41 2 -11
BITMAP
7FFFFE
7FFFFE
7FFFFE
7FFFFE
00007C
0000F8
0001F0
0003E0
0007C0
000F80
001F00
003E00
007C00
00F800
01F000
03E000
07C000
0FF800
0FFF00
0FFFC0
0FFFF0
003FF8
0007FC
0001FC
00007E
00003E
00003F
00001F
00001F
00001F
00001F
00001F
00003F
00003E
00007E
C000FC
F803F8
FFFFF0
FFFFE0
7FFF80
07FC00
ENDCHAR
STARTCHAR 0293
ENCODING 659
SWIDTH 540 0
DWIDTH 30 0
BBX 26 46 1 -16
BITMAP
1FFFFF80
1FFFFF80
1FFFFF80
1FFFFF80
00001F00
00003E00
0000FC00
0001F800
0003F000
0007E000
000FC000
001F0000
003E0000
00FC0000
01F80000
03F00000
03FF0000
03FFE000
03FFF800
03FFFC00
0007FE00
00007F00
00003F80
00001F80
00000F80
000007C0
000007C0
0FE007C0
3FF807C0
7FFE07C0
7FFF07C0
F83F8F80
F00FDF80
F003FF00
F001FF00
F800FE00
7E03FC00
3FFFFC00
1FFFFC00
0FFFBE00
01FC1E00
00001E00
00001F00
00000F00
00000F00
00000F00
ENDCHAR
STARTCHAR 0294
ENCODING 660
SWIDTH 450 0
DWIDTH 25 0
BBX 21 44 2 0
BITMAP
3FF000
FFFE00
FFFF00
FFFFC0
C03FC0
000FE0
0003F0
0003F0
0001F0
0001F8
0000F8
0000F8
0000F8
0000F8
0000F8
0000F8
0000F8
0001F0
0001F0
0003F0
0003E0
0007E0
000FC0
003F80
07FF00
07FC00
07F000
07C000
07C000
07C000
07C000
07C000
07C000
07C000
07C000
07C000
07C000
07C000
07C000
07C000
07C000
07C000
07C000
07C000
ENDCHAR
STARTCHAR 0295
ENCODING 661
SWIDTH 450 0
DWIDTH 25 0
BBX 21 44 2 0
BITMAP
007FE0
03FFF8
07FFF8
1FFFF8
1FE018
3F8000
7E0000
7E0000
7C0000
FC0000
F80000
F80000
F80000
F80000
F80000
F80000
F80000
7C0000
7C0000
7C0000
3E0000
3F0000
1F8000
0FE000
07FF00
01FF00
007F00
001F00
001F00
001F00
001F00
001F00
001F00
001F00
001F00
001F00
001F00
001F00
001F00
001F00
001F00
001F00
001F00
001F00
ENDCHAR
STARTCHAR 0296
ENCODING 662
SWIDTH 450 0
DWIDTH 25 0
BBX 21 44 2 0
BITMAP
07C000
07C000
07C000
07C000
07C000
07C000
07C000
07C000
07C000
07C000
07C000
07C000
07C000
07C000
07C000
07C000
07C000
07F000
07FC00
07FF00
003F80
000FC0
0007E0
0003E0
0003F0
0001F0
0001F0
0000F8
0000F8
0000F8
0000F8
0000F8
0000F8
0000F8
0001F8
0001F0
0003F0
0003F0
000FE0
C03FC0
FFFFC0
FFFF00
FFFE00
3FF000
ENDCHAR
STARTCHAR 0297
ENCODING 663
SWIDTH 486 0
DWIDTH 27 0
BBX 23 41 3 -11
BITMAP
000FE0
007FFC
01FFFE
03FFFE
07F81E
0FC002
0F8000
1F0000
3F0000
3E0000
3E0000
7C0000
7C0000
7C0000
F80000
F80000
F80000
F80000
F80000
F80000
F80000
F80000
F80000
F80000
F80000
F80000
780000
7C0000
7C0000
7C0000
3E0000
3E0000
3F0000
1F0000
0F8000
0FC002
07F01E
03FFFE
01FFFE
007FFC
000FE0
ENDCHAR
STARTCHAR 0298
ENCODING 664
SWIDTH 666 0
DWIDTH 37 0
BBX 31 30 3 0
BITMAP
001FE000
007FFC00
01FFFF00
03FFFF80
0FF01FE0
1FC007E0
1F0001F0
3E0000F8
7C000078
7C00007C
7800003C
F800003E
F00FC01E
F00FC01E
F00FC01E
F00FC01E
F00FC01E
F00FC01E
F800003E
7800003C
7800007C
7C00007C
3E0000F8
1F0001F0
1FC007F0
0FF01FE0
07FFFF80
01FFFF00
007FFC00
001FF000
ENDCHAR
STARTCHAR 0299
ENCODING 665
SWIDTH 540 0
DWIDTH 30 0
BBX 22 30 5 0
BITMAP
FFFF00
FFFFC0
FFFFE0
FFFFF0
F807F8
F801F8
F800F8
F800F8
F800F8
F800F8
F801F0
F803F0
F80FE0
FFFFC0
FFFF00
FFFF80
FFFFE0
F80FF0
F801F8
F800F8
F8007C
F8007C
F8007C
F8007C
F800FC
F803F8
FFFFF8
FFFFF0
FFFFE0
FFFF00
ENDCHAR
STARTCHAR 029A
ENCODING 666
SWIDTH 594 0
DWIDTH 33 0
BBX 27 30 3 0
BITMAP
01FF0000
0FFFE000
3FFFF800
7FFFFC00
7F01FE00
FC003F00
F8001F80
F8000F80
F8000FC0
780007C0
7C0007C0
3F0003E0
1FFF03E0
07FF03E0
0FFF03E0
3FFF03E0
7F8003E0
7E0003E0
FC0003E0
F80003E0
F80007C0
F80007C0
F8000FC0
FC001F80
7E003F80
7F80FF00
3FFFFE00
0FFFFC00
07FFF000
00FF8000
ENDCHAR
STARTCHAR 029B
ENCODING 667
SWIDTH 612 0
DWIDTH 34 0
BBX 34 44 3 0
BITMAP
0000003F80
000000FFC0
000001FFC0
000001FFC0
000003E040
000003C000
000007C000
0000078000
0000078000
0000078000
0000078000
0000078000
0000078000
0000078000
001FFF8000
00FFFF8000
03FFFF8000
0FFFFF8000
1FF0038000
1F80000000
3F00000000
7E00000000
7C00000000
7C00000000
FC00000000
F800000000
F800000000
F800000000
F800000000
F800000000
F800000000
F8000F8000
F8000F8000
FC000F8000
7C000F8000
7C000F8000
7E000F8000
3F000F8000
1F800F8000
1FF00F8000
0FFFFF8000
03FFFF8000
01FFFF8000
003FF00000
ENDCHAR
STARTCHAR 029C
ENCODING 668
SWIDTH 630 0
DWIDTH 35 0
BBX 25 30 5 0
BITMAP
F8000F80
F8000F80
F8000F80
F8000F80
F8000F80
F8000F80
F8000F80
F8000F80
F8000F80
F8000F80
F8000F80
F8000F80
FFFFFF80
FFFFFF80
FFFFFF80
FFFFFF80
F8000F80
F8000F80
F8000F80
F8000F80
F8000F80
F8000F80
F8000F80
F8000F80
F8000F80
F8000F80
F8000F80
F8000F80
F8000F80
F8000F80
ENDCHAR
STARTCHAR 029D
ENCODING 669
SWIDTH 504 0
DWIDTH 28 0
BBX 27 52 -1 -11
BITMAP
0003E000
0003E000
0003E000
0003E000
0003E000
00000000
00000000
00000000
00000000
00000000
00000000
0003E000
0003E000
0003E000
0003E000
0003E000
0003E000
0003E000
0003E000
0003E000
0003E000
0003E000
0003E000
0003E000
0003E000
0003E000
0003E000
0003E000
0003E000
0003E000
0003E000
0003E000
0003E000
0003E000
007FFC00
07FFFFC0
0FFFFFE0
3FFFFFE0
3F83E3E0
7E03E060
7C03E000
F803E000
F803E000
F803E000
F807C000
F807C000
FC0FC000
7E1F8000
7FFF0000
3FFE0000
1FFC0000
07F00000
ENDCHAR
STARTCHAR 029E
ENCODING 670
SWIDTH 594 0
DWIDTH 33 0
BBX 27 41 1 -11
BITMAP
FE0003E0
7F0003E0
3F8003E0
1FC003E0
0FE003E0
07F003E0
03F803E0
01FC03E0
00FE03E0
007F03E0
003F83E0
001FC3E0
000FE3E0
0007F3E0
0003FBE0
0001FFE0
0001FBE0
0003F3E0
0007E3E0
000FC3E0
001FC3E0
003F83E0
007F03E0
00FE03E0
00FC03E0
01F803E0
03F003E0
07E003E0
0FC003E0
1FC003E0
000003E0
000003E0
000003E0
000003E0
000003E0
000003E0
000003E0
000003E0
000003E0
000003E0
000003E0
ENDCHAR
STARTCHAR 029F
ENCODING 671
SWIDTH 468 0
DWIDTH 26 0
BBX 20 30 5 0
BITMAP
F80000
F80000
F80000
F80000
F80000
F80000
F80000
F80000
F80000
F80000
F80000
F80000
F80000
F80000
F80000
F80000
F80000
F80000
F80000
F80000
F80000
F80000
F80000
F80000
F80000
F80000
FFFFF0
FFFFF0
FFFFF0
FFFFF0
ENDCHAR
STARTCHAR 02A0
ENCODING 672
SWIDTH 648 0
DWIDTH 36 0
BBX 34 55 3 -11
BITMAP
0000001F80
0000007FC0
000000FFC0
000001FFC0
000001F840
000003F000
000003E000
000003E000
000003E000
000003E000
000003E000
000003E000
000003E000
000003E000
007F83E000
01FFE3E000
07FFF3E000
0FFFFFE000
1FC0FFE000
1F001FE000
3E000FE000
3E0003E000
7C0003E000
7C0003E000
7C0003E000
F80003E000
F80003E000
F80003E000
F80003E000
F80003E000
F80003E000
F80003E000
F80003E000
F80003E000
FC0003E000
7C0003E000
7C0007E000
7E001FE000
3F003FE000
1FC0FBE000
1FFFFBE000
0FFFE3E000
03FFC3E000
00FF03E000
000003E000
000003E000
000003E000
000003E000
000003E000
000003E000
000003E000
000003E000
000003E000
000003E000
000003E000
ENDCHAR
STARTCHAR 02A1
ENCODING 673
SWIDTH 450 0
DWIDTH 25 0
BBX 21 44 2 0
BITMAP
3FF000
FFFE00
FFFF00
FFFFC0
C03FC0
000FE0
0003F0
0003F0
0001F0
0001F8
0000F8
0000F8
0000F8
0000F8
0000F8
0000F8
0000F8
0001F0
0001F0
0003F0
0003E0
0007E0
000FC0
003F80
07FF00
07FC00
07F000
07C000
07C000
07C000
07C000
07C000
FFFFE0
FFFFE0
FFFFE0
FFFFE0
07C000
07C000
07C000
07C000
07C000
07C000
07C000
07C000
ENDCHAR
STARTCHAR 02A2
ENCODING 674
SWIDTH 450 0
DWIDTH 25 0
BBX 21 44 2 0
BITMAP
007FE0
03FFF8
07FFF8
1FFFF8
1FE018
3F8000
7E0000
7E0000
7C0000
FC0000
F80000
F80000
F80000
F80000
F80000
F80000
F80000
7C0000
7C0000
7C0000
3E0000
3F0000
1F8000
0FE000
07FF00
01FF00
007F00
001F00
001F00
001F00
001F00
001F00
3FFFF8
3FFFF8
3FFFF8
3FFFF8
001F00
001F00
001F00
001F00
001F00
001F00
001F00
001F00
ENDCHAR
STARTCHAR 02A3
ENCODING 675
SWIDTH 1044 0
DWIDTH 58 0
BBX 52 44 3 0
BITMAP
000003E0000000
000003E0000000
000003E0000000
000003E0000000
000003E0000000
000003E0000000
000003E0000000
000003E0000000
000003E0000000
000003E0000000
000003E0000000
000003E0000000
000003E0000000
000003E0000000
007F83FFFFFFF0
01FFE3FFFFFFF0
07FFF3FFFFFFF0
0FFFFFFFFFFFF0
1FC0FFE00003F0
1F001FE00007E0
3E000FE0000FC0
3E0003E0000FC0
7C0003E0001F80
7C0003E0003F00
7C0003E0003F00
F80003E0007E00
F80003E000FC00
F80003E000F800
F80003E001F800
F80003E003F000
F80003E003E000
F80003E007E000
F80003E00FC000
F80003E01F8000
FC0003E01F8000
7C0007E03F0000
7C000FE07E0000
7E001FE07E0000
3F007FE0FC0000
1FC1FBE1F80000
1FFFF3E1FFFFF0
0FFFE3E1FFFFF0
03FFC3E1FFFFF0
00FE03E1FFFFF0
ENDCHAR
STARTCHAR 02A4
ENCODING 676
SWIDTH 1008 0
DWIDTH 56 0
BBX 50 55 3 -11
BITMAP
000007C0000000
000007C0000000
000007C0000000
000007C0000000
000007C0000000
000007C0000000
000007C0000000
000007C0000000
000007C0000000
000007C0000000
000007C0000000
000007C0000000
000007C0000000
000007C0000000
007F07FFFFFF80
01FFC7FFFFFF80
07FFE7FFFFFF80
0FFFFFFFFFFF80
1FC0FFC0001F80
1F003FC0003F00
3E001FC0007E00
3E0007C0007C00
7C0007C000F800
7C0007C001F000
7C0007C003E000
F80007C007C000
F80007C00F8000
F80007C01F0000
F80007C03E0000
F80007C07C0000
F80007C0F80000
F80007C0FF0000
F80007C0FFE000
F80007C0FFF800
FC0007C0FFFE00
7C0007C003FE00
7C000FC0007F00
7E003FC0003F80
3F007FC0001F80
3F81F7C0000FC0
1FFFF7C00007C0
0FFFE7C00007C0
03FF87C00007C0
00FE07C00007C0
000000000007C0
000000000007C0
00000000000F80
00000000000F80
00000000001F00
00000000007F00
0000001C01FE00
0000001FFFFC00
0000001FFFF000
0000001FFFE000
00000007FE0000
ENDCHAR
STARTCHAR 02A5
ENCODING 677
SWIDTH 1224 0
DWIDTH 68 0
BBX 64 52 3 -8
BITMAP
000003E000000000
000003E000000000
000003E000000000
000003E000000000
000003E000000000
000003E000000000
000003E000000000
000003E000000000
000003E000000000
000003E000000000
000003E000000000
000003E000000000
000003E000000000
000003E000000000
007F83FFFFFFE000
01FFE3FFFFFFE000
07FFF3FFFFFFE000
0FFFFFFFFFFFE000
1FC0FFE00007E000
1F001FE0000FC000
3E000FE0000F8000
3E0003E0001F8000
7C0003E0003F0000
7C0003E0003E0000
7C0003E0007E0000
F80003E000FC0000
F80003E000FC0000
F80003E001F80000
F80003E003F00000
F80003E003F003F0
F80003E007E00FFC
F80003E00FC01FFE
F80003E00FC03FFE
F80003E01F807E1F
FC0003E01F00FC0F
7C0003E03F01F00F
7C0007E07E03E00F
7E001FE07C03E01F
3F003FE0FC07C03E
1FC0FBE1F80F80FE
1FFFFBE1FFFFFFFC
0FFFE3E1FFFFFFF8
03FFC3E1FFFFFFE0
00FF03E1FFFFFE00
00000000003C0000
00000000007C0000
0000000000780000
0000000000780000
0000000000F80000
0000000000F00000
0000000000F00000
0000000000F00000
ENDCHAR
STARTCHAR 02A6
ENCODING 678
SWIDTH 810 0
DWIDTH 45 0
BBX 40 36 1 0
BITMAP
0F80000000
0F80000000
0F80000000
0F80000000
0F80000000
0F80000000
FFFFFFFFE0
FFFFFFFFFC
FFFFFFFFFC
FFFFFFFFFC
0F8007E01C
0F800FC000
0F800F8000
0F800F8000
0F800F8000
0F800FC000
0F8007E000
0F8007F800
0F8003FF00
0F8001FFC0
0F8000FFF0
0F80003FF8
0F80000FFC
0F800001FE
0F8000007E
0F8000003F
0F8000001F
0F8000001F
0F8000001F
0FC008001F
0FC00E003E
07F00FC0FE
07FFCFFFFC
03FFC7FFF8
00FFC1FFF0
003FC03F80
ENDCHAR
STARTCHAR 02A7
ENCODING 679
SWIDTH 720 0
DWIDTH 40 0
BBX 40 55 1 -11
BITMAP
00000003FC
0000000FFF
0000001FFF
0000003FFF
0000007E03
000000FC00
000000F800
000000F800
0F8001F000
0F8001F000
0F8001F000
0F8001F000
0F8001F000
0F8001F000
FFFFFFF000
FFFFFFF000
FFFFFFF000
FFFFFFF000
0F8001F000
0F8001F000
0F8001F000
0F8001F000
0F8001F000
0F8001F000
0F8001F000
0F8001F000
0F8001F000
0F8001F000
0F8001F000
0F8001F000
0F8001F000
0F8001F000
0F8001F000
0F8001F000
0F8001F000
0F8001F000
0F8001F000
0FC001F000
0FC001F000
07F001F000
07FFC1F000
03FFC1F000
00FFC1F000
003F81F000
000001F000
000001F000
000001E000
000003E000
000003E000
000007E000
000C0FC000
000FFF8000
000FFF8000
000FFE0000
0003F80000
ENDCHAR
STARTCHAR 02A8
ENCODING 680
SWIDTH 882 0
DWIDTH 49 0
BBX 46 41 1 -5
BITMAP
0F8000000000
0F8000000000
0F8000000000
0F8000000000
0F8000000000
0F8000000000
FFFFFFFFFF00
FFFFFFFFFFC0
FFFFFFFFFFC0
FFFFFFFFFFC0
0F8001FE00C0
0F8003F80000
0F8003F00000
0F8007E00000
0F8007C00000
0F8007C00000
0F800FC00000
0F800F800000
0F800F800000
0F800F800000
0F800F800000
0F800F800000
0F800F800FC0
0F800F807FF0
0F800FC0FFF8
0F8007C3FFF8
0F8007E7F07C
0F8003FFC03C
0F8003FF803C
0FC001FF003C
0FC001FE007C
07F000FF81F8
07FFC07FFFF0
03FFC0FFFFE0
00FFC0F7FFC0
003FC0F0FE00
000001F00000
000001E00000
000001E00000
000001E00000
000001E00000
ENDCHAR
STARTCHAR 02B0
ENCODING 688
SWIDTH 378 0
DWIDTH 21 0
BBX 15 27 3 25
BITMAP
F000
F000
F000
F000
F000
F000
F000
F000
F0F0
F3FC
F7FC
FE3E
FC1E
F81E
F01E
F01E
F01E
F01E
F01E
F01E
F01E
F01E
F01E
F01E
F01E
F01E
F01E
ENDCHAR
STARTCHAR 02B1
ENCODING 689
SWIDTH 378 0
DWIDTH 21 0
BBX 15 27 3 25
BITMAP
07F0
1FF8
3FF8
7C08
7800
7800
F000
F000
F0F0
F3FC
F7FC
FE3E
FC1E
F81E
F01E
F01E
F01E
F01E
F01E
F01E
F01E
F01E
F01E
F01E
F01E
F01E
F01E
ENDCHAR
STARTCHAR 02B2
ENCODING 690
SWIDTH 252 0
DWIDTH 14 0
BBX 11 33 0 19
BITMAP
01E0
01E0
01E0
01E0
0000
0000
0000
0000
01E0
01E0
01E0
01E0
01E0
01E0
01E0
01E0
01E0
01E0
01E0
01E0
01E0
01E0
01E0
01E0
01E0
01E0
01E0
01E0
03E0
83C0
FFC0
FF80
7E00
ENDCHAR
STARTCHAR 02B3
ENCODING 691
SWIDTH 270 0
DWIDTH 15 0
BBX 11 19 3 25
BITMAP
F0E0
F3E0
F7E0
FE00
FC00
F800
F000
F000
F000
F000
F000
F000
F000
F000
F000
F000
F000
F000
F000
ENDCHAR
STARTCHAR 02B4
ENCODING 692
SWIDTH 270 0
DWIDTH 15 0
BBX 11 19 1 25
BITMAP
01E0
01E0
01E0
01E0
01E0
01E0
01E0
01E0
01E0
01E0
01E0
01E0
01E0
03E0
07E0
0FE0
FDE0
F9E0
F1E0
ENDCHAR
STARTCHAR 02B5
ENCODING 693
SWIDTH 324 0
DWIDTH 18 0
BBX 16 25 1 19
BITMAP
01E0
01E0
01E0
01E0
01E0
01E0
01E0
01E0
01E0
01E0
01E0
01E0
01E0
03E0
07E0
0FE0
FDE0
F9E0
F1E0
01E0
01E0
01F0
00FF
007F
003F
ENDCHAR
STARTCHAR 02B6
ENCODING 694
SWIDTH 360 0
DWIDTH 20 0
BBX 16 19 3 25
BITMAP
F01F
F03E
F03C
F07C
F0F8
F0F0
F1F0
FFE0
FFE0
FFF0
F0F8
F03C
F03C
F03C
F03C
F07C
FFFC
FFF8
FFE0
ENDCHAR
STARTCHAR 02B7
ENCODING 695
SWIDTH 486 0
DWIDTH 27 0
BBX 26 19 1 25
BITMAP
F01F00C0
F81F01C0
781F0180
783F0180
78370380
7C378300
3C378300
3C778300
3C678600
1E638600
1E63C600
1EE3CC00
1EC3CC00
0FC3CC00
0FC3DC00
0FC1F800
0F81F800
0781F800
0781F000
ENDCHAR
STARTCHAR 02B8
ENCODING 696
SWIDTH 342 0
DWIDTH 19 0
BBX 18 24 0 19
BITMAP
F000C0
780180
780180
7C0300
3C0300
3C0700
1E0600
1E0E00
1F0C00
0F0C00
0F1800
079800
07B000
07F000
03E000
03E000
01E000
01C000
01C000
018000
018000
030000
030000
060000
ENDCHAR
STARTCHAR 02B9
ENCODING 697
SWIDTH 288 0
DWIDTH 16 0
BBX 11 16 3 27
BITMAP
07E0
07C0
0FC0
0F80
0F80
1F00
1F00
1E00
3E00
3C00
3C00
7800
7800
7000
F000
E000
ENDCHAR
STARTCHAR 02BA
ENCODING 698
SWIDTH 504 0
DWIDTH 28 0
BBX 23 16 3 27
BITMAP
07E07E
07C07C
0FC0FC
0F80F8
0F80F8
1F01F0
1F01F0
1E01E0
3E03E0
3C03C0
3C03C0
780780
780780
700700
F00F00
E00E00
ENDCHAR
STARTCHAR 02BB
ENCODING 699
SWIDTH 324 0
DWIDTH 18 0
BBX 7 16 6 28
BITMAP
06
1E
3C
78
78
70
F0
F0
F0
FE
FE
FE
FE
FE
FE
FE
ENDCHAR
STARTCHAR 02BC
ENCODING 700
SWIDTH 324 0
DWIDTH 18 0
BBX 7 16 6 28
BITMAP
FE
FE
FE
FE
FE
FE
FE
1E
1E
1E
1C
3C
3C
78
F0
C0
ENDCHAR
STARTCHAR 02BD
ENCODING 701
SWIDTH 324 0
DWIDTH 18 0
BBX 7 16 6 28
BITMAP
FE
FE
FE
FE
FE
FE
FE
F0
F0
F0
70
78
78
3C
1E
06
ENDCHAR
STARTCHAR 02BE
ENCODING 702
SWIDTH 324 0
DWIDTH 18 0
BBX 9 16 5 28
BITMAP
F000
FC00
FE00
0F00
0700
0780
0380
0380
0380
0380
0780
0700
0F00
FE00
FC00
F000
ENDCHAR
STARTCHAR 02BF
ENCODING 703
SWIDTH 324 0
DWIDTH 18 0
BBX 9 16 4 28
BITMAP
0780
1F80
3F80
7800
7000
F000
E000
E000
E000
E000
F000
7000
7800
3F80
1F80
0780
ENDCHAR
STARTCHAR 02C0
ENCODING 704
SWIDTH 324 0
DWIDTH 18 0
BBX 14 19 2 25
BITMAP
3FC0
FFF0
FFF8
C078
003C
003C
003C
007C
0078
00F8
01F0
01F0
03E0
07C0
07C0
0FC0
0FC0
0F80
0F00
ENDCHAR
STARTCHAR 02C1
ENCODING 705
SWIDTH 324 0
DWIDTH 18 0
BBX 14 19 2 25
BITMAP
0FF0
3FFC
7FFC
F80C
F000
F000
F000
F800
7800
7C00
3C00
3E00
1F00
0F80
0780
07C0
03C0
03C0
03C0
ENDCHAR
STARTCHAR 02C2
ENCODING 706
SWIDTH 414 0
DWIDTH 23 0
BBX 18 17 1 27
BITMAP
0000C0
0003C0
000FC0
003F80
00FE00
03F800
0FE000
3F8000
FF0000
3F8000
0FE000
03F800
00FE00
003F80
000FC0
0003C0
0000C0
ENDCHAR
STARTCHAR 02C3
ENCODING 707
SWIDTH 414 0
DWIDTH 23 0
BBX 18 17 4 27
BITMAP
C00000
F00000
FC0000
7F0000
1FC000
07F000
01FC00
007F00
003FC0
007F00
01FC00
07F000
1FC000
7F0000
FC0000
F00000
C00000
ENDCHAR
STARTCHAR 02C4
ENCODING 708
SWIDTH 414 0
DWIDTH 23 0
BBX 17 17 3 26
BITMAP
008000
008000
01C000
01C000
03E000
03E000
07F000
07F000
0E3800
0E3800
1C1C00
1C1C00
380E00
380E00
700700
F00700
E00380
ENDCHAR
STARTCHAR 02C5
ENCODING 709
SWIDTH 414 0
DWIDTH 23 0
BBX 17 17 3 26
BITMAP
E00380
700780
700700
380E00
380E00
1C1C00
1C1C00
0E3800
0E3800
07F000
07F000
03E000
03E000
01C000
01C000
008000
008000
ENDCHAR
STARTCHAR 02C6
ENCODING 710
SWIDTH 612 0
DWIDTH 34 0
BBX 19 9 7 35
BITMAP
03F800
07FC00
07FC00
0FBE00
1F1F00
3E0F80
3C0780
7803C0
F001E0
ENDCHAR
STARTCHAR 02C7
ENCODING 711
SWIDTH 612 0
DWIDTH 34 0
BBX 19 9 7 35
BITMAP
F001E0
7803C0
3C0780
3E0F80
1F1F00
0FBE00
07FC00
07FC00
03F800
ENDCHAR
STARTCHAR 02C8
ENCODING 712
SWIDTH 252 0
DWIDTH 14 0
BBX 3 16 5 27
BITMAP
E0
E0
E0
E0
E0
E0
E0
E0
E0
E0
E0
E0
E0
E0
E0
E0
ENDCHAR
STARTCHAR 02C9
ENCODING 713
SWIDTH 612 0
DWIDTH 34 0
BBX 18 4 8 35
BITMAP
FFFFC0
FFFFC0
FFFFC0
FFFFC0
ENDCHAR
STARTCHAR 02CA
ENCODING 714
SWIDTH 612 0
DWIDTH 34 0
BBX 13 9 11 35
BITMAP
03F8
03F0
07E0
0FC0
1F80
1F00
3E00
7C00
F800
ENDCHAR
STARTCHAR 02CB
ENCODING 715
SWIDTH 612 0
DWIDTH 34 0
BBX 13 9 11 35
BITMAP
FE00
7E00
3F00
1F80
0FC0
07C0
03E0
01F0
00F8
ENDCHAR
STARTCHAR 02CC
ENCODING 716
SWIDTH 252 0
DWIDTH 14 0
BBX 3 14 5 -11
BITMAP
E0
E0
E0
E0
E0
E0
E0
E0
E0
E0
E0
E0
E0
E0
ENDCHAR
STARTCHAR 02CD
ENCODING 717
SWIDTH 612 0
DWIDTH 34 0
BBX 18 4 8 -9
BITMAP
FFFFC0
FFFFC0
FFFFC0
FFFFC0
ENDCHAR
STARTCHAR 02CE
ENCODING 718
SWIDTH 612 0
DWIDTH 34 0
BBX 13 9 11 -14
BITMAP
FE00
7E00
3F00
1F80
0FC0
07C0
03E0
01F0
00F8
ENDCHAR
STARTCHAR 02CF
ENCODING 719
SWIDTH 612 0
DWIDTH 34 0
BBX 13 9 11 -14
BITMAP
03F8
03F0
07E0
0FC0
1F80
1F00
3E00
7C00
F800
ENDCHAR
STARTCHAR 02D0
ENCODING 720
SWIDTH 414 0
DWIDTH 23 0
BBX 13 30 5 0
BITMAP
FFF8
7FF0
7FF0
3FE0
3FE0
1FC0
0F80
0F80
0700
0700
0200
0200
0000
0000
0000
0000
0000
0000
0200
0200
0700
0700
0F80
0F80
1FC0
3FE0
3FE0
7FF0
7FF0
FFF8
ENDCHAR
STARTCHAR 02D1
ENCODING 721
SWIDTH 414 0
DWIDTH 23 0
BBX 13 12 5 18
BITMAP
FFF8
7FF0
7FF0
3FE0
3FE0
1FC0
0F80
0F80
0700
0700
0200
0200
ENDCHAR
STARTCHAR 02D2
ENCODING 722
SWIDTH 288 0
DWIDTH 16 0
BBX 9 16 3 8
BITMAP
F000
FC00
FE00
0F00
0700
0780
0380
0380
0380
0380
0780
0700
0F00
FE00
FC00
F000
ENDCHAR
STARTCHAR 02D3
ENCODING 723
SWIDTH 288 0
DWIDTH 16 0
BBX 9 16 3 8
BITMAP
0780
1F80
3F80
7800
7000
F000
E000
E000
E000
E000
F000
7000
7800
3F80
1F80
0780
ENDCHAR
STARTCHAR 02D4
ENCODING 724
SWIDTH 468 0
DWIDTH 26 0
BBX 17 11 4 13
BITMAP
01C000
01C000
01C000
01C000
01C000
01C000
01C000
01C000
FFFF80
FFFF80
FFFF80
ENDCHAR
STARTCHAR 02D5
ENCODING 725
SWIDTH 468 0
DWIDTH 26 0
BBX 17 11 4 13
BITMAP
FFFF80
FFFF80
FFFF80
01C000
01C000
01C000
01C000
01C000
01C000
01C000
01C000
ENDCHAR
STARTCHAR 02D6
ENCODING 726
SWIDTH 468 0
DWIDTH 26 0
BBX 17 17 4 8
BITMAP
01C000
01C000
01C000
01C000
01C000
01C000
01C000
FFFF80
FFFF80
FFFF80
01C000
01C000
01C000
01C000
01C000
01C000
01C000
ENDCHAR
STARTCHAR 02D7
ENCODING 727
SWIDTH 468 0
DWIDTH 26 0
BBX 18 9 4 11
BITMAP
E001C0
E001C0
E001C0
FFFFC0
FFFFC0
FFFFC0
E001C0
E001C0
E001C0
ENDCHAR
STARTCHAR 02D8
ENCODING 728
SWIDTH 612 0
DWIDTH 34 0
BBX 18 9 8 35
BITMAP
E001C0
E001C0
F003C0
780780
7C0F80
3FFF00
1FFE00
0FFC00
03F000
ENDCHAR
STARTCHAR 02D9
ENCODING 729
SWIDTH 612 0
DWIDTH 34 0
BBX 5 5 14 35
BITMAP
F8
F8
F8
F8
F8
ENDCHAR
STARTCHAR 02DA
ENCODING 730
SWIDTH 612 0
DWIDTH 34 0
BBX 12 12 11 35
BITMAP
0F00
3FC0
70E0
E060
C030
C030
C030
C030
E060
70E0
3FC0
1F00
ENDCHAR
STARTCHAR 02DB
ENCODING 731
SWIDTH 612 0
DWIDTH 34 0
BBX 9 10 14 -10
BITMAP
0E00
3C00
7800
7000
F000
F000
F800
FF80
7F80
3F00
ENDCHAR
STARTCHAR 02DC
ENCODING 732
SWIDTH 612 0
DWIDTH 34 0
BBX 18 6 8 35
BITMAP
1F01C0
7FC1C0
7FE3C0
F1FF80
E0FF80
E03E00
ENDCHAR
STARTCHAR 02DD
ENCODING 733
SWIDTH 612 0
DWIDTH 34 0
BBX 22 9 6 35
BITMAP
01F07C
03E0F8
07C1F0
0F83E0
1F07C0
1E0780
3C0F00
781E00
F03C00
ENDCHAR
STARTCHAR 02DE
ENCODING 734
SWIDTH 216 0
DWIDTH 12 0
BBX 17 16 -6 6
BITMAP
006000
07E000
7FE000
FFE000
F9E000
C1E000
01E000
01E000
01E000
01E000
01E000
00F000
00F080
007F80
007F80
001F00
ENDCHAR
STARTCHAR 02E0
ENCODING 736
SWIDTH 378 0
DWIDTH 21 0
BBX 20 27 0 16
BITMAP
300070
7C0070
FE0070
3F00E0
0F80E0
0781C0
03C3C0
03C380
01E780
01EF00
00FF00
007E00
007C00
007800
007C00
00FC00
01FE00
03CE00
038F00
078700
070700
070700
070700
078F00
03FE00
03FC00
00F800
ENDCHAR
STARTCHAR 02E1
ENCODING 737
SWIDTH 180 0
DWIDTH 10 0
BBX 3 26 3 25
BITMAP
E0
E0
E0
E0
E0
E0
E0
E0
E0
E0
E0
E0
E0
E0
E0
E0
E0
E0
E0
E0
E0
E0
E0
E0
E0
E0
ENDCHAR
STARTCHAR 02E2
ENCODING 738
SWIDTH 342 0
DWIDTH 19 0
BBX 13 19 3 25
BITMAP
1FC0
3FF0
7FF0
F830
F000
F000
F800
7E00
7F80
1FE0
0FF0
01F0
00F8
0078
0078
C0F8
FFF0
FFE0
3F80
ENDCHAR
STARTCHAR 02E3
ENCODING 739
SWIDTH 432 0
DWIDTH 24 0
BBX 18 19 3 25
BITMAP
F801C0
7C0180
3C0300
3E0600
1F0C00
0F1C00
0FB800
07F000
03E000
01E000
01F000
03F800
077C00
0E3C00
0C3E00
181F00
300F00
600F80
E007C0
ENDCHAR
STARTCHAR 02E4
ENCODING 740
SWIDTH 324 0
DWIDTH 18 0
BBX 14 25 2 25
BITMAP
0FF0
3FFC
7FFC
F80C
F000
F000
F000
F800
7800
7C00
3E00
1E00
1F00
0F80
0780
07C0
03C0
03C0
03C0
03C0
03C0
03C0
03C0
03C0
03C0
ENDCHAR
STARTCHAR 02E5
ENCODING 741
SWIDTH 450 0
DWIDTH 25 0
BBX 19 41 1 0
BITMAP
FFFFE0
FFFFE0
FFFFE0
0000E0
0000E0
0000E0
0000E0
0000E0
0000E0
0000E0
0000E0
0000E0
0000E0
0000E0
0000E0
0000E0
0000E0
0000E0
0000E0
0000E0
0000E0
0000E0
0000E0
0000E0
0000E0
0000E0
0000E0
0000E0
0000E0
0000E0
0000E0
0000E0
0000E0
0000E0
0000E0
0000E0
0000E0
0000E0
0000E0
0000E0
0000E0
ENDCHAR
STARTCHAR 02E6
ENCODING 742
SWIDTH 450 0
DWIDTH 25 0
BBX 19 41 1 0
BITMAP
0000E0
0000E0
0000E0
0000E0
0000E0
0000E0
0000E0
0000E0
0000E0
FFFFE0
FFFFE0
FFFFE0
0000E0
0000E0
0000E0
0000E0
0000E0
0000E0
0000E0
0000E0
0000E0
0000E0
0000E0
0000E0
0000E0
0000E0
0000E0
0000E0
0000E0
0000E0
0000E0
0000E0
0000E0
0000E0
0000E0
0000E0
0000E0
0000E0
0000E0
0000E0
0000E0
ENDCHAR
STARTCHAR 02E7
ENCODING 743
SWIDTH 450 0
DWIDTH 25 0
BBX 19 41 1 0
BITMAP
0000E0
0000E0
0000E0
0000E0
0000E0
0000E0
0000E0
0000E0
0000E0
0000E0
0000E0
0000E0
0000E0
0000E0
0000E0
0000E0
0000E0
0000E0
0000E0
FFFFE0
FFFFE0
FFFFE0
0000E0
0000E0
0000E0
0000E0
0000E0
0000E0
0000E0
0000E0
0000E0
0000E0
0000E0
0000E0
0000E0
0000E0
0000E0
0000E0
0000E0
0000E0
0000E0
ENDCHAR
STARTCHAR 02E8
ENCODING 744
SWIDTH 450 0
DWIDTH 25 0
BBX 19 41 1 0
BITMAP
0000E0
0000E0
0000E0
0000E0
0000E0
0000E0
0000E0
0000E0
0000E0
0000E0
0000E0
0000E0
0000E0
0000E0
0000E0
0000E0
0000E0
0000E0
0000E0
0000E0
0000E0
0000E0
0000E0
0000E0
0000E0
0000E0
0000E0
0000E0
FFFFE0
FFFFE0
FFFFE0
0000E0
0000E0
0000E0
0000E0
0000E0
0000E0
0000E0
0000E0
0000E0
0000E0
ENDCHAR
STARTCHAR 02E9
ENCODING 745
SWIDTH 450 0
DWIDTH 25 0
BBX 19 41 1 0
BITMAP
0000E0
0000E0
0000E0
0000E0
0000E0
0000E0
0000E0
0000E0
0000E0
0000E0
0000E0
0000E0
0000E0
0000E0
0000E0
0000E0
0000E0
0000E0
0000E0
0000E0
0000E0
0000E0
0000E0
0000E0
0000E0
0000E0
0000E0
0000E0
0000E0
0000E0
0000E0
0000E0
0000E0
0000E0
0000E0
0000E0
0000E0
0000E0
FFFFE0
FFFFE0
FFFFE0
ENDCHAR
STARTCHAR 0300
ENCODING 768
SWIDTH 0 0
DWIDTH 0 0
BBX 13 9 -26 35
BITMAP
FE00
7E00
3F00
1F80
0FC0
07C0
03E0
01F0
00F8
ENDCHAR
STARTCHAR 0301
ENCODING 769
SWIDTH 0 0
DWIDTH 0 0
BBX 13 9 -21 35
BITMAP
03F8
03F0
07E0
0FC0
1F80
1F00
3E00
7C00
F800
ENDCHAR
STARTCHAR 0302
ENCODING 770
SWIDTH 0 0
DWIDTH 0 0
BBX 19 9 -26 35
BITMAP
03F800
07FC00
07FC00
0FBE00
1F1F00
3E0F80
3C0780
7803C0
F001E0
ENDCHAR
STARTCHAR 0303
ENCODING 771
SWIDTH 0 0
DWIDTH 0 0
BBX 18 6 -26 35
BITMAP
1F01C0
7FC1C0
7FE3C0
F1FF80
E0FF80
E03E00
ENDCHAR
STARTCHAR 0304
ENCODING 772
SWIDTH 0 0
DWIDTH 0 0
BBX 18 4 -26 35
BITMAP
FFFFC0
FFFFC0
FFFFC0
FFFFC0
ENDCHAR
STARTCHAR 0305
ENCODING 773
SWIDTH 0 0
DWIDTH 0 0
BBX 34 4 -34 44
BITMAP
FFFFFFFFC0
FFFFFFFFC0
FFFFFFFFC0
FFFFFFFFC0
ENDCHAR
STARTCHAR 0306
ENCODING 774
SWIDTH 0 0
DWIDTH 0 0
BBX 18 9 -26 35
BITMAP
E001C0
E001C0
F003C0
780780
7C0F80
3FFF00
1FFE00
0FFC00
03F000
ENDCHAR
STARTCHAR 0307
ENCODING 775
SWIDTH 0 0
DWIDTH 0 0
BBX 5 5 -20 35
BITMAP
F8
F8
F8
F8
F8
ENDCHAR
ENDFONT
